<svg xmlns="http://www.w3.org/2000/svg" viewBox="0 0 2311.49 8192">
  <title>background</title>
  <g opacity="0.1">
    <circle cx="2072.15" cy="186.37" r="186.37" fill="#26b4fd"/>
    <circle cx="2067.78" cy="2484.44" r="82.02" fill="#26b4fd"/>
    <path d="M2096.92,1148.79c161.36,0-135.41,77.09-135.41,190.74s296.77,220.83,135.41,220.83-292.17-92.14-292.17-205.78S1935.55,1148.79,2096.92,1148.79Z" transform="translate(-34.97)" fill="#26b4fd"/>
    <circle cx="1926.06" cy="2632.95" r="66.49" fill="#26b4fd"/>
    <circle cx="1809.09" cy="2738.27" r="38.83" fill="#26b4fd"/>
    <path d="M680.24,539.45c27.91,54.36-92.21,22.09-193.34,74s-145,168.3-172.85,113.9,31.44-140.55,132.56-192.44S652.33,485.05,680.24,539.45Z" transform="translate(-34.97)" fill="#26b4fd"/>
    <path d="M426.39,3563.6c160.49,75.72,251.3,220.35,202.81,323.18s-217.87,124.76-378.37,49.08S-.46,3715.52,48,3612.68,265.84,3487.92,426.39,3563.6Z" transform="translate(-34.97)" fill="#26b4fd"/>
    <circle cx="475.39" cy="2400.48" r="38.83" fill="#26b4fd"/>
    <circle cx="370.07" cy="2295.16" r="66.49" fill="#26b4fd"/>
    <circle cx="303.58" cy="1355.06" r="157.25" fill="#26b4fd"/>
  </g>
  <g opacity="0.1">
    <ellipse cx="446.7" cy="7909.19" rx="34.33" ry="39.77" fill="#26b4fd"/>
    <ellipse cx="217.96" cy="7649.17" rx="72.53" ry="84.02" fill="#26b4fd"/>
    <ellipse cx="2073.09" cy="5818.71" rx="143.19" ry="165.87" transform="translate(-2071.72 1207.39) rotate(-22.1)" fill="#26b4fd"/>
    <path d="M1936.76,7686.13c-167.93,91.76-263,267.16-212.26,391.79s228,151.25,396,59.49,263-267.17,212.25-391.79S2104.68,7594.37,1936.76,7686.13Z" transform="translate(-34.97)" fill="#26b4fd"/>
    <ellipse cx="343.27" cy="7801.3" rx="58.8" ry="68.11" fill="#26b4fd"/>
    <path d="M1695.7,4759.25c-25.87,57.3,85.49,23.25,179.22,77.85s134.35,177.13,160.22,119.87S2006,4809,1912.28,4754.44,1721.57,4702,1695.7,4759.25Z" transform="translate(-34.97)" fill="#26b4fd"/>
    <ellipse cx="1709.21" cy="7196.82" rx="40.63" ry="47.07" fill="#26b4fd"/>
    <ellipse cx="1819.43" cy="6751.73" rx="69.59" ry="80.6" fill="#26b4fd"/>
    <path d="M220,5251C90,5251,329,5320.39,329,5422.68S90,5621.44,220,5621.44s235.28-82.93,235.28-185.2S349.94,5251,220,5251Z" transform="translate(-34.97)" fill="#26b4fd"/>
  </g>
</svg>
