<svg xmlns="http://www.w3.org/2000/svg" viewBox="0 0 649 649"><title>logo</title><circle cx="324.5" cy="324.5" r="324.5" fill="#fff"/><path d="M225.78,204.06c20.07-9.22,78.54,2.22,78.54,2.22s21.21,5.62,54.23,16.8c29,9.81,74.62,6.92,91.61,2.48,3.33-.86,21.7-5.9,17.25-15.79s-58.93-67.06-66-72.64c-9.19-7.2-119.37-61.93-172.92-.88-11.28,12.86-9.79,40.69-9.79,40.69S223.53,205.09,225.78,204.06Z" transform="translate(0 0)" fill="#102635" fill-rule="evenodd"/><path d="M472.36,229.51a6.83,6.83,0,0,0-6.22-5.33,5.13,5.13,0,0,0-2.37.52c-17.83,8.43-34.16,11.75-56.38,11.44-8-.11-16.64-.69-26.36-1.77-2-.24-6.36-1.11-10.52-1.88-6.72-1.28-18.17-5.37-20-5.41a3.79,3.79,0,0,0-2.83,1l-1,1,.07,1.34C347,234,363,241,370,243.43a144.76,144.76,0,0,0-18.85,3c-2.22.51-4.66,1.17-7.13,1.86-6.09,1.65-12.36,3.32-17.83,3.48-5.45-.29-11.67-2.15-17.74-4-2.44-.75-4.83-1.47-7.09-2a141.35,141.35,0,0,0-26-4.23c-12.83-.79-25.85.33-38.44,1.41-4.44.39-8.87.76-13.24,1.11a3,3,0,0,0-2.08,1.11,2.92,2.92,0,0,0-.65,2.22c.31,2.78.63,5.54,1,8.32.47,4.06,1.49,5.1,4,7.29l.23.21c2.13,1.85,2.65,5.71,3.13,9.11q.16,1.32.36,2.52l.22,1.3c1.72,10.08,3.51,20.5,11.88,28.08,6.94,6.27,18.62,10.42,29.27,10.57,1,0,2,0,2.93-.06a54.75,54.75,0,0,0,32.21-13.49c6.08-5.54,8-12.47,9.78-19.16a76.65,76.65,0,0,1,2.86-9c1.32-3.22,3.33-4.63,6.59-4.58h1.11c3.21,0,5.21,1.5,6.44,4.75a80,80,0,0,1,2.61,9.1c1.63,6.73,3.32,13.69,9.23,19.42a54.73,54.73,0,0,0,31.87,14.35c1,.08,1.94.12,2.93.15,10.64.14,22.43-3.69,29.55-9.77,8.58-7.36,10.64-17.75,12.65-27.72l.26-1.3c.15-.79.3-1.63.45-2.51.54-3.39,1.19-7.24,3.38-9l.24-.18c2.55-2.12,3.6-3.14,4.19-7.16.42-2.77.81-5.54,1.21-8.37a2.89,2.89,0,0,0-.61-2.21,2.19,2.19,0,0,0-.25-.2c5-.8,10.72-1.9,17.74-3.33,4.8-.89,17.35-4.89,19.31-6.65C470.31,235.28,473.26,233.15,472.36,229.51ZM296.62,292.06a35.64,35.64,0,0,1-25.9,10.47h0a34.08,34.08,0,0,1-13.13-2.77c-6.28-2.71-10.84-7.9-13.53-15.44-2.43-7-4.62-15.86.1-22.68,4.79-7,13.21-7.56,20-8h.35c1.57-.11,3.21-.16,4.87-.13,7.35.1,14.47,1.38,22.89,3.32,7.6,1.71,10.55,6.54,11.7,10.29C306.63,275.74,302.28,286.18,296.62,292.06Zm110.51-5.54c-2.89,7.47-7.59,12.54-14,15.08A33.77,33.77,0,0,1,380,304a35.66,35.66,0,0,1-25.51-11.15c-5.54-6-9.55-16.64-6.65-25.2,1.26-3.71,4.35-8.47,12-10,8.47-1.67,15.62-2.76,23-2.66,1.65,0,3.33.11,4.87.26H388c6.75.63,15.16,1.43,19.76,8.57,4.45,7,2,15.81-.64,22.71Z" transform="translate(0 0)" fill="#102635"/><path d="M485,541.3H164a7.21,7.21,0,0,1,0-14.41H485a7.21,7.21,0,0,1,0,14.41Z" transform="translate(0 0)" fill="#e5e5e5" fill-rule="evenodd"/><path d="M186.16,317.32a7.49,7.49,0,0,0-7.47,7.47V511.65a7.49,7.49,0,0,0,7.47,7.48H462.84a7.49,7.49,0,0,0,7.47-7.48V324.79a7.49,7.49,0,0,0-7.47-7.47Z" transform="translate(0 0)" fill="#e5e5e5" fill-rule="evenodd"/><path d="M338.68,435.8c-2.22,2.79-4.82,4.6-7.13,4.6-3.62,0-2.71-2.07-8-2.07-3.63,0-4.26,2.34-8.59,1.54a13.1,13.1,0,0,1-6.43-4.44c3.56-1.27,6-3.87,6-6.94a6.17,6.17,0,0,0-1.54-4.07,6.24,6.24,0,0,0-.13-8.21c4.12-4.81.13-9.81-5.55-11.41a11.64,11.64,0,0,1,6.22-1.2c2.93.13,4.75,1.66,8.17,2.74a8.78,8.78,0,0,1,3.22-10c1.88-.87,4.43.73,2.79,2.4a7.09,7.09,0,0,0-1.33,8.21c4.68.27,6.36-2.87,10.41-2.54a8.75,8.75,0,0,1,4.89,1.67C336,407,331,412.37,334,417.91a6,6,0,0,0,.21,5.55C329.39,428.06,332.61,434.12,338.68,435.8Z" transform="translate(0 0)" fill="#161616" fill-rule="evenodd"/></svg>