<svg xmlns="http://www.w3.org/2000/svg" viewBox="0 0 727.49 300.76">
  <title>jjb</title>
  <g>
    <path d="M215.2,11.88q255.66,0,511.32,0c.9,0,1.1.2,1.1,1.1q0,149.28,0,298.56c0,.9-.2,1.1-1.1,1.1q-362.64,0-725.28,0c-.9,0-1.11-.2-1.1-1.1q0-17,0-34a1.47,1.47,0,0,1,1.24-.31c4.88.59,9.78.89,14.68,1.27,3.06.23,6.14.37,9.2.57,5.26.35,10.53.42,15.8.68,4.35.21,8.71.07,13.07,0a100.66,100.66,0,0,0,10.42-.2c1.31-.15,2.63.23,3.94.05a1.42,1.42,0,0,1,.42.06c2.22,1.18,4.35,2.54,6.56,3.74a119.87,119.87,0,0,0,25.8,10.6A104,104,0,0,0,119,297.17c3.83.35,7.67.32,11.49.5,8.24.39,16.48.23,24.71.14,4.94-.06,9.89-.27,14.84-.6,5.49-.37,11-.67,16.48-1.29a178,178,0,0,0,25.71-4.61c9.79-2.6,19.4-5.75,29-9,8.67-3,17.15-6.42,25.68-9.75a126,126,0,0,1,32.82-8.3,89.45,89.45,0,0,1,12.56-.66c6.75.24,13.49.57,20.07,2.35a50.69,50.69,0,0,1,12.86,5.51c8.2,4.91,16.49,9.68,24.3,15.21,3.33,2.36,6.54,4.88,9.78,7.35a82,82,0,0,0,28.81,13.79,124.43,124.43,0,0,0,18.63,3.46,159.92,159.92,0,0,0,17.24.57,118.07,118.07,0,0,0,26.31-2.7,69.94,69.94,0,0,0,27.68-12.44,157.66,157.66,0,0,1,17.2-11.8c5.7-3.25,11.29-6.7,17.13-9.68a83.67,83.67,0,0,1,16-6.11c.77-.21,1.54-.43,2.3-.67,5.34-1.41,10.77-2.31,16.2-3.28,3.71-.67,7.44-1,11.18-1.27,1.94-.16,3.9-.32,5.85-.33,4.28,0,8.56-.1,12.84,0a223.59,223.59,0,0,1,22.69,1.55c3.21.42,6.41.86,9.61,1.37a68.17,68.17,0,0,0,10,.87c6.87.06,13.74.34,20.62.29a98.73,98.73,0,0,0,35.64-7.14c4.39-1.73,8.77-3.46,13-5.61a31.15,31.15,0,0,0,11.11-8.94,9,9,0,0,0,1.67-2.06c1.18-1.75,2.08-3.67,3.33-5.38a7.16,7.16,0,0,0,1.46-3.13,1.22,1.22,0,0,1,.14-.33,14.72,14.72,0,0,0,.72-6.58,2.29,2.29,0,0,1,.07-.36,9.4,9.4,0,0,0-.68-5.36,14.06,14.06,0,0,0-.53-1.46,1.78,1.78,0,0,1-.17-.3,4,4,0,0,0-.6-1.36,1.67,1.67,0,0,1-.18-.28,26.2,26.2,0,0,0-6-7.33,20.11,20.11,0,0,0-3.9-2.91,2.11,2.11,0,0,1-.31-.21,38.69,38.69,0,0,0-6.37-3.8c-5.7-3-11.72-5.27-17.62-7.83-3.37-1.45-6.71-3-10-4.59-5.8-2.8-11.79-5.14-17.81-7.4-3.43-1.3-6.92-2.45-10.45-3.5-4.21-1.25-8.51-2.12-12.81-3-5.44-1.11-11-1.73-16.44-2.42-4.67-.58-9.35-1.05-14-1.36a63.23,63.23,0,0,0-7.15-.43,1.72,1.72,0,0,1-.39,0c-2.39-.14-4.77-.31-7.17-.36a45.86,45.86,0,0,1-6.42-.18,5.25,5.25,0,0,0-2.26.13,2.06,2.06,0,0,1-1,.07c-2.47-.52-4.95-.05-7.4.07-3.81.19-7.64.28-11.45.62-1.78.15-3.58.09-5.38.25-1.42.12-1.61-.22-1-1.5,2-4.68,4-9.4,6-14.12,2.23-5.43,4.5-10.84,6.7-16.28,2.6-6.4,5.27-12.77,7.92-19.15.34-.81.59-1.65.95-2.46a1.58,1.58,0,0,1,.13-.34,51.78,51.78,0,0,0,2.09-5.06,2.88,2.88,0,0,1,.13-.31c.63-1.22,1.06-2.52,1.57-3.79,0-.1.08-.2.12-.3a10,10,0,0,0,.86-2.15,1.66,1.66,0,0,1,.12-.31,19.19,19.19,0,0,0,1.34-3.49,1.77,1.77,0,0,1,.57-.7c.91-1,.8-2.29.93-3.46a13.41,13.41,0,0,0,.13-4,2.66,2.66,0,0,1,.07-.39,28.17,28.17,0,0,0-.53-9,2.52,2.52,0,0,1-.29-.89,2.27,2.27,0,0,0-.64-1.66,3.43,3.43,0,0,1-.78-1.5,6,6,0,0,0-1-2,2.61,2.61,0,0,1-.17-.28,5.43,5.43,0,0,0-1.61-2.12,2.52,2.52,0,0,1-.56-.57,3.1,3.1,0,0,0-1.25-1.13,1.28,1.28,0,0,1-.37-.29,2.62,2.62,0,0,0-.78-.7,1.51,1.51,0,0,1-.26-.18,4.88,4.88,0,0,0-1.6-1c-2-1.08-3.75-2.48-5.74-3.55a2.68,2.68,0,0,0-1.56-.71,1.28,1.28,0,0,1-.59-.27,3.81,3.81,0,0,0-1.43-.73l-.3-.12a22.71,22.71,0,0,0-3.25-1.3,1.34,1.34,0,0,1-.3-.12,7.29,7.29,0,0,0-1.81-.61,1.76,1.76,0,0,1-.3-.1,5.35,5.35,0,0,0-1-.4,1.48,1.48,0,0,1-.29-.12,10,10,0,0,0-1.58-.58,1.78,1.78,0,0,1-.29-.12,5.47,5.47,0,0,0-1-.39,1.48,1.48,0,0,1-.29-.12,30.33,30.33,0,0,0-3-1.05l-.32-.13a25.11,25.11,0,0,0-4.07-1.32,1.65,1.65,0,0,1-.36-.11,65.34,65.34,0,0,0-13-2.24,2.59,2.59,0,0,1-.42-.09,86.08,86.08,0,0,0-9.07-.56H509.43a5.51,5.51,0,0,0-1.67.11,2.39,2.39,0,0,1-.45.09c-4.22-.09-8.43.17-12.64.34-4,.17-8,0-11.93.29a1.57,1.57,0,0,1-.43.09c-2.08.12-4.16-.09-6.23.12a2.13,2.13,0,0,1-.42.1c-2.24.15-4.49-.07-6.73.14a2.88,2.88,0,0,1-.4.09c-1.44.13-2.89,0-4.34.1l-.36.09a2.74,2.74,0,0,1-1.78-.21,1.71,1.71,0,0,1-.26-.21,1.51,1.51,0,0,0-1.63-.71,1.48,1.48,0,0,1-.94-.26,3.33,3.33,0,0,0-1-.75l-.28-.17a5.79,5.79,0,0,0-1.16-.66l-.32-.2c-5.34-3.28-11.23-5.33-17-7.61a62.26,62.26,0,0,0-27.81-4.05c-6.19.46-12.31,1.61-18.56,1.57-2.56,0-5.11.78-7.67,1.17a20.32,20.32,0,0,1-6.18.23c-1.3-.21-2.6.27-3.92,0a13.61,13.61,0,0,0-4.1-.74c-.39,0-.62-.32-.82-.63a8.25,8.25,0,0,0-1-1.46,1.52,1.52,0,0,1-.36-.4,3.73,3.73,0,0,0-1.23-1.47,1.52,1.52,0,0,1-.3-.37,6.4,6.4,0,0,0-1.26-1.58,2.57,2.57,0,0,1-.21-.24A41.67,41.67,0,0,0,361,39.42a1.52,1.52,0,0,1-.39-.32c-.53-.72-1.43-1.14-1.57-2.16-.05-.35-.4-.42-.74-.47-1.82-.24-1.82-.25-1.89-2,0-.15-.05-.31-.06-.47a2,2,0,0,1,1.27-1.63c1-.18,1.35-1,1.62-1.8a17,17,0,0,1,2.53-2.49c.66-.61.59-.84-.15-1.21a54.46,54.46,0,0,1-6.21-4,2.79,2.79,0,0,0-2-.89,20.24,20.24,0,0,1-3.71-1.74,1.15,1.15,0,0,1-.22-.22.44.44,0,0,0-.62-.15A45.18,45.18,0,0,0,343.69,26c-.39.51-.72,1.05-1.15,1.53-.23.22-.56.23-.83.39a2.09,2.09,0,0,0-.2.22c-.21.51-1,.62-.94,1.33a2,2,0,0,1-1,.92,3.26,3.26,0,0,0-1.28,1c-2,2.46-4.16,4.81-6.05,7.38a5.49,5.49,0,0,0-.89,1.29c-.05.09-.11.18-.17.27a3.84,3.84,0,0,1-1.23,1,3.28,3.28,0,0,0-.86.66,3.47,3.47,0,0,1-.37.3A13.47,13.47,0,0,0,327,43.87l-.26.2a158.87,158.87,0,0,1-15.45,9.51c-1,.58-2.09,1.14-3.13,1.74a1.56,1.56,0,0,1-.28.16,3.93,3.93,0,0,0-1.14.52,4.75,4.75,0,0,1-1,.52,5.05,5.05,0,0,0-1.46.75,19.38,19.38,0,0,1-4.15,1.67,4.32,4.32,0,0,0-2.14.65,4.09,4.09,0,0,1-3,.51,3.4,3.4,0,0,0-2,.23,55.43,55.43,0,0,1-5.54,1.55,55.19,55.19,0,0,0-8.07,3c-1,.46-1.78,1.21-2.72,1.74-2.17.64-4.44,1.08-6.51,1.89-2.46,1-4.93.53-7.37.92-1.22.22-2.45.1-3.69.27-1.49.21-3.44-2-3.14-3.46.53-2.53.9-5.09,1.58-7.6a26.36,26.36,0,0,0,.49-9,21.11,21.11,0,0,0-4.94-11.71,4.55,4.55,0,0,0-1.29-1.22,9.17,9.17,0,0,1-2.44-2.29,6.81,6.81,0,0,0-1.77-1.74,2,2,0,0,1-.26-.24,21.79,21.79,0,0,0-10.47-5c-3-.61-5.87-1.57-9-1.33a66.33,66.33,0,0,0-10.8,1.27,1.73,1.73,0,0,1-1.76-.45q-3.47-3.41-6.87-6.87c-.42-.43-.74-.92-.22-1.46,2.15-2.2,4.24-4.46,6.57-6.47C214.91,12,215.07,12,215.2,11.88Z" transform="translate(-0.14 -11.86)" fill="#fefefe"/>
    <path d="M215.2,11.88c-2.15,2.19-4.28,4.41-6.47,6.56-.59.58-.65.89,0,1.5,2.27,2.19,4.49,4.44,6.71,6.68a1.35,1.35,0,0,0,1.57.48,33,33,0,0,1,6.93-1c1.22-.11,2.45-.21,3.68-.29,4-.24,7.87,1,11.7,2a18.82,18.82,0,0,1,8,4.21c.19.18.34.32.3.59-.4.19-.69,0-1-.27-3.26-2.73-7.17-3.91-11.21-4.8a31.72,31.72,0,0,0-8.89-.88,46.14,46.14,0,0,0-14,2.67,11.48,11.48,0,0,0-2.5,1.61,29.1,29.1,0,0,0-3.75,2.78,3.58,3.58,0,0,1-1.1.71,91.59,91.59,0,0,0-9.82,4.76,42.27,42.27,0,0,0-5.27,3.3c-5.4,3.92-11,7.51-16.19,11.78-3.69,3.06-7.51,6-11.2,9a94.7,94.7,0,0,0-7.09,6.8c-4.51,4.62-8.41,9.89-13.66,13.75a28.86,28.86,0,0,0-8.63,10.86,17.21,17.21,0,0,1-1.54,2.71,3.47,3.47,0,0,0-.54,1.15c-.09.25-.17.51-.25.77a7.65,7.65,0,0,0-.2,1.18,2.37,2.37,0,0,1-.09.36,28.16,28.16,0,0,0-.76,6.41c.06,1.48.27,2.94.38,4.4a59.91,59.91,0,0,0,1.3,11.41,55.12,55.12,0,0,0,4.74,13.67,11.57,11.57,0,0,0,1.76,2.71,1.51,1.51,0,0,1,.42,1.53c-1,2.57-2.05,5.14-3,7.73a18.2,18.2,0,0,0-.64,2.41,6.21,6.21,0,0,1-1.22,2.82,7.34,7.34,0,0,1-5.22,0,30.62,30.62,0,0,0-6.7-2,2.46,2.46,0,0,1-1.08-.38,12.65,12.65,0,0,0-7-3.64,14.19,14.19,0,0,1-3.36-1.25,2.21,2.21,0,0,1-1.37-2.51c.49-4.15-1.9-6.92-4.66-9.44-1.09-1-2.63-1.1-4-1.31a12.72,12.72,0,0,0-8.05,1.07c-.92.49-1.87.9-2.77,1.42a9.86,9.86,0,0,0-4,4.94,3.52,3.52,0,0,1-3.78,2.48,53,53,0,0,0-12.36-1.29,14.94,14.94,0,0,0-2.75.23,8.7,8.7,0,0,1-2.39.07c-.85-.1-1-.41-.45-1.09a8.48,8.48,0,0,1,1.58-1.47,5.55,5.55,0,0,0,1.33-1.19,52,52,0,0,0-7.65,2.93,60.79,60.79,0,0,0-10.17,5.85c-.76.57-1.15.44-1.68-.52a29.26,29.26,0,0,1-2.23-5.5,61.37,61.37,0,0,0-.82,6.29,9.75,9.75,0,0,0-.06,3.45,2.09,2.09,0,0,1-.49,1.68,32.55,32.55,0,0,1-13.59,11.24,25.88,25.88,0,0,0-2.56,1.24,1.31,1.31,0,0,0,1.14.25c1.93-.08,3.83.28,5.74.32,1,0,1.24.42.74,1.06-2.09,2.73-3.22,6-4.78,9-.25.46-.5.93-1.08,1.06a38,38,0,0,1-6.91-.43c-6.85-.8-13.71-1.56-20.57-2.33a2.19,2.19,0,0,1-1.35-.4Q.16,93.3.14,13c0-.9.2-1.1,1.1-1.1Q108.22,11.89,215.2,11.88Z" transform="translate(-0.14 -11.86)" fill="#fdfdfd"/>
    <path d="M.16,173.64c2.85.13,5.68.52,8.51.87,2.52.31,5.05.54,7.57.81,2.25.24,4.5.46,6.74.74,2.09.26,4.18.42,6.29.49.25.64-.12,1.16-.36,1.69a34.06,34.06,0,0,0-2.4,8.65,16.83,16.83,0,0,0,1.63-2.34c.39-.57.66-1.31,1.52-1.37a.63.63,0,0,1,.23.51c0,.18-.15.34-.07.53,0-.21.12-.35.37-.31,1,.56.48,1.68.92,2.45,0,.77-.65.93-1.19,1.19A43.77,43.77,0,0,0,11.73,204c-3.21,5-3.59,10.59-1.83,16.27a15,15,0,0,0,3.84,6,89.88,89.88,0,0,0,12,10.13c3.53,2.52,7.59,3.9,11.7,5.12,3,.91,6.13,1.54,9.14,2.51a8.37,8.37,0,0,1,5.88,5.93,88.91,88.91,0,0,0,4.4,12.55c2,4.26,3.88,8.52,6.88,12.18A28.75,28.75,0,0,0,68,278.86c.35.28.86.48.82,1.08-4.53.26-9,.27-13.58.26s-9,.1-13.44,0-9-.32-13.49-.5c-3.89-.15-7.78-.41-11.66-.72-5.07-.4-10.15-.61-15.18-1.36a11.58,11.58,0,0,0-1.32,0Z" transform="translate(-0.14 -11.86)" fill="#ebebeb"/>
    <path d="M68.83,279.94a29.77,29.77,0,0,1-8.11-9,83.94,83.94,0,0,1-8-19c-.08-.31-.18-.61-.25-.92a8.75,8.75,0,0,0-7-7.07c-2.91-.71-5.78-1.57-8.68-2.32-6.78-1.75-12.49-5.38-17.66-10-1.67-1.48-3.35-3-5-4.51-5.54-5.32-6.71-11.73-4.75-18.9,1.26-4.59,4.31-8.06,7.43-11.45A40.56,40.56,0,0,1,30.38,187a4,4,0,0,0,.67-.49c.37.12.43.46.48.76.95,5.66,4,10.27,7.28,14.79.88,1.23,1.83,2.42,2.75,3.63a9,9,0,0,0,3.6,2.89c1.66.71,3.18,1.65,4.77,2.48.21.11.44.35.65.26,1.42-.67,2.44.31,3.53.87a46.68,46.68,0,0,0,7,2.5c.11,0,.23,0,.34-.09a3.38,3.38,0,0,1,.64-.29c.7-.31,1.48-.12,2.19-.37a1.84,1.84,0,0,1,.41,0,79.23,79.23,0,0,0,8.3.17c.51,0,1,0,1.54.05,1.56.37,3,1,4.57,1.44a6.15,6.15,0,0,1,2.78,1.82,29.23,29.23,0,0,0,5.18,4,6.43,6.43,0,0,0,3.19,1,14.09,14.09,0,0,0,5.56-.15c2.42-.69,4-2.38,5.41-4.17a15.77,15.77,0,0,1,9.52-5.78,48.4,48.4,0,0,0,6.4-1.52,31.6,31.6,0,0,0,11.94-3.09,10.16,10.16,0,0,1,2.86-.09c5.13.44,10.27.11,15.4.22a6.06,6.06,0,0,1,1.9.15c.59.27.66.85.77,1.39.27,1.28.61,2.55,1,3.8a1,1,0,0,0,1.35.77c1.8-.48,3.67-.63,5.5-1,3.82-.26,7.68-.24,11.38-1.44a1.2,1.2,0,0,1,1.67.7c2.08,4.89,6.06,7.92,10.36,10.63a37.24,37.24,0,0,0,12.93,5.25,64.35,64.35,0,0,0,17.3,1,2.6,2.6,0,0,1,1.3.09c3,1.37,6.3,1.78,9.49,2.51,4.56,1,9.15,2,13.77,2.71,6.27,1,12.59,1.66,18.93,2.07,2.31.15,4.58.64,6.9.81,1.59.12,3.19.26,4.78.32,6.23.19,12.45.78,18.69.51,3.82-.17,7.68.12,11.43-.92a5.2,5.2,0,0,1,2.38.12,46.27,46.27,0,0,0,17.86-.2c2.94-.58,5.95-.87,8.76-2,5.1-2,10.11-4.27,14.26-8A18.8,18.8,0,0,0,346.38,215c.5-4.27-.84-8.11-3-11.71-.89-1.46-2.37-2.27-3.67-3.23a55.14,55.14,0,0,0-8.89-5.87A39.8,39.8,0,0,0,326,192c-4.29-1.39-8.52-3-13-3.84-.73-.14-1.54-.14-2-.84.12-.61.59-.41.95-.37a13.28,13.28,0,0,1,1.52.33,4.74,4.74,0,0,0,3.14-.32c5.13-2.17,10.52-3.54,15.81-5.24a109.29,109.29,0,0,1,20.14-4.22c1.71-.2,3.44-.23,5.14-.27,4.31-.12,8.62-.54,12.94-.29s8.52.54,12.77.88a75.09,75.09,0,0,1,13,2.18,15.61,15.61,0,0,1,9.14,6.52c2,2.89,3.81,5.91,5.92,8.73a1,1,0,0,1,.12.57c-.59,2.49-.48,5.12-1.37,7.54-1,2.7-1.78,5.47-2.89,8.13-1.46,3.53-.25,6.78,1.46,9.94s7.57,4.65,10.41,3.13c3.26-1.73,6.84-2,10.45-2.32,4.36-.33,8.71-.2,13.07-.17,2.79,0,5.58.26,8.38.22a1.44,1.44,0,0,1,1,.27c0,.83-.7.58-1.14.6s-1.07-.22-1.61-.23a153,153,0,0,0,16.45,2.76c.29.41,0,.77-.15,1.11-.33.64-.55,1.33-.86,2-2.63,5.56.64,12,4.83,14.21,1,.55,2,1.18,3.06,1.65a9.26,9.26,0,0,0,5.25.79,46.63,46.63,0,0,1,9.78-.79c4.75.31,9.51,0,14.24.67a14.21,14.21,0,0,1,3.13.78c3.37,1.33,6.93,1.94,10.38,3a25.83,25.83,0,0,1,5.51,2.31,56,56,0,0,0,12.94,5.31,20.61,20.61,0,0,0,10,.23c3.1-.63,6.19-1.28,9.34-1.6a21.09,21.09,0,0,1,2.75-.12,36.85,36.85,0,0,0,6.8-.55,4.74,4.74,0,0,0,3.74-2.07c.88-1.48.92-2.2-.08-3.61a1.53,1.53,0,0,1-.37-.74c.2-.45.53-.25.81-.14,2.59,1.06,5,2.56,7.48,3.76,1.12.53,1.22,1.62.4,2.88a14.5,14.5,0,0,1-5.18,5.17c-4.33,2.39-8.62,4.84-13.16,6.85-2.31,1-4.8,1.39-7.17,2.2-9.25,1.71-17.83-.12-26-4.67a31.1,31.1,0,0,0-14.71-3.84c-2.65-.05-5.27.27-7.91.28a2.54,2.54,0,0,0-1.28.26,19,19,0,0,1-5.85,1.69c-4.89,1-9.72,2.39-14.73,2.7-4.34.27-8.7.6-13-.76a1.64,1.64,0,0,1-.46-.13c-4.91-2.72-10.36-2.15-15.6-2.25-6.75-.12-13.5-.4-20.25-.66s-13.48-.69-20.2-1.29c-3.66-.33-7.34-.44-11-.57-5-.19-10-.27-15-.51q-6.9-.34-13.79-.12c-4,.13-8.08.24-12.11.15-4.39-.11-8.79,0-13.17.07-6.2.11-12.39.23-18.58.5-4.91.22-9.82.26-14.73.47-5.72.25-11.44-.05-17.14.23-6.43.32-12.86.39-19.28.88-2.34.18-4.71.09-7.06.2-2.63.13-5.27.28-7.91.34-4.07.1-8.13.43-12.2.62-5.68.26-11.31,1-16.93,1.77-7,1-14.08,1.39-21.1,2.19-4.89.56-9.74,1.37-14.62,2-6.67.85-13.36,1.39-20,2.06-4,.4-8,.72-12.06,1.11-3.74.36-7.5.4-11.23.81-5.17.56-10.32,1.24-15.47,2-4.27.64-8.57,1-12.86,1.54-5.12.59-10.23,1.27-15.36,1.83-4.41.49-8.83.84-13.26,1.13-3.22.21-6.44.58-9.67.81-4.7.34-9.41.7-14.13.6a3.49,3.49,0,0,1-1.49-.37Z" transform="translate(-0.14 -11.86)" fill="#27a9e9"/>
    <path d="M459.25,61.18c.26.31.6.15.91.17.65.19,1.47.09,1.73,1l0,0a2.32,2.32,0,0,0,2,.23l0,0c1.12-.36,2.27-.06,3.41-.16a4.18,4.18,0,0,0,1.41-.1l0,0a17.64,17.64,0,0,1,3.77-.15,24.82,24.82,0,0,0,3.45-.11h0a45.28,45.28,0,0,1,6.38-.11c.21.69-.39.6-.69.62-1.08.08-2.15.28-3.23.31-6.26.15-12.52.57-18.77,1-8.19.49-16.38.62-24.56.45a116.12,116.12,0,0,1-18.2-2.11c-2.24-.4-4.51-.61-7-1.1a6.81,6.81,0,0,0,1.68.59c5.52,1.15,11,2.34,16.64,2.94a80.66,80.66,0,0,0,9.07.65c5.39,0,10.79.26,16.17-.24,5.14-.48,10.29-.41,15.43-.85,3.49-.3,7-.28,10.52-.59s6.93-.4,10.63-.82a1.85,1.85,0,0,0-1.37-.35h-4.68a2.48,2.48,0,0,1-1.39-.24c-.17-.09-.19-.2,0-.33l.07.05.07-.05c.36-.27.77-.14,1.16-.14,1.79,0,3.59,0,5.38,0,3.62,0,7.24-.16,10.85-.32,2.54-.11,5.09.08,7.61-.26l0,0c.35-.29.77-.15,1.15-.15,7.5,0,15-.08,22.49,0a39,39,0,0,1,7.06.59l0,0a81.37,81.37,0,0,1,13.16,2.26.69.69,0,0,1,.3.17l0,0A25.49,25.49,0,0,1,556,65.46l0,0a25.36,25.36,0,0,1,3.39,1.22l0,0a3.87,3.87,0,0,1,1.23.49l0,0a8.5,8.5,0,0,1,1.94.76l0,0a4.07,4.07,0,0,1,1.24.47h0a7,7,0,0,1,2.18.75l0,0a19,19,0,0,1,3.62,1.47l0,0a4.28,4.28,0,0,1,1.7.79l.44.14a5.74,5.74,0,0,1,1.72.8,60.56,60.56,0,0,1,5.69,3.53A6.67,6.67,0,0,1,580.69,77l0,0a2.23,2.23,0,0,1,1,.79l.21.15a5.38,5.38,0,0,1,1.47,1.3l.39.39A6.6,6.6,0,0,1,585.48,82l0,0a10.54,10.54,0,0,1,1.23,2.23,3.38,3.38,0,0,0,.67,1.37c.56.44.51,1.16.77,1.75a.83.83,0,0,0,.14.65c.74,1.06.53,2.35.64,3.51a25,25,0,0,1,0,6h0a30.9,30.9,0,0,1-.49,5.76c-.16.74,0,1.62-.8,2.15l-.4.46a26.51,26.51,0,0,1-1.47,3.63l0,0a10,10,0,0,1-1,2.41l0,0a32.1,32.1,0,0,1-1.69,4.12l0,0a53.21,53.21,0,0,1-2.19,5.3l0,0c-1.22,3.37-2.65,6.65-4,10Q572.45,142,568,152.73l-7.53,18.1a20.13,20.13,0,0,0-1.69,4.3c-.13.45-.29.84.16,1.3.92,1,.73,1.75-.51,2.27-1.47.62-3.08.86-4.53,1.54-5.71,2.67-11.86,4-17.78,6.06a65.32,65.32,0,0,1-12.36,2.79c-2.84-.05-5.66.3-8.49.42a28.66,28.66,0,0,1-17.86-4.69,12.72,12.72,0,0,1-2.27-2.13,14.8,14.8,0,0,1-2.27-5,2.33,2.33,0,0,1,.54-2.56,1.83,1.83,0,0,0,.37-.46c2.54-4.53,5.77-8.67,7.8-13.48a36.9,36.9,0,0,0,2.76-10.77c.21-2.19.11-4.39.25-6.5-.82-.43-1.59,0-2.39.35a297.87,297.87,0,0,1-31.92,10.38c-10.41,2.76-20.92,5-31.53,6.82-5.82,1-11.65,1.89-17.52,2.53-3.33.36-6.66.68-10,1.09-4.78.15-9.54.52-14.32.7-.48,0-.79.33-1.21.44-.52-.45-.37-1.11-.52-1.67-1-4-1-8-1.12-12-.14-6.44.54-12.85.57-19.28a51.79,51.79,0,0,1,.7-6.43c.35-2.7.12-5.42.4-8.13a64.78,64.78,0,0,0-1-17.52,14,14,0,0,0-1.12-3.78,14.17,14.17,0,0,1-.83-2.37c-1.46-5.73-4.44-10.74-7.47-15.72a45.61,45.61,0,0,0-2.69-4.52c-.95-1.71-2-3.36-2.84-5.14-.7-1.49-.62-1.67.64-2.7a35,35,0,0,1,3.85-3.23c.74-.44.53-1.3.37-2a11.25,11.25,0,0,0-4-6.12A60.5,60.5,0,0,0,375.81,52c-.35-.25-1.17-.43-.55-1.19,2.9-.09,5.81.17,8.7-.08a49.45,49.45,0,0,0,5.66-.93,62.57,62.57,0,0,1,9.16-.7A81.42,81.42,0,0,0,408.15,48a34.44,34.44,0,0,1,4.4-.34A62.41,62.41,0,0,1,439.88,52c3.41,1.37,6.89,2.54,10.22,4.1a48,48,0,0,1,6.75,3.6l0,0a3.38,3.38,0,0,1,1.23.74l0,0A2.89,2.89,0,0,1,459.25,61.18Z" transform="translate(-0.14 -11.86)" fill="#444"/>
    <path d="M523.88,188.83c5.12-1.2,10.36-1.94,15.3-3.88a45.62,45.62,0,0,1,4.56-1.46,58.3,58.3,0,0,0,8.71-3c1.86-.85,3.85-1.32,5.77-2,.5-.17,1-.35,1.09-1s-.46-.76-.93-1c-.7-.4.06-.89.14-1.35,3.41-.3,6.84-.43,10.26-.6,4.1-.2,8.2-.52,12.3-.56,2.5,0,5-.11,7.53,0,2.22.12,4.46,0,6.69.06,2,.07,4,.14,6.06.37h0c5.31.33,10.62.7,15.92,1.26s10.68,1.16,16,2A138.18,138.18,0,0,1,657,183.18a221,221,0,0,1,24,9.7c6.22,3,12.58,5.64,18.94,8.32a74.79,74.79,0,0,1,14.67,7.74h0a26.42,26.42,0,0,1,6.77,6,32.46,32.46,0,0,1,3.83,6,15.5,15.5,0,0,1,1.29,8.25c-.12.87-.06,1.75-.11,2.63-.22,3.61-2.11,6.54-3.86,9.52a26.56,26.56,0,0,1-1.48,2.45c-.4.71-.94,1.33-1.37,2-3.2,4.63-7.71,7.65-12.67,10a141.67,141.67,0,0,1-26.44,9.61,83.42,83.42,0,0,1-17.68,2.31c-9.48.26-18.95.09-28.41-.39-3.53-.18-7-.87-10.54-1.38-4.22-.62-8.48-1-12.74-1.4-8.77-.77-17.57-.76-26.36-.7a99.4,99.4,0,0,0-14.94,1,161.57,161.57,0,0,0-19,3.76,1.45,1.45,0,0,1-.36,0,1.2,1.2,0,0,1-1,0,12.2,12.2,0,0,1,3.38-1.06c4.17-1.23,7.91-3.37,11.73-5.35,2.32-1.21,4.54-2.63,6.75-4,1.66-1.07,2.45-2.88,3.45-4.48.46-.75,0-1.42-.72-1.78-2.65-1.34-5.32-2.63-8-3.94a9,9,0,0,1-2.91-1.72,85.57,85.57,0,0,0-17.76-9.9,238.46,238.46,0,0,1-27.14-13.2,14.64,14.64,0,0,1-6.37-6.64c-1-2.24-.52-4.5.05-6.7a41.56,41.56,0,0,1,3.24-7.59,84.89,84.89,0,0,1,6.49-10.9A9.57,9.57,0,0,1,523.88,188.83Z" transform="translate(-0.14 -11.86)" fill="#24b5fd"/>
    <path d="M549.52,268.68l1,0c-4.08,1.27-8.17,2.49-12.15,4.07-6.79,2.71-12.89,6.68-19.26,10.15-8.12,4.41-15.5,9.89-22.91,15.32-8.51,6.24-18.17,9.64-28.37,11.7-11.8,2.4-23.75,2.55-35.71,2a108.42,108.42,0,0,1-33.35-6.78,76,76,0,0,1-20.64-11.56,229.46,229.46,0,0,0-26.11-17.66,128.68,128.68,0,0,0-13.29-7.41,51.78,51.78,0,0,0-15.16-3.89,108.81,108.81,0,0,0-18-.55,118.89,118.89,0,0,0-25.12,4.24c-9.24,2.56-18,6.5-26.9,9.83-14.69,5.47-29.49,10.62-44.73,14.34A165.79,165.79,0,0,1,188.23,296c-10.17,1.17-20.39,1.68-30.62,2-11.12.36-22.24.25-33.34-.18A105.43,105.43,0,0,1,78.72,285.5c-2.93-1.55-5.93-3-8.7-4.82-.32-.22-.62-.49-.93-.73a112.74,112.74,0,0,0,11.48-.27c4.32-.23,8.62-.78,12.93-1.14,2.57-.22,5.16-.29,7.73-.51q5.1-.45,10.18-1.08l6.61-.83c3.19-.39,6.37-.84,9.57-1.13,2.26-.21,4.5-.48,6.74-.79,2-.27,4-.58,6-.84,2.91-.38,5.83-.69,8.74-1.09,3.58-.49,7.2-.63,10.8-.89,2.18-.15,4.36-.32,6.53-.55,3.24-.33,6.49-.49,9.72-.89,2.84-.36,5.7-.5,8.54-.79,2.65-.26,5.28-.66,7.92-.88,3.25-.27,6.45-.86,9.68-1.27,2.87-.37,5.73-.87,8.61-1.12,1.94-.18,3.87-.36,5.81-.56,3-.3,6.08-.55,9.12-.88,3.47-.38,6.93-.85,10.39-1.33,4.85-.67,9.73-.85,14.61-1.17,3.57-.24,7.15-.34,10.73-.49q6.51-.29,13-.5c3.62-.12,7.25-.23,10.86-.47,7.65-.51,15.32-.27,23-.51,3.55-.11,7.11,0,10.65-.2,4.33-.3,8.68-.32,13-.52,2.8-.12,5.59,0,8.37-.2,4-.33,8,0,12-.28,1.52-.1,3,.06,4.5.08,7.79.12,15.57-.48,23.36-.23l15.9.5c3.26.1,6.52.27,9.77.47,4.72.28,9.43.79,14.16,1q3.81.15,7.62.45c4,.32,8.05.11,12.05.49,3.64.35,7.26.08,10.89.21,3.26.12,6.51.52,9.78.53a6.17,6.17,0,0,1,2.72.84,21.13,21.13,0,0,0,9.2,2c6.64.28,13-1.07,19.41-2.5,1.2-.27,2.38-.57,3.61-.73a6.4,6.4,0,0,0,2.93-.94,3.4,3.4,0,0,1,2-.67c2.55.08,5.09-.29,7.64-.28a35.88,35.88,0,0,1,17.79,5.11,31.26,31.26,0,0,0,10.83,3.56,53.71,53.71,0,0,0,8.69.49C546.71,269.16,548.07,268.59,549.52,268.68Z" transform="translate(-0.14 -11.86)" fill="#24b5fd"/>
    <path d="M209.65,30.76a9.46,9.46,0,0,1,3.77-2.21,42.19,42.19,0,0,1,15.8-2.25c6.62.37,13,1.85,18.33,6.26h0a9,9,0,0,1,1.94,1.75,16,16,0,0,0,2.12,2.08c1.79,1.14,2.73,3,3.77,4.7a20.29,20.29,0,0,1,2.91,10.67,33,33,0,0,1-1.09,8.84c-.55,2-.84,4.13-1.27,6.19-.1.53.26,1,0,1.54a28.3,28.3,0,0,0-.36,3.68c0,6.16,0,12.32,0,18.48,0,.62.11,1.28-.39,1.79-.49-.15-.61-.56-.74-.92a6.41,6.41,0,0,0-3.74-3.67,15.64,15.64,0,0,0-5.55-1.42,71.19,71.19,0,0,0-8.24-.6,78.06,78.06,0,0,0-9.78.85c-1.11.17-2.23.16-3.35.29a73.29,73.29,0,0,0-19.2,5,6.16,6.16,0,0,0-3.77,3.79,1.93,1.93,0,0,1-.2.44c-.22.33-.44.76-.9.64s-.5-.59-.57-1a1.75,1.75,0,0,1,0-.72c1-4.09.7-8.26.76-12.4,0-.6,0-1.2,0-1.8,0-.81.23-1.41,1.14-1.56.25,0,.61-.07.61-.44s-.29-.38-.51-.42c-1.06-.21-1.28-.94-1.25-1.87.26-7.58,0-15.18,1.11-22.73a72.63,72.63,0,0,0,.57-8.6,21.06,21.06,0,0,1,.23-2.38c.51-3.89,2.84-6.7,5.41-9.38a30.42,30.42,0,0,0,2.15-2.25Z" transform="translate(-0.14 -11.86)" fill="#444"/>
    <path d="M276.64,66.36c3.16-2.52,7-3.59,10.7-4.79,2-.66,4.21-.86,6.16-1.82a2,2,0,0,1,1.4,0,3.65,3.65,0,0,0,3-.55,3.18,3.18,0,0,1,2.28-.51,7.69,7.69,0,0,1-2.65,1.44c-.35.17-.75.25-1.22.47a13.58,13.58,0,0,0,2.54,1.73,83.89,83.89,0,0,1,9.85,7.77c3.26,3,5.12,7,6.72,11,.15.6.81,1,.74,1.66a1.36,1.36,0,0,1-.07.35,26.37,26.37,0,0,1-1.35,5.24,25.77,25.77,0,0,0-1.18,3.06c-.05.15-.11.29-.16.43s-.22.33-.14.54c.06-.27.26-.23.45-.21a24.38,24.38,0,0,1,4.4,1.88c.25.12.67.19.45.66a2.28,2.28,0,0,1-2-.16c-2.47-.88-4.95-1.71-7.49-2.39a.51.51,0,0,1-.22-.28c-.72-1.28-2.11-1.58-3.28-2.2-.3-.16-.52.13-.56.44a2.5,2.5,0,0,0,0,1.53c.61,1.14.4,2.34.44,3.52a2.88,2.88,0,0,1-.62,2.24,2.17,2.17,0,0,0-.34,1.37c-.05.44.1,1-.54,1.17a.71.71,0,0,1-.33-.61c.21-2.82-1.25-5.13-2.26-7.58l-.09-.22a7.55,7.55,0,0,0-.61-1.6l-.15-.31c-.39-1.35-1.4-2.32-2.09-3.48a40.92,40.92,0,0,0-6.2-8.06c-2.31-2.31-4.43-4.84-7.09-6.78-1.77-1.3-3.67-2.41-5.51-3.63-.92-.61-2.05-.63-3-1.06A.25.25,0,0,1,276.64,66.36Z" transform="translate(-0.14 -11.86)" fill="#f1f1f1"/>
    <path d="M369,47.44l.17.23a5.19,5.19,0,0,1,1.28,1.83,1.6,1.6,0,0,0,1,.75c.06.54-.41.53-.71.62a7.58,7.58,0,0,0-2.46,1.23c-3.49,2.52-7.15,4.82-10.71,7.25a42.62,42.62,0,0,0-4.5,3.56,48.26,48.26,0,0,1-4.67,3.55c-3.72,2.63-7.21,5.56-11,8.13-2.07,1.42-4.07,3-6.09,4.44-.23.17-.43.55-.8.2a12.93,12.93,0,0,1,1.2-4.22c.67-1.93,1.27-3.87,2-5.77.48-1,.29-2.17,1-3,.12-.19.43-.08.5-.42.7-3.71,2.87-6.71,4.8-9.82A195.76,195.76,0,0,1,354.77,36a2.54,2.54,0,0,1,1.07-.93c1.39,1.69,3.66,2.29,5,4l.18.16c1.74,1.56,3.67,2.92,5.07,4.84v0a9.46,9.46,0,0,1,1.5,1.66l.16.24A6.49,6.49,0,0,1,369,47.44Z" transform="translate(-0.14 -11.86)" fill="#444"/>
    <path d="M355.84,35.17c-4,4.93-8,9.88-11.64,15.15-2.91,4.27-6,8.46-8,13.28a6.71,6.71,0,0,0-.54,1.82c0,.32,0,.89-.65.68-.48-.07-.52-.54-.77-.83a24.59,24.59,0,0,0-7.94-5.21c-1-.34-1.87-1.25-3.08-.87-1.2,0-.62-.87-.45-1.26.48-1.13,1.07-2.22,1.54-3.36,1.37-3.31,2.95-6.52,4.37-9.81a19.51,19.51,0,0,1,2.49-4.46V40A7.37,7.37,0,0,0,332.92,38c2-2.43,3.86-5,6.06-7.31.19-.2.33-.44.64-.49l.85-.83c.18-.63.72-.72,1.26-.82a32.46,32.46,0,0,1,5.3,2.14c2.33,1,4.66,2.06,7,3.06a6.16,6.16,0,0,1,1.82,1.13A.29.29,0,0,1,355.84,35.17Z" transform="translate(-0.14 -11.86)"/>
    <path d="M331.17,40.3c-.1,1.05-.91,1.74-1.31,2.64-1.89,4.26-3.83,8.51-5.7,12.78a19.23,19.23,0,0,0-1.33,2.92c-.16.61.2.33.42.31.67.81.15,1.6-.08,2.35-1.3,4.31-2.69,8.59-4,12.9-.34,1.11-.32,2.29-.74,3.37a2,2,0,0,0-.63,2.1,26.54,26.54,0,0,0-1.17,3.6c-.15.25-.23.73-.59.56s-.19-.6-.08-.93h0c.54-.89-.45-1.12-.72-1.66-.44-1-.93-1.93-1.32-2.92C312,73.59,308.68,70,304.68,67a65.89,65.89,0,0,0-8.49-6,5,5,0,0,1-.69-.59,28.83,28.83,0,0,0,4.72-1.73,34.58,34.58,0,0,0,4-1.7c.55-.15,1-.51,1.56-.68l.84-.55c.43-.12.82-.32,1.25-.4l0,0C310,54,312.33,53,314.5,51.66c4.19-2.49,8.41-4.94,12.36-7.81l0,0a23.62,23.62,0,0,1,1.86-1.75l.26-.23c.33-.23.63-.5,1-.73C330.42,41,330.62,40.39,331.17,40.3Z" transform="translate(-0.14 -11.86)" fill="#444"/>
    <path d="M349.6,20l3.84,1.68a18.93,18.93,0,0,1,2.16,1A79.28,79.28,0,0,0,363,27.31l-3.52,3.29c-.47.72-.83,1.54-1.68,1.92-.51.39-1.09.72-1.2,1.44a.35.35,0,0,1-.34.06A47,47,0,0,0,351.5,32c-2.69-1-5.28-2.28-8-3.19-.95-.31-.67-.84-.27-1.35,1-1.28,2-2.6,3.07-3.83.83-.93,1.63-1.86,2.4-2.84C348.93,20.45,349.16,20.1,349.6,20Z" transform="translate(-0.14 -11.86)" fill="#f5f5f5"/>
    <path d="M714.63,208.94c-3-1.68-5.87-3.55-9-5-5.43-2.55-11-4.71-16.5-7.15-5.94-2.64-11.79-5.52-17.8-8a154.24,154.24,0,0,0-35.86-10.63c-6.16-1-12.34-1.71-18.54-2.34-5-.49-10-.88-14.93-1.2a4.27,4.27,0,0,1-.68-.18c1.18-.55,2.37,0,3.52.05,2.61.23,5.23.37,7.84.61,3.75.35,7.49.78,11.24,1.18,4.38.46,8.73,1.12,13.08,1.78,3,.46,6,1.26,9,1.92,9.93,2.18,19.34,5.89,28.64,9.86,7.15,3.06,14.11,6.55,21.29,9.54,3.23,1.35,6.51,2.62,9.65,4.17a60.66,60.66,0,0,1,8.53,4.82A3.22,3.22,0,0,1,714.63,208.94Z" transform="translate(-0.14 -11.86)" fill="#fdfdfd"/>
    <path d="M371.44,50.29a.87.87,0,0,1-1-.56c-.35-.71-.8-1.38-1.21-2.06.79.24.95,1,1.37,1.58.18.24.23.73.61.63,1.63-.42,3,.72,4.56.67,2.27-.08,4.52.14,6.8,0,4.73-.21,9.29-1.66,14.08-1.6,4,0,8-.72,12.06-1.22a60.79,60.79,0,0,1,13-.19,70.89,70.89,0,0,1,11,1.88,98.26,98.26,0,0,1,10.83,3.75,86.46,86.46,0,0,1,11.12,5,5.05,5.05,0,0,1,2.2,1.53c-2.72-1.34-5.33-2.89-8.15-4-7.36-3-14.7-6-22.64-7.17a67.22,67.22,0,0,0-20.76.19,49.48,49.48,0,0,1-6.19.59,63.88,63.88,0,0,0-11.31,1c-4.23,1-8.5.64-12.76.7C373.78,51.06,372.67,50.41,371.44,50.29Z" transform="translate(-0.14 -11.86)" fill="#fdfdfd"/>
    <path d="M601.36,174.39c-5.28-.12-10.54-.36-15.82-.34-7.51,0-15,.57-22.5.93a32.5,32.5,0,0,1-4.52.12q6.22-15,12.45-30,4.75-11.46,9.47-22.91c.14-.33.31-.64.47-1a14,14,0,0,1-1.44,4.14c-3.89,9.47-7.85,18.92-11.73,28.39-2.82,6.9-5.66,13.78-8.63,20.62,0,.1,0,.23,0,.14,2.26,0,4.52,0,6.78,0,.46,0,.94-.17,1.42-.16,4.26,0,8.51-.46,12.77-.52,3,0,6-.06,9,0,2.13,0,4.27.09,6.41.08,1.79,0,3.58.14,5.37.22A.61.61,0,0,1,601.36,174.39Z" transform="translate(-0.14 -11.86)" fill="#fdfdfd"/>
    <path d="M349.6,20c-2.08,2.84-4.61,5.32-6.56,8.18,3.66,1.48,7.27,2.9,10.83,4.43.84.36,1.94.31,2.45,1.31a.88.88,0,0,1-.5,1c-4.63-2.29-9.39-4.29-14.14-6.31-.45-.22-.43-.56-.24-.94h0c.28-.25.7.1,1-.24a29,29,0,0,1,3.23-4.54c.78-1,1.63-1.94,2.45-2.92a1,1,0,0,1,.8-.46c.21.17.55,0,.72.24Z" transform="translate(-0.14 -11.86)" fill="#f1f1f1"/>
    <path d="M255.78,68.27a55.49,55.49,0,0,1,1.7-9.4c1.88-8.5.32-16.1-5.87-22.48,1.27.21,1.7,1.37,2.35,2.21a20.71,20.71,0,0,1,4,8.7,27.92,27.92,0,0,1,.24,8.89c-.42,3.51-1.49,6.88-2,10.37a1.19,1.19,0,0,0,.3,1.15c1,1.16,2,2.2,3.85,1.57a7.87,7.87,0,0,1,2.38,0,1.48,1.48,0,0,1,0,.21c-.46.49-1.11.4-1.68.46a24.42,24.42,0,0,1-5,.17C255.56,69.54,255.83,68.88,255.78,68.27Z" transform="translate(-0.14 -11.86)" fill="#fdfdfd"/>
    <path d="M720.87,244c1.45-2.73,3.23-5.28,4.33-8.21a18.53,18.53,0,0,0,.85-3.79c.87-5.77-.2-11-4-15.55a2.67,2.67,0,0,1-.87-1.52c.83.13,1,.91,1.48,1.44a13.77,13.77,0,0,1,2.09,3.18h0a4.22,4.22,0,0,1,.73,1.45h0a13.58,13.58,0,0,1,1.43,7.2.15.15,0,0,0,0,.17c-.19,1.55.09,3.11-.3,4.66a12.15,12.15,0,0,1-.65,2.36h0a14.38,14.38,0,0,1-1.48,3.36c-1.17,1.72-2,3.65-3.3,5.3A.17.17,0,0,1,720.87,244Z" transform="translate(-0.14 -11.86)" fill="#4cc3fd"/>
    <path d="M326.86,43.85a9.12,9.12,0,0,1-2.24,1.77c-5.3,3.43-10.68,6.72-16.3,9.62a2.15,2.15,0,0,1-.45.14c.59-1,1.75-1.16,2.64-1.71,2.19-1.35,4.58-2.4,6.72-3.81,2.91-1.92,6.08-3.45,8.8-5.66C326.28,44,326.5,43.76,326.86,43.85Z" transform="translate(-0.14 -11.86)" fill="#fdfdfd"/>
    <path d="M538.23,61.6c-8.63-.83-17.28-.54-25.93-.56-1.59,0-3.18.05-4.77.08.32-.45.8-.27,1.21-.27,7.5,0,15-.05,22.48,0,2.21,0,4.43.31,6.64.49C538,61.36,538.11,61.51,538.23,61.6Z" transform="translate(-0.14 -11.86)" fill="#fdfdfd"/>
    <path d="M276.64,66.36l0,.3c-.07.43-.45.53-.77.66-3.87,1.49-7.79,2.65-12,2.26a1.75,1.75,0,0,1-1.13-.29l0-.05a3.9,3.9,0,0,1,2.66-.2c1.65.25,3-.62,4.51-.87C272.2,67.79,274.38,66.92,276.64,66.36Z" transform="translate(-0.14 -11.86)" fill="#fdfdfd"/>
    <path d="M507.55,61.1c-2.63.13-5.25.29-7.88.37-5.5.16-11,.28-16.52.41-.2,0-.4,0-.6-.05.22-.32.56-.27.87-.27h2.39c4.67-.08,9.33,0,14-.3C502.38,61.11,505,61.15,507.55,61.1Z" transform="translate(-0.14 -11.86)" fill="#fdfdfd"/>
    <path d="M724.71,219.5c-.89-1.24-1.77-2.48-2.67-3.71a2.61,2.61,0,0,0-.9-.91,34.15,34.15,0,0,0-6.1-5.54,5.4,5.4,0,0,1-.42-.41,4.45,4.45,0,0,1,2.34,1.34,35.14,35.14,0,0,1,7.43,8.1A1.63,1.63,0,0,1,724.71,219.5Z" transform="translate(-0.14 -11.86)" fill="#fdfdfd"/>
    <path d="M339.62,30.15l-6.51,7.92c-.38.17-.45.82-1,.69.64-1.48,1.88-2.52,2.85-3.75,1.15-1.45,2.39-2.84,3.6-4.25C338.81,30.44,339.09,30.06,339.62,30.15Z" transform="translate(-0.14 -11.86)" fill="#fdfdfd"/>
    <path d="M355.82,35c0-.42.34-.67.5-1h.24a.54.54,0,0,1,.05.11c.34,1.18.85,1.64,2.22,2.08.13,0,.35.17.35.26,0,1.25,1.26,1.71,1.67,2.7a25,25,0,0,0-4-2.61c-.45-.23-.69-.88-1-1.33A.46.46,0,0,1,355.82,35Z" transform="translate(-0.14 -11.86)" fill="#fdfdfd"/>
    <path d="M551.67,64a118.27,118.27,0,0,0-13.46-2.43,56.65,56.65,0,0,1,13,2.11A.59.59,0,0,1,551.67,64Z" transform="translate(-0.14 -11.86)" fill="#fdfdfd"/>
    <path d="M587.58,105.45a21.31,21.31,0,0,0,1.1-6.28,3.93,3.93,0,0,1,.19-1.63,21.57,21.57,0,0,1-.46,6.89A1.09,1.09,0,0,1,587.58,105.45Z" transform="translate(-0.14 -11.86)" fill="#fdfdfd"/>
    <path d="M726.85,228.13a26.37,26.37,0,0,0-1.43-7.2c.82.39.73,1.29,1,1.94C726.94,224.56,727.52,226.31,726.85,228.13Z" transform="translate(-0.14 -11.86)" fill="#fdfdfd"/>
    <path d="M588.86,97.55a33.34,33.34,0,0,0-.59-9.56c.55.18.47.74.52,1.11a45.3,45.3,0,0,1,.3,8.07C589.09,97.3,588.94,97.43,588.86,97.55Z" transform="translate(-0.14 -11.86)" fill="#fdfdfd"/>
    <path d="M725.91,235.32c.75-2.28.55-4.69,1-7,.46,2.1,0,4.13-.43,6.16C726.35,234.83,726.3,235.16,725.91,235.32Z" transform="translate(-0.14 -11.86)" fill="#fdfdfd"/>
    <path d="M366.1,44.11c-1.61-1.7-3.54-3.06-5.07-4.84,0,0,.09,0,.12,0a24.9,24.9,0,0,1,5,4.6C366.15,43.92,366.11,44,366.1,44.11Z" transform="translate(-0.14 -11.86)" fill="#fdfdfd"/>
    <path d="M580.89,121.29a40.77,40.77,0,0,1,2.19-5.3A14.79,14.79,0,0,1,580.89,121.29Z" transform="translate(-0.14 -11.86)" fill="#fdfdfd"/>
    <path d="M475.87,62.06c-2.4.28-4.81.18-7.22.26.23-.38.62-.28,1-.28Z" transform="translate(-0.14 -11.86)" fill="#fdfdfd"/>
    <path d="M482.3,62c-2.15-.2-4.3.2-6.45.06.24-.37.63-.27,1-.27l5.59,0a.83.83,0,0,0-.13.18Z" transform="translate(-0.14 -11.86)" fill="#fdfdfd"/>
    <path d="M556,65.46,551.64,64A9.11,9.11,0,0,1,556,65.46Z" transform="translate(-0.14 -11.86)" fill="#fdfdfd"/>
    <path d="M583.06,116a23.79,23.79,0,0,1,1.69-4.12A9.4,9.4,0,0,1,583.06,116Z" transform="translate(-0.14 -11.86)" fill="#fdfdfd"/>
    <path d="M332.08,38.76c.41-.12.55-.66,1-.69-.48.83-.77,1.83-1.95,2A1.84,1.84,0,0,1,332.08,38.76Z" transform="translate(-0.14 -11.86)" fill="#d3d3d3"/>
    <path d="M724.43,238.67a22.85,22.85,0,0,1,1.48-3.36A4.81,4.81,0,0,1,724.43,238.67Z" transform="translate(-0.14 -11.86)" fill="#fdfdfd"/>
    <path d="M468.67,62.3a33.7,33.7,0,0,1-4.82.26c.81-.57,1.73-.19,2.6-.27S467.93,62.3,468.67,62.3Z" transform="translate(-0.14 -11.86)" fill="#fdfdfd"/>
    <path d="M569.41,70.51,565.79,69A6.52,6.52,0,0,1,569.41,70.51Z" transform="translate(-0.14 -11.86)" fill="#fdfdfd"/>
    <path d="M585.71,109.54a20.44,20.44,0,0,1,1.47-3.63A7.13,7.13,0,0,1,585.71,109.54Z" transform="translate(-0.14 -11.86)" fill="#fdfdfd"/>
    <path d="M357.76,32.52a11.4,11.4,0,0,1,1.68-1.92C359.24,31.56,359,32.44,357.76,32.52Z" transform="translate(-0.14 -11.86)" fill="#fdfdfd"/>
    <path d="M559.34,66.66A17.81,17.81,0,0,1,556,65.44,6.58,6.58,0,0,1,559.34,66.66Z" transform="translate(-0.14 -11.86)" fill="#fdfdfd"/>
    <path d="M341.44,27.72a1.49,1.49,0,0,0,.24.94c-.42.2-.9.27-1.21.66-.18-.34-.46-.78.19-.85S341.13,27.91,341.44,27.72Z" transform="translate(-0.14 -11.86)" fill="#fdfdfd"/>
    <path d="M585.48,82c-.59-.8-1.18-1.61-1.76-2.42A3.17,3.17,0,0,1,585.48,82Z" transform="translate(-0.14 -11.86)" fill="#fdfdfd"/>
    <path d="M289.39,57.47c-.21,0-.44,0-.41-.3a.69.69,0,0,1,.55-.56A.37.37,0,0,1,290,57C290,57.36,289.69,57.45,289.39,57.47Z" transform="translate(-0.14 -11.86)" fill="#fdfdfd"/>
    <path d="M355.6,22.68a3.87,3.87,0,0,1-2.16-1A2.51,2.51,0,0,1,355.6,22.68Z" transform="translate(-0.14 -11.86)" fill="#fdfdfd"/>
    <path d="M328.7,42.12a7,7,0,0,1-1.86,1.75A3.53,3.53,0,0,1,328.7,42.12Z" transform="translate(-0.14 -11.86)" fill="#fdfdfd"/>
    <path d="M720.87,244l.26,0a4.63,4.63,0,0,1-1.44,1.92A5.31,5.31,0,0,1,720.87,244Z" transform="translate(-0.14 -11.86)" fill="#70cffd"/>
    <path d="M375.94,38.81c-.11.25-.14.59-.51.57a.36.36,0,0,1-.31-.44c.06-.25.12-.59.49-.56C375.8,38.39,375.93,38.58,375.94,38.81Z" transform="translate(-0.14 -11.86)" fill="#fdfdfd"/>
    <path d="M249.49,34.31l-1.94-1.75A3,3,0,0,1,249.49,34.31Z" transform="translate(-0.14 -11.86)" fill="#fdfdfd"/>
    <path d="M367.59,45.75a10.77,10.77,0,0,1-1.5-1.66A2.32,2.32,0,0,1,367.59,45.75Z" transform="translate(-0.14 -11.86)" fill="#fdfdfd"/>
    <path d="M584.73,111.93a8.48,8.48,0,0,1,1-2.41A3.26,3.26,0,0,1,584.73,111.93Z" transform="translate(-0.14 -11.86)" fill="#fdfdfd"/>
    <path d="M586.69,84.22A8.67,8.67,0,0,1,585.46,82,3.08,3.08,0,0,1,586.69,84.22Z" transform="translate(-0.14 -11.86)" fill="#fdfdfd"/>
    <path d="M461.89,62.33c-.34-.76-1.22-.54-1.73-1C461,61.31,461.78,61.17,461.89,62.33Z" transform="translate(-0.14 -11.86)" fill="#fdfdfd"/>
    <path d="M565.82,69.06a6.57,6.57,0,0,1-2.18-.75A2.56,2.56,0,0,1,565.82,69.06Z" transform="translate(-0.14 -11.86)" fill="#fdfdfd"/>
    <path d="M580.69,77a6.67,6.67,0,0,1-1.75-1.23A2.18,2.18,0,0,1,580.69,77Z" transform="translate(-0.14 -11.86)" fill="#fdfdfd"/>
    <path d="M369,47.44c-.42-.48-.84-1-1.27-1.45A1.88,1.88,0,0,1,369,47.44Z" transform="translate(-0.14 -11.86)" fill="#fdfdfd"/>
    <path d="M562.46,67.87a5.42,5.42,0,0,1-1.94-.76A2.34,2.34,0,0,1,562.46,67.87Z" transform="translate(-0.14 -11.86)" fill="#fdfdfd"/>
    <path d="M583.33,79.2l-1.47-1.3A1.82,1.82,0,0,1,583.33,79.2Z" transform="translate(-0.14 -11.86)" fill="#fdfdfd"/>
    <path d="M571.09,71.28a7.11,7.11,0,0,1-1.7-.79A1.67,1.67,0,0,1,571.09,71.28Z" transform="translate(-0.14 -11.86)" fill="#fdfdfd"/>
    <path d="M588.13,87.34c-.26-.59-.52-1.17-.77-1.75C588.15,85.93,588.09,86.66,588.13,87.34Z" transform="translate(-0.14 -11.86)" fill="#fdfdfd"/>
    <path d="M573.25,72.22l-1.72-.8A1.83,1.83,0,0,1,573.25,72.22Z" transform="translate(-0.14 -11.86)" fill="#fdfdfd"/>
    <path d="M725.43,220.94a3.32,3.32,0,0,1-.73-1.45C725.48,219.7,725.34,220.38,725.43,220.94Z" transform="translate(-0.14 -11.86)" fill="#fdfdfd"/>
    <path d="M463.87,62.54c-.69.12-1.4.49-2-.23Z" transform="translate(-0.14 -11.86)" fill="#fdfdfd"/>
    <path d="M305.8,56.32a2.45,2.45,0,0,1-1.56.68A2.2,2.2,0,0,1,305.8,56.32Z" transform="translate(-0.14 -11.86)" fill="#fdfdfd"/>
    <path d="M458.05,60.43a2.68,2.68,0,0,1-1.23-.74A1.12,1.12,0,0,1,458.05,60.43Z" transform="translate(-0.14 -11.86)" fill="#fdfdfd"/>
    <path d="M459.25,61.18A3.53,3.53,0,0,1,458,60.4C458.58,60.42,459.07,60.56,459.25,61.18Z" transform="translate(-0.14 -11.86)" fill="#fdfdfd"/>
    <path d="M560.54,67.13a2.33,2.33,0,0,1-1.23-.49A1.12,1.12,0,0,1,560.54,67.13Z" transform="translate(-0.14 -11.86)" fill="#fdfdfd"/>
    <path d="M563.67,68.32a2.23,2.23,0,0,1-1.24-.47A1.13,1.13,0,0,1,563.67,68.32Z" transform="translate(-0.14 -11.86)" fill="#fdfdfd"/>
    <path d="M581.65,77.75l-1-.79A.89.89,0,0,1,581.65,77.75Z" transform="translate(-0.14 -11.86)" fill="#fdfdfd"/>
    <path d="M307.89,55.37a1.41,1.41,0,0,1-1.25.4A1.28,1.28,0,0,1,307.89,55.37Z" transform="translate(-0.14 -11.86)" fill="#fdfdfd"/>
    <path d="M329.91,41.16a1.08,1.08,0,0,1-1,.73A1.12,1.12,0,0,1,329.91,41.16Z" transform="translate(-0.14 -11.86)" fill="#fdfdfd"/>
    <path d="M349.6,19.8c-.26,0-.55,0-.72-.24C349.19,19.43,349.54,19.17,349.6,19.8Z" transform="translate(-0.14 -11.86)" fill="#fdfdfd"/>
    <path d="M342.4,27.48c-.2.58-.62.24-1,.24C341.69,27.37,342.07,27.51,342.4,27.48Z" transform="translate(-0.14 -11.86)" fill="#fdfdfd"/>
    <path d="M117,211.1c-2.27,1.07-4.79,1.14-7.18,1.75a14.61,14.61,0,0,0-8.25,5.36c-1.9,2.45-4.13,4.55-7.44,4.7-3.13.14-6.23,0-8.81-2.25a37.87,37.87,0,0,1-4-3.37c-1.53-1.7-3.88-1.73-5.83-2.59-.22-.09-.45-.15-.68-.23a1,1,0,0,1,.64-.49q4.35-.76,8.73-1.22h.4c.07,0,.1,0,.08,0s0-.16-.11,0c-5.22-1.19-10.61-1.64-15.45-4.16-1.11-.58-2.28,0-3.41.1a14.26,14.26,0,0,1-2.36.32,6.79,6.79,0,0,1-1.74-.14,2.32,2.32,0,0,0-1.33-.73c-2.17-.9-4.49-1.42-6.52-2.68a12.74,12.74,0,0,1-2.07-1.79c-.2-.19-.44-.43-.29-.72s.47-.28.75-.24a19.15,19.15,0,0,1,3.6.68A25.63,25.63,0,0,1,50,198.58l-.34-.34c-.28-.34-.64-.69-.39-1.16s.78-.27,1.17-.14c2.11.68,4.35,1,6.37,2A53,53,0,0,1,53,195.08c-1.51-1.64-3.1-3.21-4.47-5a5.79,5.79,0,0,1-1.27-2.91.7.7,0,0,1,.66-.61c1.32,0,2.54.58,3.85.67,1.41.3,2.85.46,4.26.76a6.17,6.17,0,0,0,.74.19c.34,0,.15-.1,0-.2l-.23-.18a12.27,12.27,0,0,0-1.84-1.61A52.23,52.23,0,0,1,48,178.73a2.38,2.38,0,0,1-.62-1.86.66.66,0,0,1,.63-.32c2.6.65,5.24,1.16,7.83,1.86.12,0,.23.16.32.08s0,.07-.09-.05a22.39,22.39,0,0,1-3.41-2.8c-1.25-1.1-2.53-2.18-3.71-3.36a2.56,2.56,0,0,1-.93-1.5c0-.28.09-.56.1-.85a3.56,3.56,0,0,1,1.2-2.53c2.29-2.16,4.33-4.59,6.93-6.59a12.56,12.56,0,0,0-4.44.42c-.35.08-.69.21-1,.29s-.7.17-.86-.18.19-.49.39-.68a3.59,3.59,0,0,1,.83-.68c2.72-1.49,4.94-3.67,7.49-5.38a15.44,15.44,0,0,1,2.69-1.29c.3,0,.58-.25.8-.15-.45-.09-.91.23-1.42.31-.28,0-.6,0-.73-.28s.15-.52.36-.68a20.4,20.4,0,0,1,2.49-1.59c-.39-.17-1,.23-1.07-.45,0-.53.36-.79.79-.94,2.24-.77,4.29-2.17,6.94-1.5,1.55.39,3.26.07,4.9.08A2.73,2.73,0,0,0,76,147.5a6.22,6.22,0,0,1,4.38-1.31c2.43.19,4.84-.43,7.29,0,1.46.24,2.89.61,4.36.79a48,48,0,0,0-9-3.22c-.54-.12-1.24,0-1.49-.78,1.83.08,2.84-.76,3.59-2.48,2.18-5,6.5-7,11.58-7.6a11.13,11.13,0,0,1,7.19,1.23c3.11,1.9,4.75,5,5.48,8.47a5.45,5.45,0,0,1-.22,1.76,1.71,1.71,0,0,0,1.07,1.91,20.42,20.42,0,0,0,5,1.67,10.34,10.34,0,0,1,5.52,3.35,3.36,3.36,0,0,1,.7,2,37.74,37.74,0,0,0,.28,3.82,3,3,0,0,1-.83,2.63,57.32,57.32,0,0,0-4.23,5.8,30.4,30.4,0,0,1-5.81,6.18,2.71,2.71,0,0,0-1.1,2.13c-.13,3.42-.08,6.84-.12,10.27a3.67,3.67,0,0,0,1,2.23c2.34,3.05,5.26,5.57,7.76,8.47.84,1,1.6,2,2.39,3a2.4,2.4,0,0,1,.46,2.25,27.2,27.2,0,0,0-.68,3.9,4.73,4.73,0,0,1-.63,2c-.55.85-.05,1.92-.6,2.76A3.5,3.5,0,0,1,117,211.1Z" transform="translate(-0.14 -11.86)" fill="#fad3bc"/>
    <path d="M209.65,30.76l0,.33a10,10,0,0,1-2,2,25.2,25.2,0,0,0-4.57,5.22,14.73,14.73,0,0,0-2.14,7.4c-.16,2.92-.47,5.82-.9,8.7a89.4,89.4,0,0,0-.8,9.67c-.17,4.19-.26,8.38-.24,12.58,0,1.28-.29,1.46-1.59,1.57-3.63.3-7.27.09-10.9.27-4.86.24-9.74.19-14.58.86a29.54,29.54,0,0,1-3.12.06,81.89,81.89,0,0,0-17.09,2.12,26.7,26.7,0,0,0-10.92,5.28,24.19,24.19,0,0,0-5.21,6.37,20.09,20.09,0,0,0-2.87,6.93,3.51,3.51,0,0,1-.57,1.3,6.66,6.66,0,0,0,1.13-2.1c.86-3.08,2.84-5.55,4.66-8,3.25-4.44,7.92-6.82,13.09-8.4a62.3,62.3,0,0,1,10.51-1.74c5.2-.66,10.43-.67,15.65-1s10.54-.49,15.81-.46c1.48,0,2.94-.3,4.43-.24,1,0,1.54.39,1.61,1.46.28,4.51.56,9-.33,13.5a10.44,10.44,0,0,0,.83,5.49,1.28,1.28,0,0,0,1,1,1.78,1.78,0,0,0,.87-1.3c.1-.35.09-.9.74-.76a10.58,10.58,0,0,1-6.24,11.73c-3.19,1.37-6.41,2.71-9.65,4a13.43,13.43,0,0,0-7.48,6.05,1.41,1.41,0,0,1-.73.75c-2,.41-4,1.17-6,1.67-9.86,2.43-19.68,5-29.51,7.52a3,3,0,0,0-.91.3c-.56.34-.81.79,0,1.11s.74.76.52,1.34c-1,2.51-2.21,4.88-3.26,7.34-.1.25-.26.51-.63.43,0-.41.17-.83-.23-1.2a11.46,11.46,0,0,1-2.41-3.81A56.36,56.36,0,0,1,130,111.81c-.06-2-.46-4,.11-6a20.4,20.4,0,0,1,.38-2.81c.36-1.31.77-2.62,1.1-3.95.06-.15-.26,0-.1,0s.09,0,0,.1c-.38.81-.19,1.84-1,2.66a1.66,1.66,0,0,1-.09-1.35h0c.33-.35,0-.85.25-1.21,0-.26-.09-.53.17-.73s.31-.8.57-1.15c2.27-4.11,4.12-8.52,7.71-11.75,1.81-1.62,3.78-3.07,5.62-4.66,3.76-3.22,6.72-7.18,10.11-10.73,5.37-5.65,11.51-10.36,17.52-15.26,5.34-4.35,11-8.26,16.61-12.2a82.27,82.27,0,0,1,15.65-8.5,5.45,5.45,0,0,0,1.61-1A19.51,19.51,0,0,1,209.65,30.76Z" transform="translate(-0.14 -11.86)" fill="#444"/>
    <path d="M119,208.7c.6-.74,0-1.72.46-2.46a6.17,6.17,0,0,0,.87-2.92,24,24,0,0,1,.73-3.85,1.86,1.86,0,0,0-.59-1.63,49.3,49.3,0,0,0-5.27-6,68.22,68.22,0,0,1-5-5.59,3,3,0,0,1-.85-3,5.61,5.61,0,0,0-.09-2.84c-.34-1.35.26-2.7.13-4a6.27,6.27,0,0,1,2.48-6.18,25.34,25.34,0,0,0,6.21-7.49,14.23,14.23,0,0,1,2.49-3.18,2.61,2.61,0,0,0,.8-2.71,30.24,30.24,0,0,1-.28-3.91c-.07-.6-.61-1.06-.37-1.68l1,.33a37.27,37.27,0,0,0,5.54,1.79c.37.08.73.34,1.14.12a9,9,0,0,0,5.3.21c1.19-.61,2.55-.35,3.79-.7a132.24,132.24,0,0,0,13.74-2.68c7.3-1.73,14.43-4.16,21.83-5.53.58,0,1.28-.25,1.55.6-.35,1-1.25,1.44-2,2-6.26,4.48-10.95,10.35-15,16.8a61.6,61.6,0,0,0-8.64,23.46,56.55,56.55,0,0,0,.5,18.94c.1.55.46,1.15,0,1.71l-8.51-.11-12-.13a21.81,21.81,0,0,1-6.4.35,5.44,5.44,0,0,0-2.12.23A2.17,2.17,0,0,1,119,208.7Z" transform="translate(-0.14 -11.86)" fill="#f4c8b6"/>
    <path d="M56.05,178.71a81.35,81.35,0,0,1-8.12-2c-.22-.21-.35-.52-.7-.58-.08-.13-.17.2,0,.09s.08-.07.09-.07c.44.23-.07.58.12.84a31.88,31.88,0,0,0,5.9,7.43c.52.55,1.08,1.06,1.62,1.58.22.6,1.38.65.94,1.62a1.64,1.64,0,0,1,1,.11l0,0c.11.16.32.33.19.5s-.48.18-.73,0a22.34,22.34,0,0,1-4.53-.76c-.21-.12-.43-.25-.2-.53.37-.09.67.13,1,.2h.91c-.33,0-.68,0-1-.05a1.6,1.6,0,0,0-1.37,0,24.79,24.79,0,0,1-3-.39c-.3.1-1-.27-.66.58,2.08,4.73,6.15,7.78,9.64,11.32a1.74,1.74,0,0,1,.47.62c-2.73-.85-5.48-1.51-8.53-2.4a26.33,26.33,0,0,0,7.34,6.7,5.34,5.34,0,0,1-2.5-.27c-.83-.09-1.65-.25-2.6-.4,1.75,2.29,4.15,3.28,6.62,4.17a5.69,5.69,0,0,1,2.3.89.46.46,0,0,1,0,.56c-.47.32-1,.13-1.47.21,1.53-.26,3.06.33,4.6,0,1.33.09,2.55-.52,3.88-.6a4.45,4.45,0,0,1,2.52.46,19.9,19.9,0,0,0,5.58,2c3.2.58,6.38,1.34,9.56,2,.15.47-.35.23-.46.43l-9,1.26a74.26,74.26,0,0,1-10.44-.15.74.74,0,0,0-.67.13h0a8.83,8.83,0,0,1-3,0c-.16,0,0-.06-.11,0s.07.12.08.2a1.13,1.13,0,0,1,.34.52c-.25.42-.55.15-.82.05-2.73-1-5.59-1.66-8.13-3.19-.43-.26-1.25-1.17-1.78.08,0,0-.28-.1-.42-.17-1.22-.68-2.49-1.3-3.65-2.07-.51-.34-1.1-.34-1.61-.64a12,12,0,0,1-4-3.19c-2.82-3.78-5.73-7.49-7.79-11.77a32.32,32.32,0,0,1-2.37-7.49c-.77-.7-.31-1.82-.9-2.58.16-.47-.36-.45-.51-.7-1.21.87-1.62,2.32-2.5,3.43-.25.31-.42.8-.89.55s-.1-.61,0-.95a41.66,41.66,0,0,1,3.05-9.75A25.65,25.65,0,0,0,31.44,172c.78-2.2,2.31-4,3.61-6.06-2.71.13-5.29-.47-7.9-.2-.24,0-.5.06-.62-.22s.06-.53.34-.66c.94-.44,1.86-.91,2.82-1.31a31.72,31.72,0,0,0,13.48-11.16,2.29,2.29,0,0,0,.4-1.69c-.32-3.45.55-6.79,1-10.19a53.89,53.89,0,0,0,3.13,7A64.62,64.62,0,0,1,67.32,138c-1,1.59-2.81,2.34-4,4,6.13-.32,12.2-.59,18.14,1a75.67,75.67,0,0,1,10,3.32,3.08,3.08,0,0,1,1.59,1.13,1.3,1.3,0,0,1-1,0c-.35-.09-.71-.13-1.05-.23-4.08-1.23-8.25-.6-12.38-.52a3.5,3.5,0,0,0-2.24,1,3.13,3.13,0,0,1-2.28.74,71.89,71.89,0,0,1-7.19-.15,1.63,1.63,0,0,0-1.56.57c-.57.65-1.65.49-2.43.88-.38.19-1,.11-1,.9.59.11,1.19-.51,1.88,0l-3.89,2.49c.32.26.63,0,.92.09.28-.09.55-.18.53.29a24.42,24.42,0,0,0-6.33,4.23c-1.51,1.4-3.53,2.15-5.08,3.64a17.82,17.82,0,0,1,7.19-.8c-3,1.93-5,4.54-7.46,6.77A3.59,3.59,0,0,0,48.37,170c-.14.22-.38.42-.23.73A3.08,3.08,0,0,0,49,172c2.4,2.18,4.75,4.4,7.3,6.4C56.39,178.66,56.31,178.77,56.05,178.71Z" transform="translate(-0.14 -11.86)"/>
    <path d="M174.36,145.54c-.24-.85-1-.25-1.4-.45-.1-.55.64-.41.72-1-12.44,3-24.76,6.22-37.14,9.18-.17,0,.05.13,0,0s0-.09.08-.09c.3,0,.63-.15.9.11a14,14,0,0,1-3.87.45l.93-2.66a.68.68,0,0,1,.21.73,61.22,61.22,0,0,1,3.12-7.29c1.74-3.73,3.87-7.27,5.32-11.14a1.47,1.47,0,0,1,.8-1c7.46-1.79,14.85-3.82,22.29-5.69,2.82-.71,5.67-1.35,8.46-2.23a4.81,4.81,0,0,1,.93-.2c.76-.08,1.12.17,1,1a20.08,20.08,0,0,0-.5,3.78,46.34,46.34,0,0,0-.51,7.16,3.7,3.7,0,0,1-.55,1.94,6.23,6.23,0,0,0-.43,5,7.2,7.2,0,0,1,.57,2.78C174.75,146.33,174.59,145.85,174.36,145.54Z" transform="translate(-0.14 -11.86)" fill="#393939"/>
    <path d="M143.91,132.6c-2.72,6.66-6.58,12.78-9.07,19.7-.39-.54-.2-.91-.29-1.25.27-2.7,1.7-5,2.53-7.54.28-.86.71-1.67,1.07-2.51,1.44-2.79,2.67-5.68,3.92-8.65-.74,0-1.44-.06-1.48-.9s.68-1,1.28-1.16c5.4-1.4,10.79-2.8,16.19-4.16,4.82-1.22,9.67-2.36,14.47-3.63,1.3-.35,2.59-.79,3.88-1.18a4.06,4.06,0,0,1,1.65-.23,2.4,2.4,0,0,1-.73,2.12,37.68,37.68,0,0,1-6,1.72c-8.56,2.28-17.16,4.43-25.73,6.67A2.84,2.84,0,0,0,143.91,132.6Z" transform="translate(-0.14 -11.86)" fill="#252a2a"/>
    <path d="M130.47,105.7c-.71,2-.37,4.07-.5,6.11a24.38,24.38,0,0,1,.49-11.39c0,.31,0,.63.07,1.23.7-1.13.53-2.33,1.3-3.16l-1.1,4.35A5.08,5.08,0,0,0,130.47,105.7Z" transform="translate(-0.14 -11.86)" fill="#505050"/>
    <path d="M128.32,153.5c-.63.54-1.28.12-1.89,0a12.3,12.3,0,0,1-4.79-1.9,26.21,26.21,0,0,1,5.71,1.48A10.27,10.27,0,0,1,128.32,153.5Z" transform="translate(-0.14 -11.86)" fill="#0f0e0d"/>
    <path d="M97,46.2c0,.28-.16.44-.38.44a.41.41,0,1,1,.06-.82A.37.37,0,0,1,97,46.2Z" transform="translate(-0.14 -11.86)" fill="#5c5c5c"/>
    <path d="M131.45,97.34c0,.47-.07.92-.57,1.15A2.2,2.2,0,0,1,131.45,97.34Z" transform="translate(-0.14 -11.86)" fill="#505050"/>
    <path d="M130.71,99.22c0,.41.18.88-.25,1.21A1.77,1.77,0,0,1,130.71,99.22Z" transform="translate(-0.14 -11.86)" fill="#505050"/>
    <path d="M29.64,183.27c.31.13.85.09.51.7l-.44.66Z" transform="translate(-0.14 -11.86)" fill="#4f4f4f"/>
    <path d="M311,187.26c4.17.94,8.27,2.09,12.34,3.42a44.4,44.4,0,0,1,14.35,7.51c1.23,1,2.58,1.88,3.87,2.8a9.77,9.77,0,0,1,3.51,4.59,25.94,25.94,0,0,1,1.71,6,16.94,16.94,0,0,1-1.56,9.07c-2,4.56-5.47,7.68-9.6,10.22a70.35,70.35,0,0,1-10.42,4.84,25.63,25.63,0,0,1-5.93,1.41c-3.07.47-6.11,1.08-9.24,1.25a45.53,45.53,0,0,1-10.37-.62,11.61,11.61,0,0,0-4.58.19,40.46,40.46,0,0,1-8.59.53c-4.27,0-8.54,0-12.82-.18-7.1-.35-14.17-1-21.25-1.61-6.21-.55-12.39-1.23-18.52-2.28-6-1-11.82-2.37-17.7-3.68a10.27,10.27,0,0,1-3.26-1.17,1.26,1.26,0,0,0-.92-.15,36.32,36.32,0,0,1-6,.19,46.21,46.21,0,0,1-18.31-3c-6.37-2.59-12-6.32-16.2-12a10.16,10.16,0,0,1-.82-2.1c-.3-.67-.59-.92-1.34-.66-3.71,1.3-7.61,1.23-11.47,1.44.06-.62.62-.53,1-.64,1.35-.39,2.76-.46,4.11-.78,3.6-.83,7.32-1.18,10.81-2.49.51-.2.62-.35.66-1a28.86,28.86,0,0,1,1.49-8c.49-.52.9-.13,1.22.19a44.7,44.7,0,0,0,7.3,5.22,8.27,8.27,0,0,0,2,1.07,16.57,16.57,0,0,1,3.78,1.79,8.68,8.68,0,0,0,2.86,1.19,13,13,0,0,1,3.9,1.52l.93.59c1.66,1.48,3.76,1.49,5.77,1.62a74,74,0,0,0,8,.3,4,4,0,0,0,2.18-.52,3.11,3.11,0,0,1,2.63-.36,13,13,0,0,1,1.87.44,11.57,11.57,0,0,0,6.25.46c2.24-.39,4.51-.63,6.76-1a25.12,25.12,0,0,0,11.4-4.68c1.59-1.2,2.08-1.16,3.62,0,2.62,2,5.31,3.83,7.92,5.81a.51.51,0,0,1,.08.36c-.83,1.71-.56,3.49-.28,5.27a2.3,2.3,0,0,0,1,1.32,32,32,0,0,0,8,4.79l1,.46a95.25,95.25,0,0,0,31.9,9.64,9.52,9.52,0,0,0-2.64-1,152.75,152.75,0,0,1-22.12-6.27q-4-1.53-7.82-3.35c-1.51-.71-3.19-1.09-4.52-2.18a21,21,0,0,1-2.53-1.74,1.83,1.83,0,0,1-.89-1.57c5.07-6.3,7.79-13.72,9.83-21.39a26.49,26.49,0,0,0,.17-12.46,42.89,42.89,0,0,1-.92-6.27c.32-.68.81-.26,1.2-.15,1.4.43,2.69,1.13,4.1,1.52a18.23,18.23,0,0,0,2.19.49c6.35,1.6,12.75,3,19.2,4.06,5.2.85,10.44,1.41,15.66,2a8.62,8.62,0,0,0,3.9-.36Z" transform="translate(-0.14 -11.86)" fill="#444"/>
    <path d="M523.88,188.83c-1.78,2.65-3.77,5.19-5.29,8-2.8,5.13-6.15,10.06-6.82,16.11a7.21,7.21,0,0,0,2,5.93,29.26,29.26,0,0,0,8.4,6.23c8.83,4.53,17.82,8.7,26.93,12.61a68.45,68.45,0,0,1,14.05,8.22,18.64,18.64,0,0,1,3,2.12c2.32,2.79,1.29,5.83-2.31,6.72a21,21,0,0,1-5.22.65,60.39,60.39,0,0,0-14.36,1.77c-4.56,1.08-8.93.41-13.3-1a44.82,44.82,0,0,1-8.79-3.78,39.67,39.67,0,0,0-11.54-4.23,15.78,15.78,0,0,1-2.89-.77,29,29,0,0,0-11.23-2.15c-2.71-.08-5.43,0-8.15-.22a52.09,52.09,0,0,0-10.5.76,7.54,7.54,0,0,1-3.21-.1c-5.52-1.7-9.75-4.74-11.05-10.79-.6-2.8.49-5.26,1.51-7.73.2-.48.43-.94.65-1.41.36-1.53,1.45-2.64,2.29-3.88a55.24,55.24,0,0,1,7.15-8.5,71.24,71.24,0,0,0,9.87-12.6c2.6-4,5.07-8.13,7.34-12.34,1-1.78,2.21-3.43,2.7-5.44a.56.56,0,0,1,.22-.44,22,22,0,0,0,11,5.9,34,34,0,0,0,11.91.52A31,31,0,0,1,523.88,188.83Z" transform="translate(-0.14 -11.86)" fill="#f4c8b6"/>
    <path d="M411.29,164.79c5.46-.64,10.92-1.24,16.37-1.95a103.57,103.57,0,0,0,10.49-1.67,2.36,2.36,0,0,1,.7,0c-1.41,4.11-1.88,8.41-2.47,12.67-.64,4.59-1.4,9.17-1.71,13.8a31,31,0,0,0,3.95,16.44,16.4,16.4,0,0,0,5.14,5.6,12,12,0,0,0,4.07,2.18c3,1,6,1.76,9,2.74a15.48,15.48,0,0,1,3.85,1.89,3.85,3.85,0,0,1,1.54,3.09,1.67,1.67,0,0,1-1.19,1.75,46.7,46.7,0,0,1-8.79,1.42c-.07,0-.14-.07-.2-.12-6.47-.12-12.94-.41-19.41-.25a55.79,55.79,0,0,0-9.64,1,19,19,0,0,0-3.78,1.5,8.32,8.32,0,0,1-6.07.15c-4.4-1.36-6-4.77-6.71-8.91a10.64,10.64,0,0,1,.9-5.91c1.52-3.93,3.15-7.86,3.42-12.15a22.6,22.6,0,0,0,.48-2.83c-.25-1.85.32-3.63.47-5.45A44.76,44.76,0,0,0,412,182c-.24-4.13-.14-8.26-.52-12.39C411.37,168,410.94,166.42,411.29,164.79Z" transform="translate(-0.14 -11.86)" fill="#f4c8b6"/>
    <path d="M443.62,209.91a16,16,0,0,1-5.62-6.25,31,31,0,0,1-3.62-15.81c.39-.43.88-.28,1.35-.23a72.59,72.59,0,0,0,10.63.53A217,217,0,0,0,474,185.88c6.62-1.08,13.26-2.09,19.89-3.1a2.11,2.11,0,0,1,1.4.1c.22.61-.15,1.09-.4,1.56A186.7,186.7,0,0,1,481.1,207a62.81,62.81,0,0,1-7,8,58.69,58.69,0,0,0-8,10.28c-.11.17-.23.32-.35.48-.93.61-1.9.07-2.78-.06-3.33-.45-6.68-.86-9.95-1.63-1.34-.31-2.67-.7-4.11-1.08,1.1-.31,2.18.16,3.16-.3,2.43-.4,4.86-.78,7.29-1.2.95-.17,2.17-.07,2.51-1.24a3.07,3.07,0,0,0-1.18-3.29,1.49,1.49,0,0,1-.23-.27c-.11-.62.4-.68.77-.88a11.72,11.72,0,0,0,5.89-7.46c.27-1,.05-1.18-1-1.21a30.1,30.1,0,0,0-4.63.52c-4,.53-8,.85-12,1.37a38.31,38.31,0,0,0-4.34.87A2.13,2.13,0,0,1,443.62,209.91Z" transform="translate(-0.14 -11.86)" fill="#24b5fd"/>
    <path d="M412.22,182.11a6.69,6.69,0,0,1,.18,2.95,58,58,0,0,1-1.15,10.18c-1.24-.44-1.46-1.72-2.09-2.63-1.91-2.78-3.58-5.75-5.84-8.27a12.69,12.69,0,0,0-5.89-3.71,42.72,42.72,0,0,0-6.36-1.55c-2.35-.32-4.69-.77-7.08-.9-4.16-.23-8.31-.72-12.47-.88a47.05,47.05,0,0,0-8.72.13,7.74,7.74,0,0,1-1.08,0,94.54,94.54,0,0,0-20,2.08c-4.57.93-8.94,2.54-13.42,3.74-2.5.67-4.94,1.53-7.39,2.34a22.61,22.61,0,0,0-4,1.52,5.69,5.69,0,0,1-4.39.26c-.5-.12-1-.54-1.58-.16v.09a.47.47,0,0,1-.58-.39,6.77,6.77,0,0,1,.88-2.07c1.13-2.63,1.47-5.47,2.24-8.19.34-1.19.67-2.38,1.08-3.55a31.87,31.87,0,0,0,.8-4.21c.22-.28.59-.14.84-.34A110.29,110.29,0,0,1,328,166.82c5.75-.62,11.53-1.1,17.31-1.37a119.94,119.94,0,0,1,27.42,2A121.83,121.83,0,0,1,399,176.23c4,1.84,8,3.76,12.23,5.24C411.62,181.6,412,181.7,412.22,182.11Z" transform="translate(-0.14 -11.86)" fill="#24b5fd"/>
    <path d="M176.11,200.22c-.48,2.41-1.05,4.79-1.34,7.23,0,.16-.15.35-.1.46.78,1.73-.63,1.56-1.57,1.94a19,19,0,0,1-5.31,1.25c-1.38.12-2.65.78-4,1a25.82,25.82,0,0,0-5.9,1.17c-2,.59-4.08.53-6,1.19-.77.26-1-.47-1.15-1.06-.43-1.69-.84-3.38-1.26-5.07a63.21,63.21,0,0,1-1.23-16.81,61.89,61.89,0,0,1,8.75-26.9,64.22,64.22,0,0,1,11.92-14.65c1.73-1.58,3.68-2.93,5.53-4.39.39,0,.51.38.81.48s.4.31.46.57c.11.74-.38,1.17-.87,1.6-2.37,2.07-4.58,4.32-6.82,6.53-6.47,6.41-10.77,14.18-14,22.52a64.08,64.08,0,0,0-3.47,15.16,37.19,37.19,0,0,0-.38,7.88c.27,3.22.95,6.38,1.47,9.56.44,2.7.45,2.68,3.14,2.28,5.38-.79,10.69-2,16.08-2.65l.12,0c2.66-.51,2.59-.52,2.75-3.19a24.25,24.25,0,0,1,.71-5.81c.15-.49.12-1.19.94-1.17C175.73,199.44,176.1,199.67,176.11,200.22Z" transform="translate(-0.14 -11.86)" fill="#252a2a"/>
    <path d="M119,208.7a6.75,6.75,0,0,1,3-.66c2.32.17,4.63,0,6.94,0a8.85,8.85,0,0,1-2.92,1.32,35.91,35.91,0,0,1-9,1.73C117.71,210.37,118.73,209.86,119,208.7Z" transform="translate(-0.14 -11.86)" fill="#050404"/>
    <path d="M64.25,214.22a.51.51,0,0,1,.5-.25c3.53.51,7.08,0,10.61.27l-.62.23C71.25,214.38,67.74,214.66,64.25,214.22Z" transform="translate(-0.14 -11.86)" fill="#061b25"/>
    <path d="M61.14,214.67a1.46,1.46,0,0,1-.86-.93,18.4,18.4,0,0,0,4,.48c-.68.35-1.5,0-2.15.44A1.25,1.25,0,0,0,61.14,214.67Z" transform="translate(-0.14 -11.86)" fill="#061b25"/>
    <path d="M61.14,214.67c.32-.49.64-.21,1,0-.2.05-.42.07-.53.28Z" transform="translate(-0.14 -11.86)" fill="#1e82b2"/>
    <path d="M495.3,182.88c-5.68.92-11.34,1.88-17,2.73-5,.74-9.94,1.54-14.95,2-4.38.43-8.78.47-13.16.72a87.57,87.57,0,0,1-15.78-.51,104.68,104.68,0,0,1,1.2-10.74c.53-3.2.94-6.42,1.37-9.64a33.64,33.64,0,0,1,1.34-5.54c.08-.28.37-.49.56-.74,7.43-1.36,14.84-2.81,22.2-4.54a301,301,0,0,0,42.21-13.13c1.36-.54,1.72-.28,1.69,1.15a50.09,50.09,0,0,1-1.43,12,45.91,45.91,0,0,1-5.73,12.21,39.59,39.59,0,0,1-3.48,5.43c-2.22,2.53-.71,4.55.18,6.76a15.06,15.06,0,0,0,.82,1.46C495.31,182.64,495.3,182.76,495.3,182.88Z" transform="translate(-0.14 -11.86)" fill="#fefefe"/>
    <path d="M412.22,182.11a83.58,83.58,0,0,1-11.29-4.67,125.36,125.36,0,0,0-29.6-9.88,116.55,116.55,0,0,0-30.81-1.46c-6.09.47-12.19.9-18.25,1.79-2.09.3-4.17.65-6.26,1-.59-1.35-.43-1.9.83-2.47a9.75,9.75,0,0,0,4.57-3.89,2.77,2.77,0,0,1,1.22-1.13,19.93,19.93,0,0,0,4.3-3,10.49,10.49,0,0,1,3.45-1.9,1.78,1.78,0,0,1,1.59.15,25.55,25.55,0,0,0,4.21.93c7.61,1.48,15.1,3.53,22.79,4.62,3.16.45,6.25,1.38,9.41,1.84,6,.86,12,2.05,17.92,3.28a45.66,45.66,0,0,0,8.13,1.33,1.75,1.75,0,0,0,.88-1.3c.09-.37,0-.79.4-1.06.17-.71.61-.79,1.3-.82,4.29-.17,8.57-.44,12.86-.67.47,0,.95,0,1.42,0a26.81,26.81,0,0,1,.65,5.64c.3,3.55.36,7.12.52,10.68A1.17,1.17,0,0,1,412.22,182.11Z" transform="translate(-0.14 -11.86)" fill="#fefefe"/>
    <path d="M371.44,50.29A5.61,5.61,0,0,1,375,51c1.94,1.44,3.95,2.8,5.81,4.34,2.27,1.91,4,4.18,4.27,7.32a1.36,1.36,0,0,1-.94,1.58,6.67,6.67,0,0,0-1.71,1.27c-.51.45-1,1-1.46,1.43-1.5,1.34-1.48,1.32-.58,3.23.7,1.48,1.74,2.77,2.3,4.32a.39.39,0,0,1-.37.31c-1.32-1.06-1.71-2.66-2.39-4.08-1-2-.91-2-2.52-.52-1.94,1.79-4.15,3.25-6.19,4.91C366.5,79,361.69,82.84,357,86.82c-2.86,2.43-5.59,5-8.52,7.34-3.32,2.67-6.72,5.26-10.26,7.65-1.66,1.11-3.41,2.07-5.17,3a4.41,4.41,0,0,1-2.16.6.73.73,0,0,1-.31-.17c-.21-.59.27-.78.63-1a126.46,126.46,0,0,0,10.9-7.61c3.35-2.59,6.62-5.3,9.73-8.16,2.3-2.1,4.76-4,7.14-6,4.58-3.86,9.33-7.51,14-11.23,2.41-1.91,4.86-3.76,7.25-5.7a28.91,28.91,0,0,0,2.46-2.62,1.34,1.34,0,0,0,.18-1.56,12.57,12.57,0,0,0-4.33-5.47,15,15,0,0,1-2.63-2.26c-1.84-2.29-4.26-1.94-6-.86-2.12,1.27-4.24,2.57-6.26,4-2.65,1.86-5.26,3.77-8,5.52-1.78,1.14-3.31,2.61-5,3.91-2.52,2-5.19,3.73-7.69,5.72-2.19,1.74-4.55,3.24-6.79,4.92-1.43,1.07-3.13,1.76-4.48,3a1.12,1.12,0,0,1-1.43.15c-.07-.31-.16-.63.33-.65,1.27-1.13,2.7-2,4.06-3,3.59-2.62,7.12-5.33,10.69-8,2.13-1.59,4.33-3.09,6.41-4.75,2.6-2.09,5.17-4.22,8-6.06,3.07-2,6.11-4.11,9.16-6.19A23.65,23.65,0,0,1,371.44,50.29Z" transform="translate(-0.14 -11.86)" fill="#252a2a"/>
    <path d="M493,145.8c-.76,0-1.24-.05-1.28-.78s.45-1,1-1.1c3.8-.43,7.35-1.79,10.91-3a133.82,133.82,0,0,0,21.2-9.7,137.26,137.26,0,0,0,16.75-10.84c4.15-3.18,8.17-6.52,11-11a16.49,16.49,0,0,0,1-1.91c.17-.39.29-.81.81-.64s.45.58.36,1a12.75,12.75,0,0,1-3,5.67c-5,5.91-11.14,10.43-17.58,14.63a142.5,142.5,0,0,1-17.71,9.76,96.79,96.79,0,0,1-23.11,7.95C493.17,145.79,493,145.8,493,145.8Z" transform="translate(-0.14 -11.86)" fill="#262626"/>
    <path d="M482.28,62c2.28,0,4.56,0,6.83,0,.58,0,1.47-.14,1.49.57s-.88.6-1.46.63c-5,.24-9.91.82-14.88,1-4.73.16-9.47.46-14.19.77-7.89.51-15.78.85-23.67.58a93.93,93.93,0,0,1-14-1.4c-3.67-.69-7.31-1.51-11-2.13a6.08,6.08,0,0,1-2.23-.83.5.5,0,0,1-.26-.61.33.33,0,0,1,.49-.18c1.78.94,3.79.73,5.68,1.08,4,.74,8,1.31,12,1.92,1.06.16,2.15.17,3.21.24,6.86.45,13.74.38,20.6.24,4.81-.1,9.62-.54,14.43-.72,4.57-.17,9.14-.58,13.71-.74A6.92,6.92,0,0,0,482.3,62Z" transform="translate(-0.14 -11.86)" fill="#262626"/>
    <path d="M382.48,74.76l.25-.24c.33.13.44.44.61.71,3.38,5.49,6.94,10.93,9,17.07,1.09,3.22,2.65,6.36,2.94,9.81.31,3.76,1.38,7.45,1.09,11.26s-.28,7.73-.53,11.58c-.3,4.64-.73,9.27-1,13.92-.37,6.26-.32,12.52-.34,18.78a28.73,28.73,0,0,0,1,6.7c.16.64.07,1.28.19,1.9,0,1,0,2-.95,2.61-.64.23-1.06,0-.72-.64.78-1.43.38-2.8,0-4.2a35.6,35.6,0,0,1-.93-8.79c0-2.72-.1-5.45,0-8.16.31-6.42.3-12.85,1.08-19.25a72.38,72.38,0,0,0,.58-9.2c0-1.59,0-3.19.18-4.78a17.72,17.72,0,0,0-.16-5.14c-.6-2.9-.55-5.88-1.27-8.77-2.12-8.48-6.1-16.11-10.54-23.54C382.76,75.89,382.28,75.44,382.48,74.76Z" transform="translate(-0.14 -11.86)" fill="#262626"/>
    <path d="M516.35,142.73c-1.15-.12-2.3-.23-3.43-.39-.3,0-.72-.19-.71-.54s.47-.3.75-.32c5-.27,9.83-1.31,14.73-2,2.86-.44,5.73-.88,8.57-1.42,3.25-.62,6.3-2,9.56-2.6a53.7,53.7,0,0,0,8.52-2.69,3.71,3.71,0,0,1,1.5-.36c.44,0,.93-.06,1.08.51a.91.91,0,0,1-.67,1.12c-2.71,1-5.33,2.36-8.19,3-3.39.72-6.69,1.76-10,2.64a104.64,104.64,0,0,1-11.27,1.86c-3,.46-6,.8-9,1.17a11.52,11.52,0,0,1-1.44,0Z" transform="translate(-0.14 -11.86)" fill="#262626"/>
    <path d="M524.26,144.82c-3.4.07-5.78-.65-8.21-1-.31,0-.55-.2-.55-.53s.32-.4.6-.41a13.13,13.13,0,0,1,2.72.21c3.42.64,6.8.06,10.19-.36.68-.08,1.79-.55,1.92.47s-.94,1.06-1.77,1.13C527.22,144.53,525.29,144.72,524.26,144.82Z" transform="translate(-0.14 -11.86)" fill="#262626"/>
    <path d="M614,252.87c-.23,0-.36-.15-.33-.38a.36.36,0,0,1,.4-.33.33.33,0,0,1,.33.38A.36.36,0,0,1,614,252.87Z" transform="translate(-0.14 -11.86)" fill="#3f545f"/>
    <path d="M200.81,101.16c-.06.35-.22.56-.55.27a3.19,3.19,0,0,1-.87-1c-.77-1.92-1.48-3.83-1.06-6,.93-4.66.62-9.36.31-14.06,0-.56-.38-.66-.81-.61-4.73.51-9.49,0-14.22.46-.2,0-.4,0-.6,0-4.47-.14-8.92.39-13.38.54a98.47,98.47,0,0,0-15.5,1.66c-5.61,1.08-10.74,3.28-14.78,7.53a33.17,33.17,0,0,0-3,4.15,23.86,23.86,0,0,0-3.11,6.12,10.29,10.29,0,0,1-1.73,2.39c0-1.27.75-2,1-3A24.87,24.87,0,0,1,139.7,87.3c3.43-3.35,7.79-5,12.34-6.25a72.22,72.22,0,0,1,10.24-1.5c5.27-.64,10.57-.55,15.84-1,4.34-.34,8.68-.53,13-.44,2.24,0,4.46-.35,6.69-.25.65,0,.85-.28.82-.87,0-.44,0-.88,0-1.32-.17-4.59.14-9.18.29-13.77a86.94,86.94,0,0,1,1.3-11.58,26.76,26.76,0,0,0,.31-4.29c.05-5.48,2.69-9.61,6.71-13,.78-.67,1.61-1.28,2.42-1.93,0,.56-.46.83-.8,1.14A41,41,0,0,0,204,37.84c-1.37,1.79-1.67,4-2,6.07-.25,1.83-.22,3.73-.29,5.6-.11,3.06-.66,6.07-.91,9.12s-.36,6.29-.32,9.44c0,2.83-.35,5.65-.24,8.49,0,.78,0,1.39,1.06,1.42.42,0,1.18.09,1,.86-.11.6-.64.78-1.21.72-.82-.09-.9.38-.89,1,0,2.48.06,5,0,7.44a23.89,23.89,0,0,1-.71,6.68,2.61,2.61,0,0,0,.17,1.84,1.44,1.44,0,0,0,.76-1,6,6,0,0,1,3.88-4.1,51.05,51.05,0,0,1,8.25-2.8A76,76,0,0,1,224,86.45c4.95-.39,9.87-1.4,14.85-1.08,3.82.25,7.71.25,11.38,1.71,2.38.94,4.28,2.28,5.05,4.94,0-.2,0-.4,0-.6s0-.4,0-.6q0-9.64,0-19.31a9.21,9.21,0,0,1,.49-3.24c.41.5.15,1.11.24,1.66a2.11,2.11,0,0,1,.31,1.49c-.05,5.47.14,10.94-.09,16.41a32.13,32.13,0,0,1-.15,5.37,10.3,10.3,0,0,1-3.95,6.61,32,32,0,0,1-8.53,4.06c3.24-1.3,7.29-2.09,11.26-3.12Q272.12,96.3,289.41,92c3.49-.87,7-1.58,10.5-2.45.31-.08.62-.18.91.06a.21.21,0,0,1,.07.21c-.05.82-.78.82-1.29,1-4.2,1.3-8.4,2.61-12.64,3.76-16.67,4.51-33.38,8.85-50.07,13.29-4.32,1.15-8.65,2.3-13,3.37-.56.13-1.25.57-1.66-.31a2.85,2.85,0,0,1,1.36-2,1.63,1.63,0,0,1,.37-.13c2.56-.54,5.12-1,7.25-1.68-1.17,0-2.75.47-4.29-.18-.45-.48-.17-.72.31-.81a13.47,13.47,0,0,1,1.42-.2,31.88,31.88,0,0,0,10.69-2.86c3.21-1.42,6.54-2.55,9.7-4.1,2-1,3.58-2.21,4.07-4.53a5.36,5.36,0,0,0-.58-3.81,7.33,7.33,0,0,0-4.36-2.38c.11.31.36.47.44.74,1.48,4.43-.08,6.9-3.8,9.33a26.25,26.25,0,0,1-3.72,1.64c-2.92,1.32-6.1,1.53-9.17,2.22-.85-.06-1.83.45-2.48-.55-.06-.56.3-.87.67-1.18,1.23-1.08,2.82-1,4.28-1.26,3.86-.76,7.58-1.82,10.73-4.35a6.06,6.06,0,0,0,2-4.32c.1-.79-.73-1.3-.83-2.07-.39-.85-1.18-.83-1.92-.85a39.3,39.3,0,0,1-5.08-.46,56.73,56.73,0,0,0-14.2.41A77,77,0,0,0,205.7,92.7a6.84,6.84,0,0,0-4.24,3.11,5.14,5.14,0,0,0-.6,4.32A1.21,1.21,0,0,1,200.81,101.16Z" transform="translate(-0.14 -11.86)" fill="#252a2a"/>
    <path d="M301.55,91.32c.93,1.72,1.47,3.59,2.25,5.37.47,1.06-.08,2.19.24,3.27-.16,1.1,0,2.29-1,3.17-.4.37,0,.63.3.83a17.72,17.72,0,0,0,1.7.82,4.32,4.32,0,0,1,1.55.8c.49,1.18.33,1.72-.68,2.38-1.16.74-2.46,1.23-3.66,1.91-.21.22-.7,0-.74.49a9.06,9.06,0,0,0,1.25,1.07c.24.22.5.46,0,.73-5.23,1.28-10.47,2.52-15.68,3.86-7.11,1.83-14.26,3.52-21.38,5.28a48.29,48.29,0,0,1-6,1.42,11,11,0,0,0-4.34.55,29,29,0,0,1-3.76,1.11c-.12,0,.22.08.1.23-.29.42-.76.41-1.18.52-3.25.81-6.51,1.61-9.79,2.34-6.47,1.46-12.87,3.24-19.35,4.63-1.23.27-2.41.72-3.65.93a7.35,7.35,0,0,1,.12-3.3,70.92,70.92,0,0,0,.54-8.1,66.29,66.29,0,0,1,.8-6.63,4.1,4.1,0,0,1,1.5-2.26c2.09-1.07,4.44-1.26,6.65-2,1.37-.44,2.79-.71,4.18-1.08a47.66,47.66,0,0,1,7.39-1.49,21.17,21.17,0,0,0,4.9-1.15,33.52,33.52,0,0,1,5.92-1.48,21.35,21.35,0,0,0,4.5-1.26c5.27-2,10.79-3.23,16.21-4.77,9.15-2.6,18.38-4.91,27.51-7.61a7.39,7.39,0,0,0,1.75-.77A1.29,1.29,0,0,1,301.55,91.32Z" transform="translate(-0.14 -11.86)" fill="#393939"/>
    <path d="M300.82,89.65c-7.49,1.84-15,3.64-22.47,5.51q-16,4-32,8.16c-1.25.32-2.43.93-3.83.74,1.59-.65,3.21-1.24,4.77-2,2.35-1.07,4.76-2.07,6.4-4.23a12.14,12.14,0,0,0,2.24-9.22,18.25,18.25,0,0,1,.12-2.47c0-5.42,0-10.84,0-16.25,2.23-.31,4.52-.07,6.73-.64a33.52,33.52,0,0,1,5-.07,9.16,9.16,0,0,0,3-.64,35.76,35.76,0,0,0,5.88-1.92,3.55,3.55,0,0,1,2.6.53,54.34,54.34,0,0,1,12.68,10.1A80.37,80.37,0,0,1,300.11,88,5.61,5.61,0,0,1,300.82,89.65Z" transform="translate(-0.14 -11.86)" fill="#444"/>
    <path d="M305,105a8.11,8.11,0,0,1-2.21-1.13c-.29-.25-.57-.73-.13-.85,1.11-.3.83-1.22,1-1.9A2.15,2.15,0,0,1,304,100c.36-.42.16-.92.19-1.39a2.09,2.09,0,0,1,.22-1.15c1.26-1.76.87-3.56.31-5.44a6.22,6.22,0,0,1,.08-2.46c.05-.34.47-.43.79-.25,1.18.67,2.35,1.34,3.5,2,.32.2.35.45-.13.5a.71.71,0,0,1-.4.19.75.75,0,0,1-.33,0c.06.13.19.06.29.12,3.88.93,7.52,2.66,11.43,3.51-.45-.31-1.17-.17-1.37-.87a20.69,20.69,0,0,0-4.22-2c-.37-.09-.68-.18-.83-.55a.57.57,0,0,1-.14-.5c.24-1,.87-2,1.15-3,.85-1.79,1.19-3.75,1.9-5.59a11.29,11.29,0,0,1,1.19-3.67c.21-.6,0-1.3.46-1.85a86.48,86.48,0,0,1,3.13-11.25c.58-1.9,1.19-3.8,1.79-5.7a2.89,2.89,0,0,0,.2-1.74.8.8,0,0,1,1.07-.2c.7.35,1.39.73,2.09,1.09-.43.55-1-.05-1.42.14,0,.64.52.87.93,1.15a27,27,0,0,1,6.46,6.16,2.74,2.74,0,0,0,1.27,1.06c.52.17.56.49.36.93q-1.58,4.62-3.17,9.24c-.09.26-.14.53-.21.8a.77.77,0,0,0-.24.72,12.34,12.34,0,0,1-1.14,4c-1.25,3.49-2.39,7-3.54,10.53a13.26,13.26,0,0,1-2.09,3.73,1.28,1.28,0,0,1-1.2.66,3.26,3.26,0,0,0-3,1.21,3.73,3.73,0,0,1-1.08.75,6.27,6.27,0,0,0-1.94,1.35c-1.22,1.24-2.82,1.93-4.18,3a2.66,2.66,0,0,1-2.13.58,8.88,8.88,0,0,1-2.45-.54A3.22,3.22,0,0,0,305,105Z" transform="translate(-0.14 -11.86)" fill="#f5f5f5"/>
    <path d="M301.55,91.32a1.85,1.85,0,0,0-1.86.25c-1.45.92-3.21,1.13-4.85,1.61-4.42,1.32-8.87,2.53-13.32,3.74q-10.87,3-21.78,5.89c-2.62.7-5.05,2.07-7.7,2.55-4.94.89-9.61,2.86-14.6,3.45-3.89.46-7.58,1.76-11.36,2.68a44,44,0,0,0-5.18,1.41,2.24,2.24,0,0,1,1.51-2.12c.13.69.55.37.91.27,4.51-1.16,9-2.29,13.53-3.47q8.61-2.23,17.2-4.54c10.88-2.89,21.77-5.77,32.64-8.73,4.34-1.18,8.64-2.53,12.95-3.82a2,2,0,0,0,1.25-.63A4.19,4.19,0,0,1,301.55,91.32Z" transform="translate(-0.14 -11.86)" fill="#434444"/>
    <path d="M318.62,94.73c.73.4,1.63.38,2.31,1-.44.57-1,.18-1.39.09a58.32,58.32,0,0,1-7-2.25c-1.38-.5-2.85-.69-4.19-1.33.08-.57.46-.27.73-.24a24.36,24.36,0,0,1,5.69,1.62A16.22,16.22,0,0,0,318.62,94.73Z" transform="translate(-0.14 -11.86)" fill="#555"/>
    <path d="M316.48,83.16a15.86,15.86,0,0,1-1.7,5.75c-.44,0-.33-.29-.26-.54.49-1.82,1-3.65,1.46-5.47,0,.25,0,.5.07.82Z" transform="translate(-0.14 -11.86)" fill="#545454"/>
    <path d="M314.52,88.37l.26.54-1.21,2.88c-.2,0-.33,0-.22-.24A10.07,10.07,0,0,1,314.52,88.37Z" transform="translate(-0.14 -11.86)" fill="#6e6e6e"/>
    <path d="M315.26,81.25c.63.38,1.61.62.72,1.66C316.14,82.19,315.22,81.92,315.26,81.25Z" transform="translate(-0.14 -11.86)" fill="#545454"/>
    <path d="M309.07,92c-.24.09-.55-.05-.73.24a1.24,1.24,0,0,1-.9-.65l1.56.22A1.46,1.46,0,0,1,309.07,92Z" transform="translate(-0.14 -11.86)" fill="#8a8a8a"/>
    <path d="M313.35,91.55l.22.24v.44l-.39.35A.92.92,0,0,1,313.35,91.55Z" transform="translate(-0.14 -11.86)" fill="#8c8c8c"/>
    <path d="M334,69.28c0-.16,0-.44-.05-.46-1.83-.67-2.57-2.44-3.76-3.75a33.82,33.82,0,0,0-4.86-4c-.51-.38-.87-.76-.7-1.44,1.93.44,3.36,1.73,4.85,2.91a20.77,20.77,0,0,1,3.62,3.81c.13.17.23.42.54.42.44-.46.3-1.24.84-1.66.42.2.05.81.52,1C334.51,67.11,334.59,68.3,334,69.28Z" transform="translate(-0.14 -11.86)" fill="#f1f1f1"/>
    <path d="M334.49,65.12c-.14.81-.16,1.92-.79,2.22-.42.2-.9-1-1.38-1.57a25.37,25.37,0,0,0-7.68-6.13c.65-.43,1.14.52,1.77.2A23.72,23.72,0,0,1,334.49,65.12Z" transform="translate(-0.14 -11.86)" fill="#fcfcfc"/>
    <path d="M318.13,77.64a4.76,4.76,0,0,1-.46,1.85C317.46,78.78,317.34,78.1,318.13,77.64Z" transform="translate(-0.14 -11.86)" fill="#545454"/>
    <path d="M95.41,176.92c-.31,2.83-.45,6-3.15,8.2-.38.31-.67.64-1.25.36a1.12,1.12,0,0,1-.62-1.17,104.08,104.08,0,0,1,.47-13.09c.07-.87,0-1.76,0-2.64a.59.59,0,0,1,.33-.59.47.47,0,0,1,.61.25C93.44,170.87,95.45,173.34,95.41,176.92Z" transform="translate(-0.14 -11.86)" fill="#fefefe"/>
    <path d="M84,175.84a29.8,29.8,0,0,0-.56,7.24c0,.35,0,.89-.48,1s-.56-.37-.81-.62l-3.22-3.19a4,4,0,0,1-.88-1.12c-.38-.82-.93-1.52.62-1.85a6.49,6.49,0,0,0,2.61-1.83,6,6,0,0,0,.51-.5c.44-.51,1.07-1,1.65-.72S83.94,175.24,84,175.84Z" transform="translate(-0.14 -11.86)" fill="#f4c8b6"/>
    <path d="M63.07,156.39c-.41,2-.91,3.88-1.23,5.84a22.11,22.11,0,0,0,.66,9.93c.16.58.56,1.17.15,1.87-.58-.21-.68-.76-.84-1.21a21.23,21.23,0,0,1,1-16.92C63.29,155.88,63.14,156.16,63.07,156.39Z" transform="translate(-0.14 -11.86)" fill="#040303"/>
    <path d="M58.66,197.84a11.07,11.07,0,0,1-.88-4.47,24,24,0,0,1,2.06-10.93,2.48,2.48,0,0,1,.27-.54c.35-.5.82-1.47,1.27-1.18.67.45-.34.92-.55,1.41a26.1,26.1,0,0,0-2,13.09c0,.47.09.95.11,1.43s0,.77,0,1.16Z" transform="translate(-0.14 -11.86)" fill="#050404"/>
    <path d="M62.67,185.27a2.68,2.68,0,0,1,.78,2.18c.45,3.73.8,7.47,1.19,11.2,0,.4,0,.7-.45.8s-.44-.21-.46-.49q-.6-6.44-1.19-12.88A4.2,4.2,0,0,1,62.67,185.27Z" transform="translate(-0.14 -11.86)" fill="#060504"/>
    <path d="M66.13,166.34a63.42,63.42,0,0,1,1.81-9.1c.14-.44.35-1,1-.75s.08.72,0,1.1c-.89,2.85-1.33,5.81-2,8.72a.49.49,0,0,0,0,.12c-.07.38,0,1-.49.93S66.28,166.7,66.13,166.34Z" transform="translate(-0.14 -11.86)" fill="#060505"/>
    <path d="M102.33,175.63c.5.1.61.41.46.8-.9,2.37.12,4.51.76,6.69.09.31.51.7,0,.9s-.61-.25-.78-.58a10.76,10.76,0,0,1-1-4.24c-.06-.93-.53-1.85,0-2.81A1.54,1.54,0,0,1,102.33,175.63Z" transform="translate(-0.14 -11.86)" fill="#f4c9b6"/>
    <path d="M63.31,208.7a11.18,11.18,0,0,1-5.08-.17l1.89-.16c.54-.27,1,.06,1.37.31Z" transform="translate(-0.14 -11.86)" fill="#b89c8b"/>
    <path d="M51.53,187.1l.23.43c-1.31,0-2.52-.58-3.82-.7a.14.14,0,0,1-.08-.2l3.2.22C51.18,187,51.43,186.9,51.53,187.1Z" transform="translate(-0.14 -11.86)" fill="#110e0d"/>
    <path d="M56.85,187.76c-.16,0-.34.08-.46,0s-.87.39-.55-.5c.12-.34-.82-.66-.93-1.26A8.88,8.88,0,0,1,56.85,187.76Z" transform="translate(-0.14 -11.86)" fill="#110e0d"/>
    <path d="M47.39,177c-.56-.15.09-1.21-.89-1.06.57.16,1.37-.15,1.43.78C47.75,176.82,47.46,176.72,47.39,177Z" transform="translate(-0.14 -11.86)" fill="#574941"/>
    <path d="M61.49,208.68l-1.37-.31.07-.44C60.76,207.94,61.39,207.85,61.49,208.68Z" transform="translate(-0.14 -11.86)" fill="#5a4c44"/>
    <path d="M84.39,213l.46-.43a.87.87,0,0,1,.93.22A1.77,1.77,0,0,1,84.39,213Z" transform="translate(-0.14 -11.86)" fill="#715f55"/>
    <path d="M56.29,188.29c.32,0,.75,0,.54-.55a1.71,1.71,0,0,1,.88.68A1.54,1.54,0,0,1,56.29,188.29Z" transform="translate(-0.14 -11.86)" fill="#110e0d"/>
    <path d="M61.38,153.5l-.53-.29a2.12,2.12,0,0,1,1.57-.19A1.52,1.52,0,0,1,61.38,153.5Z" transform="translate(-0.14 -11.86)" fill="#483d36"/>
    <path d="M63.07,156.39l-.24-.49.39-.78C63.33,155.68,63.37,156.06,63.07,156.39Z" transform="translate(-0.14 -11.86)" fill="#564941"/>
    <path d="M47.86,186.63a1.67,1.67,0,0,0,.08.2c-.27,0-.49.14-.49.47-.22-.16-.49-.39-.36-.64S47.59,186.63,47.86,186.63Z" transform="translate(-0.14 -11.86)" fill="#ceae9b"/>
    <path d="M56.05,178.71l.29-.29c.28,0,.68.19.53.43S56.3,179,56.05,178.71Z" transform="translate(-0.14 -11.86)" fill="#6b5a50"/>
    <path d="M48.14,170.76c-.33-.37-.28-.62.23-.73Z" transform="translate(-0.14 -11.86)" fill="#453a34"/>
    <path d="M230.25,100.65a1.56,1.56,0,0,0-.66.73c-.82,1.66-2.27,2.86-3.21,4.43a35.31,35.31,0,0,1-2.56,3.26.46.46,0,0,1-.2,0c-1.42,1-2.11,2.68-3.2,4-.88,1.07-1,2.46-1.67,3.6-2,3.36-5,5.32-8.56,6.77a18.67,18.67,0,0,1-8,1.82c-1.34-.06-2.67.43-4,.5a2,2,0,0,0-1.23.69c-1,1-1.93,2-3,2.92-.52.43-.21.66.11.92,1.35,1.14,2.77,2.16,4.21,3.17a39.19,39.19,0,0,1,5.15,4.29,3.41,3.41,0,0,1,1.06,2.69,1.87,1.87,0,0,1-2.5,2,13.72,13.72,0,0,1-3.85-1.27,2.9,2.9,0,0,0-1.13-.37,12,12,0,0,1-2.41-1c-.34-.19-.7-.36-1.05-.53-1.33-.8-2.74-1.45-4.06-2.26-.37-.22-.76-.55-1.16-.09a1.1,1.1,0,0,0-.07,1.34c.37.68,1.12,1,1.59,1.59a7.56,7.56,0,0,0,.82.78c.83.61,1.6,1.31,2.47,1.88,1.61,1.41,3.64,2.11,5.45,3.18a4.33,4.33,0,0,1,1.34,1,2.37,2.37,0,0,0,1.12.64,2.89,2.89,0,0,1,1.94,2.59,2.7,2.7,0,0,1-2.29,2.13,4.57,4.57,0,0,1-2.35,0,7.62,7.62,0,0,0-2.24-.11,17.34,17.34,0,0,1-6.75-1.91,15.91,15.91,0,0,0-3.31-1.39,3.6,3.6,0,0,0,1.76,1.89,53.76,53.76,0,0,0,10.08,4.71,13.62,13.62,0,0,1,2.7.91,2,2,0,0,1,1.21,1.89,1.74,1.74,0,0,1-1.41,1.7c-.57.18-1.12.41-1.7.54a7.4,7.4,0,0,1-1.15.07,12.66,12.66,0,0,1-3.79-.64c.28.67.59,1.3.07,1.88a2.63,2.63,0,0,1-1.8.84,9.88,9.88,0,0,1-7.61-2.07,28.66,28.66,0,0,1-6.95-8.9c-.23-.47-.48-.92-.75-1.37a8.08,8.08,0,0,1-1.33-3.52.49.49,0,0,0-.19-.49,36.28,36.28,0,0,1-1.1-4.37,3.88,3.88,0,0,1,.37-2.77,7.18,7.18,0,0,0,.95-4.23,27.34,27.34,0,0,1,.48-5.57c.18-1.66.65-3.28.78-5,0-.47.42-.75.6-1.13l.81-1.91c1.86-4,5.33-5.94,9.22-7.42,2.68-1,5.33-2.12,8-3.18a11.55,11.55,0,0,0,6-5.62,4.28,4.28,0,0,0,.54-2.18,17.13,17.13,0,0,1,.27-3.92c0-1.42.8-2.57,1.19-3.86a3.64,3.64,0,0,1,2.15-2.38,71.49,71.49,0,0,1,19.43-5.28,58.59,58.59,0,0,1,14.55-.46c.43.32.13.64,0,1-2.4,3.75-4.83,7.47-7.45,11.07A24.45,24.45,0,0,1,230.25,100.65Z" transform="translate(-0.14 -11.86)" fill="#fad3bc"/>
    <path d="M203.46,95a27.13,27.13,0,0,1-1.42,3.8c-.64.68-.4,1.81-1.23,2.39-.49-1.57-.84-3.14,0-4.72.15-.28.2-.6.48-.8.58-.34.85-1,1.48-1.31S203.71,94.22,203.46,95Z" transform="translate(-0.14 -11.86)" fill="#3a3a3a"/>
    <path d="M163.37,64l-1.94,2-.25-.24c.71-.62,1.18-1.48,2.16-1.83Z" transform="translate(-0.14 -11.86)" fill="#636363"/>
    <path d="M158.55,68.27a5,5,0,0,1,2.12-1.7l-2.11,2c-.07,0-.1-.11-.08-.17S158.52,68.27,158.55,68.27Z" transform="translate(-0.14 -11.86)" fill="#7f7f7f"/>
    <path d="M130.47,105.7c-.61-1,0-1.9.06-2.85,0,0,.06,0,.1,0s.07,0,.1,0C130.65,103.8,130.56,104.75,130.47,105.7Z" transform="translate(-0.14 -11.86)" fill="#6b6b6b"/>
    <path d="M158.55,68.27v.26a1.71,1.71,0,0,1-.94.84A2,2,0,0,1,158.55,68.27Z" transform="translate(-0.14 -11.86)" fill="#616161"/>
    <path d="M163.34,64a1.72,1.72,0,0,1,1-.84,1.39,1.39,0,0,1-1,.88Z" transform="translate(-0.14 -11.86)" fill="#6f6f6f"/>
    <path d="M137.49,153.26l-1-.08,0-.15,17.88-4.51q9.28-2.33,18.59-4.62c.46-.11,1.19-.66,1.38.25s-.62.62-1.08.73c-.1,0-.19.13-.28.21-7.14,1.49-14.09,3.72-21.19,5.4-3.68.88-7.34,1.82-11.08,2.39C139.63,153,138.55,153.14,137.49,153.26Z" transform="translate(-0.14 -11.86)" fill="#262b2b"/>
    <path d="M48,195.84a1.49,1.49,0,0,1,1.35.51C48.75,196.52,48.45,196,48,195.84Z" transform="translate(-0.14 -11.86)" fill="#8f796c"/>
    <path d="M51.53,187.1l-.47-.25c.48.06,1-.21,1.42.23.08,0,.11.1.08.15s-.06.07-.08.07Z" transform="translate(-0.14 -11.86)" fill="#2f2824"/>
    <path d="M52.48,187.3v-.22c.41,0,.83-.12,1.25.12A2.34,2.34,0,0,1,52.48,187.3Z" transform="translate(-0.14 -11.86)" fill="#26201d"/>
    <path d="M29.32,164.68c.2-.2.36-.37.61-.35,0,0,.1.12.09.15C29.9,164.71,29.7,164.77,29.32,164.68Z" transform="translate(-0.14 -11.86)" fill="#3f3f3f"/>
    <path d="M177.25,123c-.71,2-.78,4.08-1.38,6.08a13.37,13.37,0,0,1,.49-3.77c.14-.85,0-1-.82-.74-3.6,1-7.22,1.88-10.83,2.81l-12.82,3.29c-2.34.61-4.69,1.22-7,1.81a7.47,7.47,0,0,1-1,.12c-.15-.82.39-1,1-1.17,5.67-1.45,11.34-2.88,17-4.36C167,125.74,172.14,124.36,177.25,123Z" transform="translate(-0.14 -11.86)" fill="#434343"/>
    <path d="M176.11,200.22l-.68-.69c-1.72-1.84-2.94-3.85-2.23-6.53a1.86,1.86,0,0,1,1.54-1.61A20.66,20.66,0,0,1,188,198.05c.15,0,.21-.13.11,0l-.08,0a41.17,41.17,0,0,0-5.61-4.66,7.21,7.21,0,0,0-4.24-1.4c-.92.07-1.36-.51-1.68-1.26a3.39,3.39,0,0,1,0-2.45,11.47,11.47,0,0,1,1.82-4.14,2.15,2.15,0,0,1,2.44-1.07,9.09,9.09,0,0,1,1.43.53,24.67,24.67,0,0,1,4.2,3.36,34.88,34.88,0,0,0,11.77,6.48,11.22,11.22,0,0,0,8.84-.25c2.73-1.27,3.6-3.45,2.35-6.2-1.88-4.1-5.22-6-9.59-6.24-2-.13-3.91.05-5.87,0a86.08,86.08,0,0,1-8.91-1c-.54-.16-1.07-.35-1.6-.56a5.34,5.34,0,0,1-2.32-1.6,1.72,1.72,0,0,1,.33-2.89,4.63,4.63,0,0,1,2.45-.82,11.45,11.45,0,0,0,1.76-.23,148.25,148.25,0,0,0,16.86-1c2.16-.21,4.3.33,6.47.21,6.06-.35,12.14-.11,18.21-.29,4.43-.13,8.4,1.35,12.4,2.86a14.13,14.13,0,0,0,2.38.79c4.47.87,8.84,2.19,13.28,3.21a46.91,46.91,0,0,1,5.22,1.32l.38.13a22.16,22.16,0,0,1,2.84,1c.79.19,1,.78,1.14,1.5a36.15,36.15,0,0,1-2.14,21.13,74.58,74.58,0,0,1-4.5,10.29,4,4,0,0,1-1,1.36,5.29,5.29,0,0,1-2.87-1.83c-3-1.82-5.73-4.06-8.57-6.12a1.61,1.61,0,0,0-2.26,0c-4.36,3.6-9.56,4.93-15,5.59-1.51.18-3,.46-4.5.65a10.35,10.35,0,0,1-5-.36c-.71-.27-1.46-.4-2.19-.6a3,3,0,0,0-2.81.28,3.6,3.6,0,0,1-2.07.5c-3.63.06-7.26-.2-10.88-.5a5.87,5.87,0,0,1-3.41-1.56c-.07-.4-.44-.41-.71-.54A81.56,81.56,0,0,1,186.07,207a36.89,36.89,0,0,1-8.09-5.3C177.4,201.16,176.74,200.71,176.11,200.22Z" transform="translate(-0.14 -11.86)" fill="#f4c8b6"/>
    <path d="M258.88,222.84a121.79,121.79,0,0,0,22.88,8.88c4.46,1.16,8.93,2.26,13.4,3.41a2,2,0,0,1,1.49.92,2.39,2.39,0,0,1-1.86.19c-3.67-.68-7.34-1.33-11-2.23a100.49,100.49,0,0,1-16.77-5.89c-1.08-.49-2.09-1.11-3.14-1.67-1.39-1-3.13-1.47-4.49-2.58-.33-.27-.89-.41-.75-1l.09,0Z" transform="translate(-0.14 -11.86)" fill="#252a2a"/>
    <path d="M256.94,216.07c2.07-3,3.24-6.48,4.65-9.82a40.61,40.61,0,0,0,3.6-16.86c-.06-2.25-.62-4.42-.8-6.64-.05-.67-.68-.43-.95-.72-.47-.64.21-1.17.15-1.77a5.63,5.63,0,0,1,0-.58c.05-.3,0-.7.42-.75s.49.39.6.71c.3,1.75.59,3.5.91,5.25a37,37,0,0,1,.79,6.13,35.29,35.29,0,0,1-2.84,14.15,64.8,64.8,0,0,1-3.89,9c-1.21,2.05-2.27,4.21-4.09,5.82-.36.33-.77.51-1.15.12s-.06-.8.13-1.19C255.09,217.76,256.4,217.25,256.94,216.07Z" transform="translate(-0.14 -11.86)" fill="#252a2a"/>
    <path d="M310.57,187l.39.31c-1.36,1.1-3,.75-4.46.62-3.12-.27-6.23-.74-9.33-1.14-4.73-.61-9.43-1.37-14.08-2.42-3.76-.84-7.56-1.49-11.25-2.61-.33-.54-.07-.82.44-1,1.55-.13,3,.55,4.44.8,7.9,1.34,15.74,3,23.74,3.74,2.81.25,5.63.55,8.43.91A2.21,2.21,0,0,1,310.57,187Z" transform="translate(-0.14 -11.86)" fill="#252a2a"/>
    <path d="M266.36,231.52c6,.5,11.62,2.31,17.4,4.33C281.34,236.24,271.73,233.86,266.36,231.52Z" transform="translate(-0.14 -11.86)" fill="#292e2e"/>
    <path d="M254.8,219c-.06.33-.61.51-.35.9s.71-.06,1.07.07c.73,1.41,2.18,2,3.36,2.88.4.88,1.32,1.14,2,1.66,1,.72,2.28.89,3,1.95a32.7,32.7,0,0,1-9.41-5.5,1.68,1.68,0,0,1-.49-.66,9.91,9.91,0,0,1-.2-5.4.44.44,0,0,1,.48-.42c.56.6.32,1.35.37,2A12.85,12.85,0,0,0,254.8,219Z" transform="translate(-0.14 -11.86)" fill="#292f2f"/>
    <path d="M272.33,181.08c-.49,0-.5.36-.49.72-2.35-.17-4.38-1.37-6.56-2.09-.21-.06-.4-.31-.64-.07-.27-.09-.24-.52-.62-.52-.22.39,0,.83-.1,1.24-.48,0-.42-.36-.52-.62s0-.71-.45-.72-.52.32-.69.58-.4.77-.63,1.13-.44.57-.87.39h0c-.52-1.44.66-2.16,1.34-3s1.34-.37,2.07-.12a59,59,0,0,0,6.87,2.31C271.53,180.38,272.2,180.33,272.33,181.08Z" transform="translate(-0.14 -11.86)" fill="#2a2f2f"/>
    <path d="M291.92,202.09c1.11-3.86,3.34-6.68,5.47-9.54C296.06,195.87,295,199.32,291.92,202.09Z" transform="translate(-0.14 -11.86)" fill="#262b2b"/>
    <path d="M254.8,219c-.61-.08-.47-.55-.47-.93,0-1.19,0-2.39,0-3.59a1.49,1.49,0,0,0,0-.21,8.2,8.2,0,0,1,2.62,1.81c.09.89-.54,1.39-1.14,1.8A2.46,2.46,0,0,0,254.8,219Z" transform="translate(-0.14 -11.86)" fill="#454444"/>
    <path d="M196.93,211.58c.34,0,1.19-.59.71.54Z" transform="translate(-0.14 -11.86)" fill="#f5bca5"/>
    <path d="M487.19,225.53c-.64-3.65.18-7.06,1-10.52a75.62,75.62,0,0,1,3-10.42,29.82,29.82,0,0,1,2.37-4.81c1.18-1.87,2.56-3.66,3-5.92.06-.32.24-.82.69-.66s.48.84.34,1.25a29.6,29.6,0,0,1-2.22,5.29c-2.26,3.87-3.42,8.13-4.53,12.42l-3.24,12.58A1.18,1.18,0,0,1,487.19,225.53Z" transform="translate(-0.14 -11.86)" fill="#f5b49a"/>
    <path d="M443.62,209.91a57.24,57.24,0,0,1,10.43-1.75c3.58-.3,7.14-1,10.72-1.32,3.36-.31,3.42-.17,2.32,2.62-1.17,3-3,5.62-6.25,6.76-.16.06-.26.28-.39.43-2.44-1.52-5.19-2.18-7.9-3s-5.59-1.35-8-3C444.21,210.44,443.92,210.16,443.62,209.91Z" transform="translate(-0.14 -11.86)" fill="#27a9e9"/>
    <path d="M418,205.32a95.48,95.48,0,0,1,1.67-10.52c.05-.24-.05-.68.36-.63s.44.44.36.77a37.36,37.36,0,0,0-.83,5.76,31.55,31.55,0,0,0,.05,6.8,19.91,19.91,0,0,1,.07,3c0,.24,0,.63-.4.62-.18,0-.37-.28-.5-.47a3.81,3.81,0,0,1-.45-1.83A29.81,29.81,0,0,0,418,205.32Z" transform="translate(-0.14 -11.86)" fill="#f5b59a"/>
    <path d="M272.33,181.08a8.08,8.08,0,0,0-2.71-.85c-2-.57-4-1.41-5.93-2.15-.63-.25-1.14-.28-1.55.34-.56.85-1.4,1.56-1.38,2.71-5.48-1.54-11-2.78-16.58-4.11-3.52-.84-6.81-2.2-10.22-3.28-3-1-6.16-.81-9.26-.9-5.64-.15-11.28.47-16.9.2s-11.31.73-17,.78l-5.39.08c-.1-.35.17-.4.39-.5,1.88.29,2.95-.68,3.92-2.19A80.12,80.12,0,0,1,198,161c.21-.24.37-.53.72-.6.58.23.69.85,1,1.27a1.79,1.79,0,0,0,3.15-.19,8.34,8.34,0,0,0,.95-2.31c.58-2.07,1.55-4,1.88-6.16a.91.91,0,0,1,.48-.78,20.78,20.78,0,0,0,3.8-3.26,121.67,121.67,0,0,1,14.11-11.5c2.58-1.74,5-3.67,7.6-5.44.3-.21.65-.43.7-.79.12-.91.77-1.1,1.51-1.27,7.21-1.64,14.36-3.55,21.57-5.22,15.65-3.64,31.23-7.61,46.86-11.37a2.64,2.64,0,0,0,1.24-.67c.45-.29.73,0,1,.29,2.5,2.52,4.95,5.08,7.24,7.8.36.92.25,2,1,2.81a30,30,0,0,1,1.74,7.57c.28,3.48,1,6.88,1.4,10.33a14.49,14.49,0,0,1,.09,3.83c-.42,2.79.37,5.49.38,8.23,0,3.53.23,7.11-.59,10.59-.28,1.19.13,2.29,0,3.43a2.69,2.69,0,0,1-.24,1.4c-1.28,6.14-2.42,12.32-5.07,18.08-2-.82-4.15-.58-6.22-.9-2.62-.39-5.26-.72-7.9-.93a99.1,99.1,0,0,1-11.39-1.75c-3.93-.79-7.92-1.21-11.78-2.33A3.74,3.74,0,0,0,272.33,181.08Z" transform="translate(-0.14 -11.86)" fill="#444"/>
    <path d="M315.64,169a5.89,5.89,0,0,0-.32-2.9,2.32,2.32,0,0,1,.13-1.64,20.24,20.24,0,0,0,.53-3.89c.6-5.62-.65-11.2-.25-16.82.18-2.66-.59-5.3-1-8-.53-3.7-.71-7.47-1.88-11.06-.13-.42-.28-.83-.42-1.24-.12-.06-.13-.17-.18-.28-.34-.86-.24-1.3.87-1.42a4.81,4.81,0,0,0,3.14-1.66c-.77,0-1.2.83-1.94.57-.26-.55.2-.82.49-1.1a108.52,108.52,0,0,1,8.43-7.46c1.91-1.45,3.66-3.09,5.52-4.61.55-.45.61-.86,0-1.33a36.56,36.56,0,0,1-3.85-3c-.53-.51-1.2-.28-1.77-.53.6-1.73,2-2.14,3.23-.94a11.62,11.62,0,0,0,3.42,2.73,2.16,2.16,0,0,1,.85.82.3.3,0,0,0,.21,0,1.71,1.71,0,0,1,1.5,1.47,1.24,1.24,0,0,0,.78,1c2.87,1.38,5.64,3,8.55,4.25.34.15.82.22.71.79-.47.31-.92.06-1.37-.06a28,28,0,0,1-7.37-3,14.21,14.21,0,0,0-2.65-1.09c-.4-.22,0-.56-.14-1-1.46,1.25-2.7,2.62-4,3.92-.25.25-.16.49,0,.74a36,36,0,0,1-3,2.3,6.58,6.58,0,0,0-1.26,1c-.17.25,0,.41.17.55a9.47,9.47,0,0,0,1.79,1c1.72,1.11,3.65,1.82,5.34,3a2,2,0,0,1,.62,1.61,9.49,9.49,0,0,0,.18,2.66c.22,2,.2,4.07.28,6.1q.26,6.63.58,13.27c.16,3.47.26,6.94.63,10.39.11.94.34,1.93-.48,2.72-1.1-.55-2,.21-2.83.62a15,15,0,0,0-3.24,2.4c-.12.11-.21.27-.35.33-2.44,1-4,3.07-5.66,4.93a4.69,4.69,0,0,1-2.12,1.31,1.87,1.87,0,0,0-1.47,2.47Z" transform="translate(-0.14 -11.86)" fill="#f1f1f1"/>
    <path d="M185.92,173.64a.48.48,0,0,0-.48.26,4.44,4.44,0,0,1-1.65.24,4.53,4.53,0,0,0-2.35.8,1.38,1.38,0,0,0-.24,2.33,7.87,7.87,0,0,0,2.31,1.65c-1.13.92-1.34,2.41-2.13,3.53-.18.26-.22.6-.5.8a2.19,2.19,0,0,0-2.5,1.31,12.53,12.53,0,0,0-1.75,4.74,1.94,1.94,0,0,0,.16,1.38c.23.86-.46.82-.93.9s-.68-.16-1,0c-1.39.54-2.09,2.64-1.37,4.24a23,23,0,0,0,2,3.67c-.4-.15-.56,0-.64.42a15.61,15.61,0,0,0-.59,2.79c0,1.64-.47,3.25-.26,4.89a1.43,1.43,0,0,1-1.32,1.75c-1.24.26-2.48.55-3.74.72-4.13.54-8.21,1.42-12.32,2.08-1.36.22-2.75.37-4.11.61-.57.1-.75,0-.87-.6-.6-3-1.09-6.1-1.57-9.15a38.2,38.2,0,0,1,.26-11.78,94.56,94.56,0,0,1,3-13.23,49.29,49.29,0,0,1,3.71-8.41,66.15,66.15,0,0,1,4.68-7.92,48,48,0,0,1,4.8-5.94c2.75-2.77,5.42-5.62,8.42-8.12a1.27,1.27,0,0,0,.47-1.13,40,40,0,0,0,7.16,11.65,11.81,11.81,0,0,0,3.15,2.73,9.25,9.25,0,0,0,7,1c1.46-.44,1.55-1,.51-2.18a5.68,5.68,0,0,1-.35-.48,29.63,29.63,0,0,0,4.57.76c.08.42-.27.47-.51.48-1.11,0-1.69.79-2.31,1.53a79.55,79.55,0,0,0-8.06,11A3.86,3.86,0,0,1,185.92,173.64Z" transform="translate(-0.14 -11.86)" fill="#393939"/>
    <path d="M330.19,121.56a1.51,1.51,0,0,0-.55-1.37c-.11-.38.16-.41.41-.45a2,2,0,0,1,1.16.58,1.93,1.93,0,0,1,.23.85c.29.92,1.27.93,1.88,1.42a25.69,25.69,0,0,0,5.5,2.87c6,2.31,11.78,5.19,17.85,7.32s12.1,4.6,18.33,6.38c2.68.76,5.27,1.87,7.93,2.74,1.31.42,1.29.42,1.7-.94a56,56,0,0,1,4.4-10.22c.78-1.44,1.45-2.94,2.24-4.38.35-.63.26-.89-.5-1-1.82-.24-3.63-.56-5.46-.75-2.18-.24-4.29-.93-6.47-1.18-4.25-1.09-8.53-2.06-12.8-3.07a159,159,0,0,1-16-5.06c-2.07-.73-4.23-1.17-6.28-1.95-.47-.18-1-.24-1.34-.72l-9.69-4.81c-.26-.13-.77-.17-.67-.55.31-1.16-.61-1.5-1.24-2,3-.7,5.38-2.55,7.87-4.17,3.53-2.31,6.82-5,10.11-7.59,1.42-1.14,2.8-2.36,4.14-3.59s3.1-2.5,4.56-3.84c2.88-2.64,5.95-5,9-7.47,4-3.18,8-6.34,11.9-9.56.78-.64.95-.29,1.24.34a24.25,24.25,0,0,0,2.81,5.39c1.89,3.18,3.83,6.35,5.46,9.67a80.76,80.76,0,0,1,4.87,11.66,74,74,0,0,1,2.38,12.6c.58,4.53-.09,9.06-.2,13.58a88,88,0,0,1-.76,9c-.45,3.57-.06,7.17-.47,10.73-.51,4.34-.1,8.7-.25,13a36.41,36.41,0,0,0,1.27,10.39,3,3,0,0,1-.36,2.61c-.32.47-.38.79.34.79a5.81,5.81,0,0,1-2.9-.08c-3.76-.72-7.49-1.59-11.26-2.29-10.2-1.88-20.44-3.6-30.62-5.58-5.36-1-10.66-2.41-16-3.48a4.53,4.53,0,0,1-2.27-.62c.41-2.69-.18-5.34-.29-8q-.5-11.69-1-23.35c0-.4,0-.8,0-1.2C330.12,123.38,330.44,122.45,330.19,121.56Z" transform="translate(-0.14 -11.86)" fill="#444"/>
    <path d="M330.65,105.2a14.4,14.4,0,0,1-3.8-2.73c-1.8-1.88-1.9-1.83-3.63.14a1.27,1.27,0,0,1-.44.69c-2.82,2.68-5.28,5.72-8.14,8.36a6.84,6.84,0,0,1-3.21,2.14.48.48,0,0,1-.34-.35.86.86,0,0,1,.38-.71c3.73-3.49,7.25-7.2,10.88-10.79.38-.37,1.1-.71.41-1.44s-1.45-.88-2.19-.26a9.44,9.44,0,0,1-1.35,1.18c-.37.16-.76.28-1.07-.05a.4.4,0,0,1,.09-.68c.65-.52,1.27-1.08,1.95-1.56.38-.27.89-.64,1.28-.57,2.65.47,3-1.83,3.57-3.28,1.88-4.88,3.44-9.89,5.12-14.85a2.3,2.3,0,0,1,.23-.4,33.43,33.43,0,0,0,5.74-3.54c2.63-1.72,5.09-3.68,7.63-5.54,3.11-2.28,6.39-4.37,9.29-6.89s6.42-4.38,9.44-6.82c2.12-1.71,4.57-2.89,6.75-4.49,2.37-1.75,4.87-1.32,6.95.69,1.15,1.1,2.37,2.13,3.62,3.12a11.88,11.88,0,0,1,3.51,5,1.43,1.43,0,0,1-.41,1.61,34.3,34.3,0,0,1-5.27,4.8c-4.3,3.28-8.49,6.71-12.74,10-3.2,2.5-6.31,5.1-9.4,7.73-4.25,3.61-8.4,7.33-12.77,10.78a112.14,112.14,0,0,1-11.45,8C331,104.71,330.67,104.79,330.65,105.2Z" transform="translate(-0.14 -11.86)" fill="#444"/>
    <path d="M206.3,152.25c-.58,2.14-1.21,4.26-1.93,6.36-.27.78-.52,1.57-.86,2.34-.42.94-.9,1.8-2.08,1.87s-1.78-.75-2.36-1.57a5.08,5.08,0,0,1-.4-.85.27.27,0,0,1,0-.44,16.69,16.69,0,0,1,1.8-.63,1.3,1.3,0,0,0,1.06-1.27,1.53,1.53,0,0,0-.93-1.65c-.94-.38-1.93-.67-2.89-1a18.18,18.18,0,0,1,.23-2.34c.1-.68-.12-.95-.79-1-.44,0-1,.12-1.19-.51,1.34-.25,2.64.27,4,.22a3.28,3.28,0,0,0,1.7-.46c.64-.42,1.28-.94,1.1-1.81a2.47,2.47,0,0,0-1.82-2,1.56,1.56,0,0,1-1.24-.86c1.32-.54,1.63-1.77,1.88-3a1.07,1.07,0,0,0-.95-1.3,13,13,0,0,1-1.71-.53c-.65-.46-1.6-.46-1.95-1.35a1.86,1.86,0,0,1,1.35.38,14.41,14.41,0,0,0,4.08,1.31,1.55,1.55,0,0,0,1.85-1.46c.32-2.32-1.45-3.36-2.84-4.51-2.35-1.94-4.86-3.7-7.3-5.54-.38-.29-.73-.62-1.19-1a6.17,6.17,0,0,0,2.35-2,7,7,0,0,1,5.34-2.62c1.51-.15,3-.07,4.52-.27a22.75,22.75,0,0,0,6.46-2.4c1.51-.7,3.15-1.21,4.27-2.55s2.48-2.46,3.05-3.94a27.63,27.63,0,0,1,3.35-5.69c.35-.52.7-1.09,1.43-1.16l-1.21,1.69a10.6,10.6,0,0,0-1.51,2.12c-1.58,1.39-1.61,3.38-1.83,5.22-.32,2.68-.33,5.39-.54,8.09-.18,2.29-.46,4.58-.69,6.87a.44.44,0,0,1,.13.33,12.63,12.63,0,0,1-.19,2,14.33,14.33,0,0,0-1,1.39,22.37,22.37,0,0,1-3.56,4.33,29.67,29.67,0,0,0-4.32,5.41,1.93,1.93,0,0,0-.41,1.32,7,7,0,0,0-1.53,3.12A2.17,2.17,0,0,1,206.3,152.25Z" transform="translate(-0.14 -11.86)" fill="#f6c8b6"/>
    <path d="M226.21,105.65a24.9,24.9,0,0,1,3.38-4.27c.13.72.7.46,1.12.49s.86,0,1.29,0a23.55,23.55,0,0,0,9.11-2.17c.87-.67,2-.79,2.91-1.32,4-2.32,5.81-4.79,4.3-9.47,1-.44,1.92.07,2.81.49.55.25,1,.64,1.52.94,1.74,2.07,1,6-1.47,7.69a39.91,39.91,0,0,1-8,3.8c-2,.77-3.87,1.7-5.85,2.42A29.36,29.36,0,0,1,227,106.35c-.06,0-.15.07-.16.13s.05.13.08.2c-.18.68-.67.55-1.07.33s-.16-.58,0-.86A1.46,1.46,0,0,0,226.21,105.65Z" transform="translate(-0.14 -11.86)" fill="#393939"/>
    <path d="M230.25,100.65c3.09-4.23,6-8.57,8.88-13a1.83,1.83,0,0,1,.9-.31,35.94,35.94,0,0,1,5.48.44,1.88,1.88,0,0,1,1.13.62c0,.15,0,.35.12.45,1,1,.72,2.22.33,3.4a5.67,5.67,0,0,1-1.93,2.92c-3.6,2.76-7.8,3.84-12.16,4.5A5.73,5.73,0,0,0,230.25,100.65Z" transform="translate(-0.14 -11.86)" fill="#393939"/>
    <path d="M226.21,105.65c0,.11,0,.23,0,.34,0,.29-.54.51-.25.79a.7.7,0,0,0,1-.1c1.56.54,3.18,0,4.93.32a30.36,30.36,0,0,1-8.07,2.07A15.91,15.91,0,0,1,226.21,105.65Z" transform="translate(-0.14 -11.86)" fill="#434343"/>
    <path d="M246.64,88.44a29.61,29.61,0,0,0-7.51-.75l.23-.9a37.92,37.92,0,0,0,5.21.47C245.42,87.28,246.39,87.28,246.64,88.44Z" transform="translate(-0.14 -11.86)" fill="#424242"/>
    <path d="M241.11,99.71c.17.15.11.31-.05.37a29,29,0,0,1-8.3,2,.77.77,0,0,1-.76-.24c1.94-.4,3.87-.85,5.82-1.18C239,100.51,240,99.85,241.11,99.71Z" transform="translate(-0.14 -11.86)" fill="#414141"/>
    <path d="M252.65,90.35c-1.46-.43-2.73-1.43-4.33-1.43-.1-.49-.89-.42-.84-1.13C249.44,88.21,251.34,88.68,252.65,90.35Z" transform="translate(-0.14 -11.86)" fill="#414242"/>
    <path d="M203.46,95c-.09-.25.2-.8-.54-.45s-.82,1.16-1.64,1.12a6.28,6.28,0,0,1,4.1-3.11A5,5,0,0,0,203.46,95Z" transform="translate(-0.14 -11.86)" fill="#464545"/>
    <path d="M217.82,133.28a.17.17,0,0,1,0-.2c.33-.65,1-.76,1.59-.89,6.6-1.39,13.12-3.13,19.68-4.71,4.09-1,8.19-1.89,12.29-2.84.1,0,.19-.13.28-.2a28.51,28.51,0,0,1,7.91-1.92l21.27-5.27c5.93-1.47,11.85-3,17.8-4.4a20.66,20.66,0,0,1,4.42-.91c.62-.16.85.07.7.69a1,1,0,0,1-.89,1c-4.54.84-9,2.16-13.46,3.24-7.89,1.9-15.75,3.91-23.65,5.79-8.33,2-16.66,3.89-24.95,6-2.32.59-4.66,1.06-7,1.62-.5.12-1.19.1-1,1,.07.41-.44.63-.77.86-4.75,3.35-9.52,6.68-14.12,10.23-1.47,1.15-2.89,2.38-4.27,3.63-2.25,2-4.45,4.12-6.69,6.17-.15.13-.39.82-.69.06.59-1.57.55-3.42,2.08-4.56a6.77,6.77,0,0,1,1.87-2.25c5.76-5.31,12.32-9.53,18.87-13.76a.86.86,0,0,1,.3-.12c-2.67.82-5.42,1.37-8.1,2.16-.81.24-1.63.43-2.44.64C217.82,134.63,217.7,134.48,217.82,133.28Z" transform="translate(-0.14 -11.86)" fill="#252a2a"/>
    <path d="M303.78,112.63c-.07-.39-.24-.69-.7-.69-.63-.58-1.5-.87-2-1.64,0-.8.83,0,1-.5,1-1,2.43-1.31,3.63-2,.92-.53,1.29-1.12.71-2.1.27-.8.85-.26,1.28-.25.84,0,1.68.54,2.54,0a2.56,2.56,0,0,0,2.15-.66,41,41,0,0,0,4.82-3.55,2.24,2.24,0,0,1,1-.57c-.06,1.44.63.52,1.09.35.29.59-.27.75-.55,1a31.05,31.05,0,0,1-6,4.19,4.1,4.1,0,0,0-1.53,1.11.82.82,0,0,1-.62.33c-2.46.28-4.62,1.46-6.88,2.35-.89.35-.58.74,0,1.17,3.53,2.84,6.62,6.15,9.87,9.28a.7.7,0,0,1,.29.49c-1,.85-1.35.82-2.21-.14q-3.74-3.93-7.44-7.87A.94.94,0,0,0,303.78,112.63Z" transform="translate(-0.14 -11.86)" fill="#f1f1f1"/>
    <path d="M259.59,122.52l-7.91,1.92s-.09,0-.11,0a1,1,0,0,1-.15-.14,26.61,26.61,0,0,1,5.9-1.73C258.06,122.48,258.83,121.89,259.59,122.52Z" transform="translate(-0.14 -11.86)" fill="#414141"/>
    <path d="M310.24,105.48c.32.53-.09.51-.41.51a9.67,9.67,0,0,1-2.82-.37c-.21-.06-.44-.24-.59.09L305,105c.58-.85,1.26-.77,2.1-.33A7.73,7.73,0,0,0,310.24,105.48Z" transform="translate(-0.14 -11.86)" fill="#5b5b5b"/>
    <path d="M302.08,109.8c0,.83-.84,0-1,.5C301,109.8,301,109.8,302.08,109.8Z" transform="translate(-0.14 -11.86)" fill="#c9c9c9"/>
    <path d="M198.64,160l0,.44a9.31,9.31,0,0,1-2.15,2.68,87.67,87.67,0,0,0-7.72,10,1.12,1.12,0,0,1-1.09.57c-.59,0-1.19,0-1.79,0a47.35,47.35,0,0,1,5.56-8.3c.83-1.07,1.81-2,2.58-3.13a4.46,4.46,0,0,1,3.38-2.25Z" transform="translate(-0.14 -11.86)" fill="#252a2a"/>
    <path d="M195.93,151.59a2.55,2.55,0,0,0,1.63.19c.81-.05.94.25.74,1a5.43,5.43,0,0,0-.22,2.23c0,.35-.14.4-.4.42a50.84,50.84,0,0,1-9.83-4.52,11,11,0,0,1-1.93-1.59c-.28-.25-.54-.56-.31-.94s.64-.17.95,0A48.33,48.33,0,0,0,192.8,151,9.87,9.87,0,0,0,195.93,151.59Z" transform="translate(-0.14 -11.86)" fill="#3a3939"/>
    <path d="M199,141.69c.72.18,1.46.34,2.18.55s1,1.38.63,2.15-.71,1.25-1,1.91-.66.63-1.17.39c-1.75-1.3-3.86-2-5.64-3.2a10.19,10.19,0,0,0-1.11-.85c-.23-.81.47-.83.89-.94C195.49,141.27,197.22,140.84,199,141.69Z" transform="translate(-0.14 -11.86)" fill="#393939"/>
    <path d="M199,141.69a10.89,10.89,0,0,0-5,.31c-.37.08-.92.05-1,.64a11,11,0,0,1-2.36-1.89c1.22-.88,2.73-.75,4.06-1.24l2.32,1Z" transform="translate(-0.14 -11.86)" fill="#414141"/>
    <path d="M189.76,140a5.32,5.32,0,0,1-1.85-1.77,1.57,1.57,0,0,1,.28-1.87c.54-.58.93.08,1.33.29,1.39.77,2.75,1.58,4.13,2.37C192.41,139.62,191,139.57,189.76,140Z" transform="translate(-0.14 -11.86)" fill="#3b3a3a"/>
    <path d="M189.76,140c.68-.95,1.79-.68,2.72-.95a4.55,4.55,0,0,1,1.17,0,1.7,1.7,0,0,1,.93.45c-.24.68-.92.55-1.41.69-.86.26-1.76.37-2.65.55A1.55,1.55,0,0,1,189.76,140Z" transform="translate(-0.14 -11.86)" fill="#292d2d"/>
    <path d="M185,179.42a104.08,104.08,0,0,0,14.55,1c4.42.08,7.9,1.92,10,6,1.56,3,.63,5.66-2.46,7.07-3.43,1.56-6.7,1.06-10.09-.19a36.18,36.18,0,0,1-12.71-7.9,25.53,25.53,0,0,0-2.18-1.66,9.85,9.85,0,0,0,1.86-2.9C184.2,180.32,184.32,179.68,185,179.42Z" transform="translate(-0.14 -11.86)" fill="#444"/>
    <path d="M216.15,203.09c-2.94.34-5-1-7.05-2.54-2.21-1.68-4.28-3.6-7.08-4.32l-.35-.09c-.94-.23-2-.53-2.7.27s-.35,1.85.07,2.71a21.19,21.19,0,0,0,5.59,6.92,46.89,46.89,0,0,0,5.76,3.84c.24.14.5.26.56.6-.52.3-.92-.06-1.31-.27a26.28,26.28,0,0,1-10-8.82,20.77,20.77,0,0,1-1.44-2.61,2.76,2.76,0,0,1,.28-3.15,3.14,3.14,0,0,1,3.13-.48,20,20,0,0,1,7.6,4.31c1.93,1.6,3.91,3,6.5,3.28C215.79,202.75,215.87,202.87,216.15,203.09Z" transform="translate(-0.14 -11.86)" fill="#f6baa2"/>
    <path d="M216.66,187.76a38.59,38.59,0,0,0,6,2.25,16.69,16.69,0,0,0,8.66-.58c2.37-.69,3.93-2.31,5.65-3.82a4.12,4.12,0,0,1,1.85-1.25c0,1.35-3.17,4.68-5,5.45C225.65,193.23,219.5,190.37,216.66,187.76Z" transform="translate(-0.14 -11.86)" fill="#f5b8a0"/>
    <path d="M222.57,202.53c1.27-2.55,3.4-4.23,5.48-6a14.7,14.7,0,0,1,5.89-3.44c2.19-.56,4.42-.71,6.47.68a13.22,13.22,0,0,0-5.87.3,11.74,11.74,0,0,0-5,2.52C227.24,198.59,224.62,200.23,222.57,202.53Z" transform="translate(-0.14 -11.86)" fill="#f6b9a1"/>
    <path d="M197.19,210.78c-1.75-1.42-2.79-3.41-4.18-5.13a15.18,15.18,0,0,1-2.59-5.46,3,3,0,0,1,1.09-3.39,2.18,2.18,0,0,1,2.67.18,8.77,8.77,0,0,1,2.76,2.07,11.53,11.53,0,0,1-2.79-1.38c-.71-.35-1.49-.9-2.22-.3a2.68,2.68,0,0,0-.88,2.89,18.39,18.39,0,0,0,3.31,6.41C195.31,208,196.25,209.41,197.19,210.78Z" transform="translate(-0.14 -11.86)" fill="#f5bca5"/>
    <path d="M174.85,191.62c.39-.34.9-.26,1.36-.35s.6-.18.58-.59c.36.32.33,1,1.06,1,2.35-.3,4.07,1,5.88,2.21a27.36,27.36,0,0,1,5.09,4.94C184.81,195.1,180.39,192.25,174.85,191.62Z" transform="translate(-0.14 -11.86)" fill="#f5baa2"/>
    <path d="M185,179.42c-.63,1.23-1.31,2.43-1.88,3.69a.94.94,0,0,1-1,.62l-1.18-.48c.24-1.5,1.29-2.64,1.8-4,.13-.34.52-.29.83-.31Z" transform="translate(-0.14 -11.86)" fill="#262a2a"/>
    <path d="M247.59,198a5.36,5.36,0,0,1-.44,2.91c-.13.25-.27.56-.6.46s-.42-.43-.3-.78a10.56,10.56,0,0,0,.18-5.41c0-.19-.06-.43.15-.52s.42.12.53.33A5.3,5.3,0,0,1,247.59,198Z" transform="translate(-0.14 -11.86)" fill="#f5b9a1"/>
    <path d="M260.76,181.12c.75-.19.77-.93,1.09-1.44s.59-1.23,1.21-1.16.56.89.64,1.44a1.13,1.13,0,0,0,.22.4c.15.65-.62,1-.48,1.67Z" transform="translate(-0.14 -11.86)" fill="#454544"/>
    <path d="M196.93,178.5a1.46,1.46,0,0,1-.26,0,2,2,0,0,1-.57-2.05c.05-.2.33-.38.45-.23A3.24,3.24,0,0,1,196.93,178.5Z" transform="translate(-0.14 -11.86)" fill="#f5bba4"/>
    <path d="M239.6,162.88a13.82,13.82,0,0,1,4.57,1.29c3.15,1.63,6.49,2.83,9.67,4.44s6.42,3.19,9.69,4.66a71.86,71.86,0,0,1,8.08,4.41c1.84,1.14,3.75,2.12,5.65,3.12.32.17.94.23.72.76s-.69.17-1,0c-4.29-1.76-8.17-4.33-12.32-6.36-1.5-.73-3.12-1.25-4.57-2.07-2.89-1.61-6.12-2.53-8.88-4.4a19.16,19.16,0,0,0-3.26-1.48c-2.55-1.13-5-2.4-7.55-3.61C240.05,163.5,239.69,163.38,239.6,162.88Z" transform="translate(-0.14 -11.86)" fill="#252a2a"/>
    <path d="M311.68,120.85a1.45,1.45,0,0,0,2.16,0,.51.51,0,0,1,.48-.25c.89-.21,1.53-1,2.45-1.15-.26,1.43-2.27,2.67-4.53,2.77.07.42.14.84.22,1.25C311.73,122.73,311.93,121.72,311.68,120.85Z" transform="translate(-0.14 -11.86)" fill="#4d4d4d"/>
    <path d="M342.46,112.65q5.88,1.65,11.62,3.74a175.68,175.68,0,0,0,21.35,5.88c1.17.26,2.31.61,3.46.91,3.55.61,6.95,1.89,10.56,2.19,2.1.18,2.26.48,1.31,2.29a77.12,77.12,0,0,0-5.83,12.82c-.62,2-.65,2-2.7,1.3-4.86-1.67-9.78-3.16-14.6-4.93A123.17,123.17,0,0,1,356,132.46c-4.92-2.39-10.16-4.05-15-6.7-1-.53-2.23-.44-2.93-1.49a13.51,13.51,0,0,0-3.06-1.54c-1.36-.69-2.9-1.09-3.95-2.32l-1-.52c-1.8-.84-3.61-1.68-5.35-2.64-.64-.44-1.4-.63-2-1.08a.84.84,0,0,1-.5-.64,21,21,0,0,1,4.55-3.35c1.18-1.46,2.25-3,4-3.83a4.5,4.5,0,0,1,2.37.7,32.08,32.08,0,0,0,7.87,3.32A3.1,3.1,0,0,0,342.46,112.65Z" transform="translate(-0.14 -11.86)" fill="#f5f5f5"/>
    <path d="M314.32,120.59l-.48.25c-.55,0-.81-.46-1.14-.79a105.16,105.16,0,0,0-9.6-8.92c-.57-.43-.43-1,.32-1.31a46.67,46.67,0,0,1,6.14-2.25c1.75-.4,2.89-1.63,4.38-2.36a16,16,0,0,0,4.33-3.1c.35-.36,1-.44,1.06-1.06.3-.31.59-.64.91-.94a2.11,2.11,0,0,1,3.29.66c.2.44-.22.55-.42.74-4,3.89-7.71,8.15-11.91,11.88a1.34,1.34,0,0,1-.34.53,2.67,2.67,0,0,1,.63-.25,19,19,0,0,0,4.33-3.56c2.44-2.52,4.8-5.13,7.4-7.5a1.4,1.4,0,0,1,1.78.22c1.42,1.14,2.87,2.26,4.32,3.37.55.42.53.77,0,1.21-2,1.64-3.87,3.41-5.94,5a72.85,72.85,0,0,0-5.56,4.83A35,35,0,0,0,314.32,120.59Z" transform="translate(-0.14 -11.86)" fill="#f5f5f5"/>
    <path d="M330.84,108.35c-1.55,1.06-2.55,2.71-4,3.83-.39,0-1.06-.05-.48-.55,1.45-1.26,2.49-2.92,4.06-4,.31-.23.62-.53,1.08-.31C331.58,107.82,331,108,330.84,108.35Z" transform="translate(-0.14 -11.86)" fill="#515151"/>
    <path d="M324.81,117c1.39.8,3,1.2,4.31,2.11.34.24.8.34,1,.77a.49.49,0,0,0-.48.3c-1.72-1-3.61-1.75-5.28-2.89C324.32,116.9,324.47,116.82,324.81,117Z" transform="translate(-0.14 -11.86)" fill="#555"/>
    <path d="M324.81,117a.49.49,0,0,0-.45.29,6.7,6.7,0,0,1-1.87-1c0-.23,0-.34.28-.29A7.53,7.53,0,0,1,324.81,117Z" transform="translate(-0.14 -11.86)" fill="#686868"/>
    <path d="M330.19,121.56a6.17,6.17,0,0,1,.18,2.7A7.66,7.66,0,0,1,330.19,121.56Z" transform="translate(-0.14 -11.86)" fill="#555"/>
    <path d="M322.77,116l-.28.29c-.24-.19-.76-.29-.25-.74Z" transform="translate(-0.14 -11.86)" fill="#9c9c9c"/>
    <path d="M338.32,124c.3.23.33.64.8.8,3.93,1.3,7.42,3.62,11.35,4.91,3.37,1.11,6.3,3.24,9.7,4.25,5.1,1.51,9.92,3.81,15.06,5.26a74,74,0,0,1,7.55,2.6c1.07.43,1.56.27,1.91-1a65.43,65.43,0,0,1,6.08-13.49c.52-.94.63-1.48-.72-1.53-3.62-.12-6.9-1.78-10.44-2.28-.27,0-.58,0-.72-.34,3.86.66,7.7,1.36,11.59,1.83l1.72.16c-1.47,2.91-2.93,5.74-4.35,8.59a40.12,40.12,0,0,0-3.08,7.92c-.24.93-.62,1-1.42.7-3.84-1.34-7.68-2.74-11.56-3.95-7.63-2.37-15.09-5.22-22.48-8.24-4.39-1.79-8.74-3.69-13.14-5.47a20.73,20.73,0,0,1-3.13-2c-.06-.22.07-.31.24-.39,1.27,0,2.2,1,3.37,1.29C337.2,123.8,337.69,124.23,338.32,124Z" transform="translate(-0.14 -11.86)" fill="#f0f0f0"/>
    <path d="M338.32,124c0,.82-.52.48-.89.32-1.38-.58-2.75-1.19-4.12-1.78a5.7,5.7,0,0,1-2.18-1.17l0-.92C333.38,121.86,336,122.62,338.32,124Z" transform="translate(-0.14 -11.86)" fill="#515151"/>
    <path d="M331.13,121.33a6.07,6.07,0,0,1,2.18,1.17l-.27.25C332.48,122.18,331.34,122.38,331.13,121.33Z" transform="translate(-0.14 -11.86)" fill="#d2d2d2"/>
    <path d="M311.49,113.67l-1.28,1-.19-.19,1.18-1.07Z" transform="translate(-0.14 -11.86)" fill="#5c5c5c"/>
    <path d="M217.82,133.28c-.06.89.25,1,1.13.78,3.62-1,7.27-1.93,11-2.75-7.5,5.08-15.17,9.89-21.56,16.38-.44-.41,0-.71.13-1a27.68,27.68,0,0,1,4.47-5.74,33.46,33.46,0,0,0,3.65-4.24c.34-.41.84-.69.93-1.28S217.39,133.94,217.82,133.28Z" transform="translate(-0.14 -11.86)" fill="#393939"/>
    <path d="M217.56,135.4c.47,1-.37,1-.93,1.28C216.81,136.15,217,135.62,217.56,135.4Z" transform="translate(-0.14 -11.86)" fill="#4b4949"/>
  </g>
</svg>
