<svg xmlns="http://www.w3.org/2000/svg" viewBox="0 0 614.85 564.42">
  <title>reading</title>
  <g>
    <path d="M432.88,580.2H13.39V15.78H628.24V317.64a.47.47,0,0,1-.67-.09c-.77-1.81-.66-3.78-.78-5.65a188.09,188.09,0,0,0-3-22.56,378.42,378.42,0,0,0-10.4-43.62,464.31,464.31,0,0,0-18-48.33c-3.11-7.11-6.91-13.89-10.58-20.72-5.67-10.56-11.32-21.15-17.39-31.49-3.52-6-8.17-11.26-11.79-17.21a99.2,99.2,0,0,0-10-14c-6.07-6.9-11.75-14.17-18.22-20.69-5.61-5.67-11.64-10.94-17.5-16.38-4.45-4.13-8.57-8.63-13.6-12.1-8.61-6-17.24-11.9-25.58-18.24-6.71-5.11-14.6-8-22.52-10.51a379.75,379.75,0,0,0-50.93-12.55c-7.44-1.28-14.93-1.5-22.39-2.24A325.71,325.71,0,0,0,336.1,19.3c-8.53.17-17.05.89-25.57,1.55-11.51.89-22.13,4.37-32.24,9.42A133,133,0,0,0,252.4,47.12c-5.72,4.76-10.58,10.46-16.28,15.23C224.59,72,216.23,84.28,208.54,96.88s-14.7,25.41-20,39.26c-6.83,17.83-13.86,35.61-21.44,53.14-3.65,8.43-7.28,16.91-11.86,24.89-3.46,6-8.12,11.3-11.8,17.2-5,7.95-11.9,13.95-19,19.83-2.83,2.35-5.54,4.84-8.28,7.29-5.77,5.16-12.45,9-19.26,12.51a96.45,96.45,0,0,0-11.11,6.64c-9.68,6.82-19.79,13-29.39,19.93-10.35,7.46-18,17.4-25.3,27.66-3.42,4.85-5,10.69-7.44,16.09-4.85,10.87-7.19,22.35-8.26,34.11A136.64,136.64,0,0,0,18,417.15c1.21,5.58,4.2,10.33,6.68,15.34,5.11,10.3,12.82,18.65,20.1,27.37,7.94,9.52,18.12,15.81,29,21.21A103,103,0,0,1,85,487.58c9,6,18.83,9.79,29.17,12.53s21,4.11,31.69,5.12c14.88,1.4,29.78,2.06,44.72,2.48,14.55.42,29.1.23,43.64.29a130.1,130.1,0,0,1,35.72,5.21c14.52,4.21,28.71,9.45,42.85,14.82a87.26,87.26,0,0,1,21.1,11.76A132.3,132.3,0,0,0,362,556.17a150.71,150.71,0,0,1,16.48,8.35c12.63,7.14,26.26,11.22,40.6,13.17,4,.54,7.95.77,11.9,1.37a4,4,0,0,1,1.83.47A.47.47,0,0,1,432.88,580.2Z" transform="translate(-13.39 -15.78)" fill="#fff"/>
    <path d="M628.24,354.6V580.2H457.84a.48.48,0,0,1,.08-.67c2.25-1,4.69-.92,7.05-1.22a109.86,109.86,0,0,0,41.87-14.42c7.59-4.44,15.58-8.15,23.33-12.28A76.9,76.9,0,0,0,548,538.73c5.49-5.39,11.63-10,17.31-15.14a65,65,0,0,0,9.48-11.08c3.44-4.92,7.17-9.61,10.88-14.32,4.54-5.75,7.82-12.28,11.07-18.76,10.59-21.15,19.21-43.05,23.81-66.36a315.27,315.27,0,0,0,5.55-37.19c.46-6.2.95-12.41,1.06-18.64a4.55,4.55,0,0,1,.43-2.56A.48.48,0,0,1,628.24,354.6Z" transform="translate(-13.39 -15.78)" fill="#fff"/>
    <path d="M628.24,321.48v19.68a.55.55,0,0,1-.77-.25,5.12,5.12,0,0,1-.45-2.56q0-7,0-14.06a5.22,5.22,0,0,1,.44-2.56A.56.56,0,0,1,628.24,321.48Z" transform="translate(-13.39 -15.78)" fill="#ade3fe"/>
    <path d="M454,580.2H439.6a.56.56,0,0,1,.24-.77,44.51,44.51,0,0,1,13.92,0A.56.56,0,0,1,454,580.2Z" transform="translate(-13.39 -15.78)" fill="#68ccfe"/>
    <path d="M628.24,354.6h-.42c-1.42-2.75-.86-5.58-.35-8.41a.56.56,0,0,1,.77-.24Z" transform="translate(-13.39 -15.78)" fill="#ebf8ff"/>
    <path d="M628.24,346l-.2,0h-.2a3.78,3.78,0,0,1,0-4.8l.4,0Z" transform="translate(-13.39 -15.78)" fill="#c9edff"/>
    <path d="M439.56,579.78c0,.14,0,.28,0,.42h-4.32a.53.53,0,0,1,.19-.74C436.88,578.94,438.27,578.71,439.56,579.78Z" transform="translate(-13.39 -15.78)" fill="#9bddfe"/>
    <path d="M454,580.2c0-.14,0-.28.05-.42a2.81,2.81,0,0,1,3.82,0,3.25,3.25,0,0,0,0,.44Z" transform="translate(-13.39 -15.78)" fill="#a9e2fe"/>
    <path d="M628.24,321.48a1.8,1.8,0,0,0-.4,0,2.74,2.74,0,0,1,0-3.82,2.81,2.81,0,0,1,.41,0Z" transform="translate(-13.39 -15.78)" fill="#e1f5ff"/>
    <path d="M435.26,579.78c0,.14,0,.28,0,.42h-2.4c0-.14,0-.28,0-.43A1.57,1.57,0,0,1,435.26,579.78Z" transform="translate(-13.39 -15.78)" fill="#c2ebfe"/>
    <path d="M435.26,579.78h-2.4c-12.07-.88-24-2.62-35.57-6.25-7.36-2.3-14.17-5.86-21-9.46s-13.32-7-20.25-9.89a94.59,94.59,0,0,1-19.89-12,113.34,113.34,0,0,0-32.37-16.92c-10.91-3.65-21.65-7.8-32.69-11.08a144,144,0,0,0-26.56-5.08c-9.74-1-19.5-.53-29.25-.57-12.16-.05-24.32,0-36.47-.4-8.87-.28-17.72-.87-26.56-1.67-6.61-.6-13.21-1.21-19.79-2.09a135.13,135.13,0,0,1-35.77-9.58A87.17,87.17,0,0,1,85,488.3a146.2,146.2,0,0,0-15.65-8.86,77.29,77.29,0,0,1-26.54-20.91c-2.71-3.26-5.49-6.46-8.23-9.7-5.21-6.15-8.86-13.27-12.68-20.31a43.59,43.59,0,0,1-4.66-12c-.74-3.68-1.29-7.39-1.91-11.1-1.51-9-1.44-18.2-.85-27.28.86-13,3.39-25.66,8.85-37.6a12.74,12.74,0,0,0,.56-1.32c4.82-14.58,14.6-25.73,25.13-36.35,4.14-4.17,9-7.4,13.89-10.63,7.26-4.81,14.58-9.56,21.7-14.59a88,88,0,0,1,12.12-7.27,97,97,0,0,0,24.1-16.83c2.62-2.46,5.39-4.77,8.18-7a66.78,66.78,0,0,0,14.29-16.07c2.4-3.78,5-7.44,7.72-11,4.08-5.31,6.67-11.44,9.61-17.39,6.47-13.14,11.26-27,17.24-40.34,2.44-5.45,4-11.3,6.34-16.81,3-7.15,6-14.3,8.88-21.5a72.58,72.58,0,0,1,5.33-10.19c2.16-3.56,4.29-7.13,6.19-10.83,5.77-11.24,13.69-21,21.33-31,2.63-3.42,6.05-6.15,9.22-9.09,5-4.67,9.94-9.51,15-14.14,6.6-6,14.21-10.62,21.82-15.19a100.69,100.69,0,0,1,29.53-11.7c3.45-.79,7-.61,10.48-1.15,7.45-1.16,15-1.06,22.47-1.47a184.76,184.76,0,0,1,21.57.6c4.55.28,9.12.07,13.65.74,7.12,1.05,14.34,1.07,21.49,1.9,5.8.67,11.45,2.22,17.21,3.11a158.35,158.35,0,0,1,25.12,6.2,32.87,32.87,0,0,0,6.05,1.43,17.42,17.42,0,0,1,3.94,1c4.2,1.55,8.4,3.09,12.62,4.59a62.84,62.84,0,0,1,18,10c5.91,4.66,12.1,8.91,18.36,13.08a97.18,97.18,0,0,1,14,11.32q9.26,9.06,18.9,17.72a91.22,91.22,0,0,1,7.1,7.48c4.74,5.42,9.42,10.89,14.15,16.31a87.94,87.94,0,0,1,8.69,12.05,116,116,0,0,0,6.82,10.15c4.8,6.24,8.6,13.07,12.31,20,5.74,10.71,11.66,21.32,17.29,32.09,4.5,8.6,7.9,17.65,11.57,26.59,2.22,5.4,4.25,10.87,6,16.45,2.12,7,5.06,13.65,6.79,20.73,3.59,14.66,7.36,29.29,9.71,44.23a201.17,201.17,0,0,1,2.14,21.22v23.55a30.77,30.77,0,0,0,0,4.8q0,4.31,0,8.63c-.18,5.91-.44,11.81-.89,17.71A310.21,310.21,0,0,1,623,403.44a292.09,292.09,0,0,1-8.55,35.62c-1.74,5.58-4.42,10.79-6.35,16.29-4.57,13-11,25.18-17.79,37.12a51.25,51.25,0,0,1-4.61,6.72c-4.07,5-7.94,10.22-11.7,15.5a65.47,65.47,0,0,1-13.49,13.87,103.72,103.72,0,0,0-10,8.63,88.37,88.37,0,0,1-22.44,16.24c-9.82,5-19.55,10.22-29.29,15.38-9.29,4.92-19.27,7.63-29.54,9.46q-5.67,1-11.4,1.49l-3.82,0H435.26Z" transform="translate(-13.39 -15.78)" fill="#24b5fd"/>
    <path d="M410.3,400.16c.2.26.43.5.79.44,4.46-.71,8.93-1.41,13.39-2.17,1.8-.31,3.64-.28,5.46-.5a39.46,39.46,0,0,1,7.84-.63,10.68,10.68,0,0,0,3.8-.35c1.83-.51,3.67.2,5.43.51,2.28.4,4.58.38,6.86.74a70.81,70.81,0,0,1,16.56,4.41,50.08,50.08,0,0,1,12.15,7.09c7.83,6.27,13.47,14,15.46,24,.28,1.4.44,2.83.58,4.25a9.8,9.8,0,0,1-1.11,5.79,42.05,42.05,0,0,1-6.21,8.74,58.06,58.06,0,0,1-17.73,12.83,56.61,56.61,0,0,1-14.07,4.5c-3.83.67-7.62,1.63-11.47,2.16-3,.41-5.94,1-9,1.24-3.71.24-7.4.86-11.11,1.31a4.25,4.25,0,0,1-.71.06c-5-.3-10,.56-15.06.53-19.6-.09-39.2.05-58.8-.13a103.22,103.22,0,0,1-10.93-.73,44.76,44.76,0,0,0-7.13-.62,33.88,33.88,0,0,1-5.22-.57c-4.57-.44-9.11-1.36-13.69-1.74s-9-1.18-13.48-1.64c-3.3-.33-6.63-.62-9.92-1.24a45.31,45.31,0,0,0-5.46-.43c-2.7-.18-5.37-.64-8.09-.67-2.53,0-5-.47-7.58-.74a6.28,6.28,0,0,0-.94-.14c-3.52.22-7-.43-10.5-.63-3-.17-6.05,0-9-.75a5.11,5.11,0,0,0-1-.08c-5.74-.21-11.47-.73-17.22-.51a8.53,8.53,0,0,1-3.32-.32,2.74,2.74,0,0,0-1.65-.08,20,20,0,0,1-6.67.38,135.35,135.35,0,0,0-14.1.6c-3.55.22-7.07,1-10.6,1.52-2.36.34-4.75.5-7.09.88-3.75.61-7.49.28-11.23.4a82.69,82.69,0,0,1-16.84-1.57c-4.46-.76-8.92-1.54-13.33-2.57a77,77,0,0,1-13.95-4.94c-5.92-2.66-11.66-5.72-16.5-10.06-4.52-4.05-8.74-8.46-12.9-12.88a29.93,29.93,0,0,1-3.46-4.26,17.15,17.15,0,0,1-2.75-8.07,11,11,0,0,1,2.76-7.69,16.3,16.3,0,0,1,10.63-5.91c3-.46,5.94-1.65,9-1a65.43,65.43,0,0,0,7.34.75,101.88,101.88,0,0,1,13.58,2.55,3.81,3.81,0,0,1,.83.42,2.82,2.82,0,0,1-2.49,1.16A22.67,22.67,0,0,0,135.6,415a10.39,10.39,0,0,0-6.75,13.4,18.1,18.1,0,0,0,13.41,12.47,92.24,92.24,0,0,0,17.28,2.44c9.4.48,18.81,1.08,28.21.82,6.6-.18,13.24-.84,19.33-3.89.45-.18.93-.3,1.36-.52l.6-.36c2.39-1.65,5.29-1.9,7.92-2.86,2,1.08,3.94.71,5.92-.22a29.1,29.1,0,0,1,7.51-2.39,39.45,39.45,0,0,0,9.42-3.11,18.29,18.29,0,0,1,3.37-1.13,2.86,2.86,0,0,1,1.09,0c9.63,3.66,19.32,7.18,28.86,11.09,1.59.65,2.88.76,4.11-.52a2.48,2.48,0,0,1,1.11-.1c1.89.53,3.56,1.34,4.36,3.3a10.91,10.91,0,0,0,7.63,4.34c4.35.53,8.53,2.16,12.88,2.79,9.59,1.39,18.91,3.86,28.27,6.26,5.77,1.48,11.32.69,15.77-3.82,2.62-2.66,3.91-5.79,3.08-9.6-.16-.73-.6-1.55.25-2.2,2.49-.67,5-.19,7.54-.33a11.11,11.11,0,0,0,2.82-.21,91.62,91.62,0,0,0,28-7.24,26.49,26.49,0,0,0,6.57-3.89c5.31-4.39,9.86-9.33,11.67-16.25.79-3,.88-6.17,1.55-9.21a15.25,15.25,0,0,1,.91-3.71A.53.53,0,0,1,410.3,400.16Z" transform="translate(-13.39 -15.78)" fill="#2aa0da"/>
    <path d="M230.34,434.4a46.24,46.24,0,0,0-9,3.1,3.39,3.39,0,0,1-4.28-.77,1.68,1.68,0,0,1-1-.3,141.74,141.74,0,0,1-10.94-12c-1.19-1.4-2.47-2.71-3.75-4a2.57,2.57,0,0,1-.79-1c-.5-1.95-2.37-2.93-3.27-4.63.17-.81,1-.73,1.5-.92,2.31-.87,4-2.81,6.49-3.42.4-.1.37-.65.44-1a1.24,1.24,0,0,1,.57-.32c4.74-2,9.19-4.58,13.81-6.82,17.74-9.87,35.52-19.67,52.78-30.4,11.53-7.16,23.36-13.87,35.33-20.31.28-.14.58-.27.87-.4a5.52,5.52,0,0,1,.55-.26l.8-.41.52-.28c.88-.15.64-1.08,1.06-1.56,3.7-2.59,8-4,11.94-6.13,6.8-3.69,13.48-7.65,20.89-10.15a36.42,36.42,0,0,1,10.3-1.92,102.9,102.9,0,0,1,30.59,3.72A20.72,20.72,0,0,1,398,342.78c6.7,9.59,9.65,20.42,11.09,31.81.92,7.39.74,14.83,1.2,22.24a7.16,7.16,0,0,1-.22,1.9c-.06.52.12,1.07-.2,1.56-1,6.66-1.37,13.49-4.73,19.6a12.85,12.85,0,0,1-1.59,2.65A58.7,58.7,0,0,1,393,432.18a9,9,0,0,1-1.47.78c-8.65,3.78-17.54,6.75-26.95,7.93-1,.13-2.06.1-3.1.15-3.64.49-7.28,0-10.92,0-1.19.19-1.44-.86-1.89-1.52a13.78,13.78,0,0,0-7.48-5.25c-6-2-12.26-2.65-18.53-3.45A117.59,117.59,0,0,1,296.52,425a16.73,16.73,0,0,0-2.11-.41,84.85,84.85,0,0,0-11.15-5.91c-.79-.34-1.67-.64-1.82-1.7.18-1.09,1.11-1.19,1.92-1.51,8.1-3.09,16.21-6.16,24.25-9.4.47-.08.92-.27,1.39-.33a2,2,0,0,1,.69.06c3.59,2.12,6.41,5.21,9.59,7.83,4.84,4,9.91,7.72,14.59,11.92a7.69,7.69,0,0,1,.88,2c-1.88-5.69-4.12-11.17-4.71-17.1-.15-2,1-3.27,2.45-4.38,8.49-6.72,16-14.55,24.26-21.51a10.61,10.61,0,0,0,2.21-2.47c-1.51.48-2.57,1.72-4,2.29-1.61.86-3.17,1.82-4.77,2.71l-.54.39a5.17,5.17,0,0,1-.59.36c-5.24,2.74-10.65,5.12-16,7.57-10.54,5-21.43,9.12-32.28,13.35-8.16,3.19-16.34,6.32-24.57,9.33-5.15,1.92-10.34,3.74-15.52,5.58-3.9,1.07-7.58,2.81-11.47,3.93a10.18,10.18,0,0,0-1,.36l-.63.28a30.28,30.28,0,0,1-5.22,1.77C238.4,431.58,234.38,433,230.34,434.4Z" transform="translate(-13.39 -15.78)" fill="#444"/>
    <path d="M460.82,219.68c2.26,2.52,3.17,5.7,4.16,8.8a112.24,112.24,0,0,1,3.16,12.28c1.29,6.5,2.85,12.94,4.25,19.41a71,71,0,0,1,1.27,10c-.36,2.63.61,5.21.27,7.84a.76.76,0,0,1-.52.54c-4.35.9-8.69,1.89-13.05,2.76-6.94,1.12-13.51,3.56-20.17,5.7-1.53.36-3,.84-3.82,2.35-.5.27-.86,0-1.19-.32a5,5,0,0,1-.57-1.21,19.52,19.52,0,0,0-.44-2.28,2.51,2.51,0,0,1-.08-.67,3,3,0,0,0-.11-1c-.15-.95-.53-1.84-.61-2.81,0-1.87-.54-3.67-.67-5.53a3.06,3.06,0,0,1-.29-1.4c.17-.85-.42-1.69-.23-2.22.2,1,.11,2.33.46,3.63a3.17,3.17,0,0,1,.24,1.39c.09,1.69.57,3.33.59,5a20.29,20.29,0,0,1,.49,2,2.72,2.72,0,0,1,.11,1,3.45,3.45,0,0,0,.05.64,11.88,11.88,0,0,1,.44,2.15,4.62,4.62,0,0,0,.56,1.4c.33.6,1,.69,1.52,1a1.41,1.41,0,0,1,.4,1.24,12.43,12.43,0,0,0-.18,2.79c0,.6,0,1.2,0,1.8a7.6,7.6,0,0,1-.17,1.08,13.62,13.62,0,0,0-.37,3.18,4.16,4.16,0,0,1-.13.72,7.88,7.88,0,0,0-.28,2.21c-.72,2.85-.56,5.92-2.17,8.54a3.13,3.13,0,0,1-1.88.27c-6.28-.65-12.52-1.58-18.76-2.58-6-1-12-1.73-18.08-2.1-10.24-.63-20.47-.25-30.7-.43-1.25,0-2.61.18-3.46-1.13-.05-1.71,1.44-1.72,2.47-2.08,5.65-2,11.4-3.72,17.14-5.46,3.14-1,3.21-1.07,2.09-4.12q-13.68-37.28-27.28-74.58c-.6-1.65-1.33-3.26-1.83-5s-1.61-2.34-3.45-1.78c-6.66,2-13.32,4.05-20,6.09-9.33,2.87-18.83,5.12-28.23,7.7q-4.74,1.3-9.41,2.86a12.72,12.72,0,0,1-7.79,0c-8.66-2.59-17.36-5-26.17-7-8-1.85-15.86-4.44-23.74-6.83-.78-.23-1.81-.21-2.08-1.31a7.72,7.72,0,0,1,6.16-.77c9.91,2.48,19.79,5,29.52,8.13a53.5,53.5,0,0,0,6.76,1.58,62.91,62.91,0,0,1,8.08,2.16,17,17,0,0,0,10.11.15c3.75-1.06,7.59-1.82,11.38-2.78a77.62,77.62,0,0,0,12.66-4.11,75.72,75.72,0,0,1,13-4,129,129,0,0,0,15.28-4.81c.59-.23,1.2-.43,1.81-.61.36-.11.9-.35,1,.13.4,1.42,1.47,1,2.35.9a39.64,39.64,0,0,0,12.18-3.23c1.68-.7,3.27-1.69,5.15-1.83.41.47.12.92,0,1.38-.06.18-.13.36-.2.54a4.19,4.19,0,0,0-.18,1.16,10.9,10.9,0,0,0,.21,2.91,4.81,4.81,0,0,0,.48.78c.15.15.29.31.43.46a16.32,16.32,0,0,1,3.62,3.8c1.44,2,3.49,3.27,5.25,4.88.9.83,1.74.43,2.58-.18,7.63-5.52,15.5-10.71,23.09-16.27a47.65,47.65,0,0,0,7.37-6c.28-.28.56-.57,1-.45,4.6,2,9.22,4,13.82,6,8.64,3.8,17.4,7.27,26.22,10.61.44.17.86.38,1.3.58a7.6,7.6,0,0,0,3.21,1.27A8.23,8.23,0,0,1,460.82,219.68Z" transform="translate(-13.39 -15.78)" fill="#fff"/>
    <path d="M232.58,214.18c11.79,3.78,23.72,7,35.77,9.9a139.53,139.53,0,0,1,14.51,4.12,18.34,18.34,0,0,0,7.45.91c2.17-.13,4.17-1.05,6.2-1.69,5.26-1.67,10.6-3,15.93-4.38,11.38-2.91,22.59-6.4,33.8-9.88,1.52-.47,3.06-.9,4.6-1.31,1.9-.49,2.14-.4,2.84,1.46,1.28,3.35,2.49,6.74,3.73,10.11q13.21,36.12,26.44,72.23c.69,1.88.68,1.89-1.35,2.53q-9.48,3-19,6a7.32,7.32,0,0,0-2.64,1.07c-1.32.58-2.11-.43-2.94-1.08-6-4.64-12.15-9-18.19-13.62-3.23-2.45-7-2.86-10.86-3.1-4,.05-7.76,1.29-11.68,1.75a17.2,17.2,0,0,1-3.29.28c-1.26,0-1.73-.76-2-1.85s-.71-2.23-1-3.36c-.15-.34-.16-.73-.32-1.07-.73-2-1.39-4.1-1.92-6.21-1.11-3.17-2.11-6.39-3.09-9.6-.29-1-.63-2-1-3a6,6,0,0,0-.3-1c-.79-2.18-1.27-4.47-2.09-6.65a6,6,0,0,0-.31-1,72,72,0,0,1-2.22-7.19c-1-3-2-5.94-2.85-9-.44-1.49-1.1-2.92-1.42-4.44a44.13,44.13,0,0,0,1.39,4.41c.83,3,1.8,6,2.83,9,.62,2.57,1.5,5,2.35,7.54a8.6,8.6,0,0,0,.31,1c.81,2.19,1.28,4.48,2.1,6.67a8.94,8.94,0,0,0,.29,1c.37,1,.68,2,1,3,1,3.2,2,6.4,3.09,9.56a63.42,63.42,0,0,0,1.89,6.16c.07.24.13.47.19.71.22,1.83,1.74,3.38,1.12,5.38a2.47,2.47,0,0,1-1.23.7c-4,.7-4.9,3.69-5.25,7a18.52,18.52,0,0,0,.84,7.56c1.17,3.68.68,4.32-3.2,3.76-6.08-.87-12.14-1.91-18.21-2.84-4.61-.9-9.25-1.56-13.87-2.34a6.69,6.69,0,0,1-2.95-.84,34.33,34.33,0,0,0-7-1.62,3.64,3.64,0,0,1-3.18-3q-11.55-36.31-23.24-72.58c-1.19-3.71-2.45-7.41-3.66-11.08C231.52,213.67,232.07,214.26,232.58,214.18Z" transform="translate(-13.39 -15.78)" fill="#011a29"/>
    <path d="M206.31,409.32h-.49a104.65,104.65,0,0,0-10.51-6.21c-9.44-5.05-18.93-10-27.32-16.79a110.12,110.12,0,0,1-17.9-17.95,18.29,18.29,0,0,1-4.1-9.26c-.87-7.24-1.06-14.44.47-21.68.86-4,3.38-6.57,6.28-9a43.93,43.93,0,0,1,10.67-6.34c3.26-1.43,6.83-1.48,10.29-2.05,7.07-1.18,14,0,21,.84,7.37.86,14.7,2,22,3.31,10.7,1.87,21.27,4.32,31.78,7.05q11.71,3,23.22,6.79c.45.15.93.23,1.39.34,1.43-.35,2.6.45,3.85.89,3.05,1.09,6.1,2.19,9.12,3.34,4.23,1.89,8.5,3.68,12.59,5.85,1.6,1.63,3.11,3.31,3.46,5.69-1.64,1.69-3.92,2.34-5.88,3.48-11.55,6.71-22.85,13.82-34.27,20.74q-7.89,4.78-15.86,9.44c-1.47.86-3,1.49-4-.26,1.2,1.5-.18,2.26-1.38,3-3.88,2.23-7.82,4.37-11.7,6.61-3.18,1.83-6.35,3.69-9.63,5.36C215.07,404.8,210.81,407.3,206.31,409.32Z" transform="translate(-13.39 -15.78)" fill="#444"/>
    <path d="M329.2,286.88a19,19,0,0,1,11.94,3.9c5.67,4.48,11.55,8.68,17.36,13a5.65,5.65,0,0,0,2.4,1.48c.64,1.17,1.77.89,2.77.89,6.22,0,12.45-.09,18.67,0,5.63.07,11.28.2,16.9.55,2.83.17,5.66.7,8.49,1.1,5.33.76,10.6,2,15.95,2.55,3.38.36,6.75.92,10.16,1.1,1.45-.58,2.81.12,4.19.32s1.92-.26,1.51-1.67q-1.11-3.76-1.85-7.63a20.71,20.71,0,0,0-.36-2.82,4.69,4.69,0,0,1-.17-.72c0-1.86-.49-3.69-.44-5.56.14-.73-.29-1.45,0-2.18a1.1,1.1,0,0,0-.5-1,.57.57,0,0,1,0-.88,1.87,1.87,0,0,1,1.42-2.14l2-.68c3.19-.3,6.08-1.65,9.1-2.54a122.2,122.2,0,0,1,14.14-3.26c2.66-.39,5.37-.22,8-.64.89-.14,1.95-.14,2.45,1a31.8,31.8,0,0,1,1.23,9q.47,12.47-.15,24.94a132.75,132.75,0,0,1-1.72,18.11c-.1.54-.28,1.08-.35,1.63-.44,3.92-3.19,5.68-6.47,6.89s-6.76,1.14-10.19.89a36.19,36.19,0,0,0-4.54,0,133.55,133.55,0,0,1-21.07-.41c-1.26-.13-2.48-.69-3.79-.39-1.5.66-3,.13-4.47-.1a217,217,0,0,1-38.74-9.92,190.07,190.07,0,0,0-32.29-8.11,48.8,48.8,0,0,1-9.48-2.54,7.24,7.24,0,0,0-3.59-.89,36.09,36.09,0,0,0-3.76-.47,13.29,13.29,0,0,1-9.44-5.19c-2.1-6.06-1.58-12.33-1-18.5C323.87,292.24,326.12,289.17,329.2,286.88Z" transform="translate(-13.39 -15.78)" fill="#ffe0c4"/>
    <path d="M367.64,206.26c.14-.4.29-.79.44-1.19,1.11-2.35,1.27-4.93,1.72-7.43s.6-4.92.95-7.37c.15-1-.29-1.63-1.2-1.67-1.52-.07-2.17-1-2.9-2.16-2-3-4-5.94-6.07-8.92a12.13,12.13,0,0,1-1.44-2.48c-1.84-5.11-4-10.1-5.58-15.31a6.76,6.76,0,0,1-.37-2.35c1.05-1.55,2.75-.85,4.14-1.15a9.73,9.73,0,0,1,2.59-.24c-2.24-.18-4.43.78-6.68.25,0-2.59,0-5.19-.07-7.78a6.53,6.53,0,0,1,.56-2.27c.23-1.2,1.3-1.06,2.07-1.18,9.22-1.35,18.48-2.46,27.63-4.26,1.77-.34,2.53.42,2.58,2.15a4.69,4.69,0,0,0,.35,2.56c1.22,1.34,3.44.63,4.53,2.22.2,3.89-.11,7.78-.21,11.68a131.34,131.34,0,0,1-2.25,18.52c-.43,2.53-1.34,4.52-3.61,5.88-2.06,1.22-4,2.65-6.11,3.79a7.64,7.64,0,0,1-4,1.27,8.36,8.36,0,0,0,5.08-1.85,39.85,39.85,0,0,1,6.05-2.88c2.22-1,3.57-.54,4.9,1.53,3.36,5.25,6.76,10.47,10,15.82a17.58,17.58,0,0,0,2.95,3.42,19,19,0,0,1-4.15,3.16c-6.36,4.51-12.85,8.84-19.14,13.45-1.58,1.16-1.75,1.06-3.26-.16a40.43,40.43,0,0,1-7-7.12,8.23,8.23,0,0,0-2-1.64.58.58,0,0,0,.05-.73,4,4,0,0,1-.59-1c-.47-.92.05-1.83,0-2.74C367.45,207.49,368,206.88,367.64,206.26Z" transform="translate(-13.39 -15.78)" fill="#ffe0c4"/>
    <path d="M207.78,440.5c-4.42,2.79-9.51,3-14.45,3.85-5.49.92-11,.46-16.5.25-3-.12-5.92-.14-8.87-.22-8.72-.21-17.4-.78-25.89-2.93-7.28-1.84-11.92-6.52-14.15-13.62a11.27,11.27,0,0,1,6.42-13.21c2.79-1.08,5.75-1.34,8.63-2,2.23,0,4.46.06,6.69,0a26.66,26.66,0,0,1,10.48,2.11,47.41,47.41,0,0,0,18,3.14c2.47,0,4.93-.06,7.4-.31,3.65-.37,7.3.58,11,.32,1.11-.08,1.89.74,2.6,1.52.24,1-.73,1.33-1.09,2.17,3.46,1,5.29,3.52,6.21,6.79.84,3,2.57,5.87,1.84,9.23-.18.82.65.95,1.23,1.2s1.7-.05,1.83,1.11a.5.5,0,0,1-.4.14C208.47,440.32,208,440.2,207.78,440.5Z" transform="translate(-13.39 -15.78)" fill="#fff"/>
    <path d="M385.83,146.29c-.71-.64-.42-1.47-.44-2.24,0-.94.29-1.9-.19-2.93-3.59.64-7.16,1.37-10.76,1.9-6.45,1-12.92,1.83-19.39,2.72a2.15,2.15,0,0,0-1.32.45,2.66,2.66,0,0,0-.93-.21c-4,.52-8-.24-11.95-.19-2.81,0-5.54-.66-8.3-1-1.34-.18-1.71-.92-1.35-2.23a3.9,3.9,0,0,1,1.35-1.93c7.53-6.42,14.92-13,23-18.77a17.49,17.49,0,0,1,3.13-1.75c8.76-3.8,18-6.13,27.23-8.23,4-.92,8.25-.82,12.38-1.13a10.33,10.33,0,0,0,1.68-.09c3.35-.86,5.25.91,6.73,3.58a44.65,44.65,0,0,1,2.88,6.57c1.52,4.21,2.85,8.47,3,13-.64.79,0,1.93-.76,2.7a3.77,3.77,0,0,1-2.73,1.31c-6.66.8-13.27,1.92-19.91,2.89-1.83.27-2.75,1-2.65,2.92A3.11,3.11,0,0,1,385.83,146.29Z" transform="translate(-13.39 -15.78)" fill="#404040"/>
    <path d="M324.84,314.32c3.08,2.64,6.23,5.06,10.64,4.79a9.51,9.51,0,0,1,2.31.44c1.11.39,2.35.33,3.4.93,2.61.37,5,1.56,7.61,2,5.4.93,10.82,1.88,16.14,3.2,8.89,2.22,17.6,5.09,26.3,8a161.77,161.77,0,0,0,26.89,6.55c2.75.42,5.48,1,8.21,1.45a257.7,257.7,0,0,1-7.2,25.3c-.9,2.73-1.8,5.45-2.53,8.23s-1.51,5.54-2.5,8.24c-1.62,4.44-2.27,9.12-3.33,13.69-.13.54-.31,1.07-.47,1.6-.15.23-.29.22-.45,0-.14-2.15-.35-4.3-.4-6.46a157.2,157.2,0,0,0-1.12-18.43c-1.18-8.13-2.62-16.24-6.74-23.59-2.07-3.71-4.06-7.42-7-10.56a15.85,15.85,0,0,0-7.91-4.72c-6.12-1.54-12.25-3.12-18.56-3.64a89.93,89.93,0,0,0-18,0,16.47,16.47,0,0,0-3.41,1.06,101.13,101.13,0,0,0-17.42,7.91A91,91,0,0,1,318.28,346c-2.2.9-4.25,2.18-6.37,3.29a2.91,2.91,0,0,1-1.5,1,5.39,5.39,0,0,1-.52.3,4.09,4.09,0,0,0-.79.38,4.49,4.49,0,0,1-.54.26,4.19,4.19,0,0,1-.81.43A37.5,37.5,0,0,0,304,353.6c-.62.38-1.29,1-2.13.42-.76-2-2.28-3.45-3.3-5.26.51-1,1.34-.58,2.1-.48a5.49,5.49,0,0,0,5.79-2.5c3-4.65,5.88-9.31,7.47-14.65,1.05-3.53,1.71-7.14,2.6-10.71a8.63,8.63,0,0,0,.15-5c-.2-.62-.27-1.28.54-1.61C319.79,313.58,322.38,313,324.84,314.32Z" transform="translate(-13.39 -15.78)" fill="#fff"/>
    <path d="M403.64,204.86a2.56,2.56,0,0,1-2.48-1.51c-3.45-5.52-6.94-11-10.41-16.51-.13-.21-.22-.43-.34-.63-1.51-2.39-2.48-2.47-5.13-1.24s-5,2.3-7.49,3.55c-1.53.78-1.58.68-3.9.24,3.81-.3,6.37-3,9.44-4.74,2.84-1.61,4.46-3.68,4.55-7.18.08-2.81,1-5.6,1.53-8.4a6.25,6.25,0,0,0,.25-1.4c-.25-4.78.87-9.52.48-14.3-.14-1.7.7-3.27.5-5,1.38-.22,1.73.86,2.17,1.77a19.89,19.89,0,0,1,1.88,9.79c0,1-.26,2.16,1.19,2.52,1.62.4,2.67-.28,2.7-2a45.76,45.76,0,0,1,.62-8.59,10.51,10.51,0,0,1,6.2-7.47,4.35,4.35,0,0,1,6.23,2c1.7,3.93.06,7.25-1.9,10.52-.25.53-.36,1.11-.65,1.62-.78,1.17-2.05,1.75-3.12,2.56a4.65,4.65,0,0,0-2,5.22c.77,3,.67,6.2,2,9.08-.21,6.61,1.73,12.79,3.86,18.91a13.18,13.18,0,0,0,1.92,4.36A28.65,28.65,0,0,1,403.64,204.86Z" transform="translate(-13.39 -15.78)" fill="#fcd4bd"/>
    <path d="M286,343.07c-4.38-1.32-8.63-3-12.88-4.68-.36-3.33-1.47-6.5-2.15-9.77a139.92,139.92,0,0,1-2.19-16.3,95.81,95.81,0,0,1-.69-9.72c1-.62,2,0,3,.16,4.68.78,9.39,1.36,14,2.46,1.12.48.94,1.53,1.11,2.45a50.53,50.53,0,0,0,3,11.34c1.55,3.59,3.05,4.31,6.77,3.06,3.49-1.17,6.94-2.43,9.9-4.74a3.29,3.29,0,0,1,2.4-.93.77.77,0,0,1,.53.46,2,2,0,0,1-.19,1.05c-5.2,7.94-10.59,15.73-18,21.8C289,340.9,288,342.68,286,343.07Z" transform="translate(-13.39 -15.78)" fill="#ffe0c4"/>
    <path d="M411.63,145.82a13.66,13.66,0,0,1-1.12-.89,3.93,3.93,0,0,0-4.86-.65c-3.18,1.64-5.49,4-6,7.78a58.73,58.73,0,0,0-.35,8.59c.05,2,0,2-2,1.95-3.65-.13-3.29.56-3.24-3.37a20.28,20.28,0,0,0-2-9.73c-.35-.7-.53-1.54-1.47-1.72-1.06-.81-2.41-.58-3.58-1-.42-.15-1,0-1.23-.51a38.93,38.93,0,0,0,.05-4c-.11-1.35.6-1.85,1.71-2.08s2.51-.27,3.76-.49c5.29-.93,10.61-1.69,15.93-2.49.62-.09,1.27,0,1.9-.07a2.89,2.89,0,0,0,2.61-1.37c.81,0,.8.35.43.9a4.39,4.39,0,0,0-.38,2.53A46,46,0,0,1,411.63,145.82Z" transform="translate(-13.39 -15.78)"/>
    <path d="M209.15,439.93c-.88-.66-2-.34-3-.79s-1.58-.8-.73-1.87a2.35,2.35,0,0,0,.22-2.28c-.75-2.44-1.49-4.87-2.27-7.3a9.41,9.41,0,0,0-2.57-4,4.65,4.65,0,0,0-3.66-1.47c-.11-1.56,1.47-1.81,1.95-2.83a1.57,1.57,0,0,0,1.53-.09c.34.07.72.08.9.47a49.91,49.91,0,0,0,14.93,16.34l.62.58c-1.57,1.17-3.52,1.29-5.3,1.87A6.31,6.31,0,0,0,209.15,439.93Z" transform="translate(-13.39 -15.78)" fill="#e3e4e2"/>
    <path d="M406,174.82a3.15,3.15,0,0,1-1.53-2.51c-.32-2.36-.75-4.71-1.23-7s.58-4,2.41-5.25a16.25,16.25,0,0,0,3.33-2.68c1.2.37.59,1.19.47,1.89a14.8,14.8,0,0,1-.61,2.31C406.92,165.77,406.56,170.32,406,174.82Z" transform="translate(-13.39 -15.78)" fill="#020203"/>
    <path d="M473.39,281a4,4,0,0,0-3-.28c-2.58.57-5.17.29-7.74.42-.86.15-1.82.75-2.4-.48,4.13-.93,8.26-1.86,12.4-2.76.16,0,.39.2.58.31,0,.07,0,.15-.05.23a.23.23,0,0,0,.22.32,1.63,1.63,0,0,1,.3.44,1,1,0,0,1,0,1Z" transform="translate(-13.39 -15.78)" fill="#eca6a4"/>
    <path d="M353.24,156.24a22.66,22.66,0,0,1,5.67-.78c1.46,0,1.48,0,2.84,1.35a27.85,27.85,0,0,0-8.56.57C352.77,157,353.2,156.62,353.24,156.24Z" transform="translate(-13.39 -15.78)" fill="#37322c"/>
    <path d="M473.67,280.28l-.48-1.53.17-.16.23,0,0-.23a22,22,0,0,0-.16-5.25,3.84,3.84,0,0,1,.26-3c.82,2.74.17,5.64.93,8.39A1.55,1.55,0,0,1,473.67,280.28Z" transform="translate(-13.39 -15.78)" fill="#7d9cab"/>
    <path d="M460.82,219.68c-1.94-1.89-4.41-2.77-6.9-3.62a1.27,1.27,0,0,1-.85-.75,25.32,25.32,0,0,1,5,1.54A4.74,4.74,0,0,1,460.82,219.68Z" transform="translate(-13.39 -15.78)" fill="#eaf8ff"/>
    <path d="M476.19,298.82c1.14,1.36.88,2.2.33,3.58A6.27,6.27,0,0,1,476.19,298.82Z" transform="translate(-13.39 -15.78)" fill="#3abaf8"/>
    <path d="M412.22,136.65c-.05-.35-.05-.71-.43-.9,0-.55-.06-1.1,0-1.65s.43-.47.8-.32A2.57,2.57,0,0,1,412.22,136.65Z" transform="translate(-13.39 -15.78)" fill="#111f26"/>
    <path d="M409.4,159.23c-.26-.61.27-1.41-.47-1.89a1.58,1.58,0,0,1,.8-1A3.74,3.74,0,0,1,409.4,159.23Z" transform="translate(-13.39 -15.78)" fill="#2e4956"/>
    <path d="M476.41,317.33c-.52-.59-.24-1.09-.17-1.58C476.69,316.22,476.54,316.71,476.41,317.33Z" transform="translate(-13.39 -15.78)" fill="#42bbf6"/>
    <path d="M409.86,398.76h.45c0,.47,0,.94,0,1.41l-.42.13C409.88,399.78,409.87,399.27,409.86,398.76Z" transform="translate(-13.39 -15.78)" fill="#c9e1ec"/>
    <path d="M498.33,215.18c-.05,0-.1.1-.15.1s-.23-.1-.12-.22a.22.22,0,0,1,.18,0C498.29,215.06,498.3,215.13,498.33,215.18Z" transform="translate(-13.39 -15.78)" fill="#319ed4"/>
    <path d="M462.5,144.93c-.05,0-.13,0-.15,0a.2.2,0,0,1-.07-.16c.05-.19.15-.21.25-.05S462.51,144.87,462.5,144.93Z" transform="translate(-13.39 -15.78)" fill="#1e97d3"/>
    <path d="M294.11,424.35a3.06,3.06,0,0,1,2.47-.14c5.92,2.5,12.27,3.38,18.48,4.78,5.78,1.3,11.71,1.39,17.53,2.35a46.8,46.8,0,0,1,6.72,1.67,40,40,0,0,1,4.73,1.64,14.14,14.14,0,0,1,6.29,6.34.59.59,0,0,1,.24.58c1.6,5.71-.11,10.38-5,13.71-4.55,3.07-9.49,3.31-14.67,2.08s-10-2.86-15-4.11c-3.45-.86-7.12-.88-10.63-1.63-4-.85-7.95-1.77-11.91-2.67a44.59,44.59,0,0,0-4.46-.74,9.15,9.15,0,0,1-6.76-4.77c-.3-.65-.2-1.16.62-1.07s1.69.43,1.88,1.43a1.55,1.55,0,0,0-.54-1.23c-2.94-3.66-1.78-7.28.07-10.89.4-.77,1-1.43,1.39-2.22,1.28-2.9,3.17-4.88,6.61-4.72A2.38,2.38,0,0,1,294.11,424.35Z" transform="translate(-13.39 -15.78)" fill="#fff"/>
    <path d="M277.27,440.49a2.41,2.41,0,0,0-.39.59c-.41,1.36-1.2,1.31-2.35.85-6.2-2.47-12.43-4.86-18.64-7.3C252,433.1,248,431.82,244.17,430c.81-1.47,2.54-1.32,3.74-2.09a4.84,4.84,0,0,1,1-.36,6.68,6.68,0,0,0,1-.37c3.77-1.07,7.32-2.76,11.08-3.87,5.22-1.95,10.48-3.78,15.73-5.62a11.14,11.14,0,0,1,2.75-.87c2,.56,3.61,1.88,5.42,2.82,1.26.65,1.4,1.79,1.08,3.05A172.47,172.47,0,0,0,278,439.58,2.09,2.09,0,0,1,277.27,440.49Z" transform="translate(-13.39 -15.78)" fill="#444"/>
    <path d="M292.7,425.11c-.74.94-1.77.5-2.67.5a2.31,2.31,0,0,0-2.29,1.31c-1,1.86-2.25,3.63-3.37,5.45s-1.34,4.22-1.62,6.38c-.14,1.11,1.05,2.06,1.59,3.11.34.68,1,1.22,1,2.1-1,.18-1.53-.74-2.28-1.07s-.86,0-.95.55c-.49-2-2.45-2.07-3.77-3-.74-.73-.35-1.52,0-2.19,2.26-4.44,4-9.11,6.53-13.42.41-.71.82-1.36,1.7-1.52A34.51,34.51,0,0,1,292.7,425.11Z" transform="translate(-13.39 -15.78)" fill="#e2e3e1"/>
    <path d="M286.6,423.61c-.9.38-1.18,1.25-1.55,2-1.7,3.57-3.7,7-5.16,10.7-.54,1.36-1.87,2.42-1.55,4.12l-1.07,0a4.16,4.16,0,0,1,.45-1.83A146.51,146.51,0,0,1,285.18,423c.07-.12.25-.19.37-.29C286.25,422.59,286.56,423,286.6,423.61Z" transform="translate(-13.39 -15.78)" fill="#c6c7c7"/>
    <path d="M230.34,434.4a10.64,10.64,0,0,1,3.56-1.7c2.82-1.06,5.62-2.14,8.43-3.21.25.35.8.11,1,.51-2.87,1.13-5.74,2.28-8.62,3.39A13.56,13.56,0,0,1,230.34,434.4Z" transform="translate(-13.39 -15.78)" fill="#2d393e"/>
    <path d="M350.57,441.57l-.24-.58a1.15,1.15,0,0,1,1.26-.45c3.26.84,6.58.28,9.87.5a4.6,4.6,0,0,1-2.77.46C356,441.55,353.27,441.55,350.57,441.57Z" transform="translate(-13.39 -15.78)" fill="#293c45"/>
    <path d="M243.36,430c-.4-.06-.81-.09-1-.51,2-.08,3.43-1.54,5.29-1.91.16.16.44.2.48.48-1.08,1.11-2.74,1.06-3.93,1.95Z" transform="translate(-13.39 -15.78)" fill="#2e3031"/>
    <path d="M219.45,441.86a.42.42,0,0,1-.5.3.37.37,0,0,1-.3-.49c0-.09.25-.16.38-.16S219.46,441.56,219.45,441.86Z" transform="translate(-13.39 -15.78)" fill="#3282aa"/>
    <path d="M207.78,440.5a.85.85,0,0,1,1-.43A1,1,0,0,1,207.78,440.5Z" transform="translate(-13.39 -15.78)" fill="#e3e4e2"/>
    <path d="M333.52,425.64c-3.52-2.42-6.72-5.25-10-7.93s-6.53-5.24-9.63-8.07c-1.39-1.27-2.85-2.5-4.32-3.69.05-1.19,1.11-1.23,1.85-1.51,5-2,10-4.2,15-6.27,2.45-1,3-.73,3,1.91a68.93,68.93,0,0,0,4,23.11C333.68,423.93,334.31,424.79,333.52,425.64Z" transform="translate(-13.39 -15.78)" fill="#373737"/>
    <path d="M359.45,382c-.54,1.9-2.14,3-3.53,4a65.39,65.39,0,0,0-5.36,4.71c-4.29,4.16-8.84,8-13.2,12.07-1.74,1.62-3.64,3.06-5.49,4.56a3,3,0,0,0-1.24,2.93c-1.12-.09-.81-1.08-.88-1.64-.37-3-.59-6-.84-9a3.06,3.06,0,0,1,2.5-3.67c.53-.16,1-.48,1.53-.68,5.47-2.68,11.2-4.83,16.42-8h0c.16-.17.49-.15.49-.48a41.15,41.15,0,0,1,4.83-2.86c1.34.28,2.12-.83,3.14-1.31C358.35,382.34,358.69,381.64,359.45,382Z" transform="translate(-13.39 -15.78)" fill="#373737"/>
    <path d="M301.87,354c2.06-.84,3.84-2.29,6-2.85a1.36,1.36,0,0,0,.65-.34.26.26,0,0,1,.34-.13c.25,0,.42-.22.62-.34a.34.34,0,0,1,.38-.13c.53-.19,1-.37,1,.51l-.44,0c-.17.14-.34.29-.5.45l-.45,0a2.4,2.4,0,0,0-.5.45c-10.94,6.25-22,12.3-32.76,18.87-8.43,5.14-16.7,10.59-25.43,15.19-9.26,4.88-18,10.59-27.41,15.24-1.07.52-1.92,1.47-3.19,1.59-.57.32-1,.32-1-.5,3-1.75,6.06-3.52,9.1-5.25,4.1-2.32,8.21-4.61,12.31-6.92.54-.31,1-.74,1.6-1.16-.47-1.13-1.44-1.92-1.78-3.15.86.12,1.17.72,1.58,1.15,1.64,1.71,1.71,1.78,3.78.57,3.58-2.09,7.13-4.25,10.67-6.39q13-7.87,26-15.76c3.88-2.37,7.66-4.91,11.67-7.05C296.74,356.78,299.11,355,301.87,354Z" transform="translate(-13.39 -15.78)" fill="#1d1d1d"/>
    <path d="M333.51,395.4c-.94.39-1.88.78-2.82,1.19-.73.33-1.51.68-1.47,1.65.19,4.05.23,8.11,1.41,12.05.09,3,1.08,5.77,1.89,8.59,1,3.42,2.14,6.79,3.38,10.68-1.38-1.35-1.67-2.77-2.38-3.92-.42-2.85-1.74-5.43-2.36-8.22a86.16,86.16,0,0,1-2-11c-.23-2.45-.4-4.9-.4-7.36,0-1-.36-1.3-1.32-.91-2.2.91-4.47,1.67-6.62,2.69-3.09,1.47-6.28,2.69-9.45,4a3.79,3.79,0,0,0-1.81,1.1l-.48,0c-.26.28-.71.16-1,.47q-7.33,2.83-14.66,5.67c-3.27,1.25-6.55,2.46-9.82,3.7-.71.27-1.62.28-1.91,1.22-.74.67-1.51.24-2.27.07l-2.53.87c-.55.28-1,.39-1-.48,5.62-2,11.26-4,16.83-6.18,10.46-4.1,20.93-8.17,31.26-12.59,3-1.28,6-2.54,9-3.81C333.54,394.73,333.63,395,333.51,395.4Z" transform="translate(-13.39 -15.78)" fill="#222323"/>
    <path d="M279.42,417.1a4.84,4.84,0,0,1,2.27-.07,1.91,1.91,0,0,0,1.17.76c3.28,1,6,3.28,9.16,4.47a2.85,2.85,0,0,1,2.09,2.09l-1.41.77c-2.23.31-4.17-.61-6.1-1.51a2.53,2.53,0,0,0-1.05-.95c.29-1.47-.33-2.31-1.68-2.94C282.32,419,280.9,418,279.42,417.1Z" transform="translate(-13.39 -15.78)" fill="#2c9dd5"/>
    <path d="M216.49,436.15c-1.78.27-2.76-1.14-3.79-2.07a72.21,72.21,0,0,1-10.17-11.22,3.61,3.61,0,0,1-1-3.05,23.08,23.08,0,0,1,4.27,4.45,150.07,150.07,0,0,0,10.11,11.13A4.76,4.76,0,0,1,216.49,436.15Z" transform="translate(-13.39 -15.78)" fill="#c9c9c9"/>
    <path d="M219.27,402.11a1,1,0,0,0,1,.5,9.94,9.94,0,0,1-2.88,1.65q-4.87,2.49-9.8,4.92c-.37.18-.78.65-1.26.14.87-1,2.14-1.32,3.22-1.94C212.73,405.54,216,403.86,219.27,402.11Z" transform="translate(-13.39 -15.78)" fill="#262727"/>
    <path d="M333.51,395.4l-.48-.49a28.83,28.83,0,0,1,5.53-2.69c3.2-1.43,6.3-3,9.46-4.54a11.71,11.71,0,0,1,1.34-.45,1.7,1.7,0,0,1-.78.87,116.36,116.36,0,0,1-11.17,5.45C336.07,394.07,334.81,394.77,333.51,395.4Z" transform="translate(-13.39 -15.78)" fill="#2b2b2b"/>
    <path d="M275.93,417.49a1,1,0,0,0,1,.48q-6.17,2.16-12.32,4.34c-1.19.42-2.36.92-3.55,1.39-.14-.18-.45-.18-.48-.48,2-1.15,4.29-1.62,6.42-2.46C269.92,419.59,272.94,418.57,275.93,417.49Z" transform="translate(-13.39 -15.78)" fill="#2f2f2f"/>
    <path d="M260.54,423.22l.48.48-8.28,3a9.18,9.18,0,0,1-3.2.87,4.32,4.32,0,0,0-.5.45l-.94,0-.48-.48.45,0c.17-.16.34-.3.49-.46,3.16-.82,6.13-2.2,9.23-3.17A8.15,8.15,0,0,1,260.54,423.22Z" transform="translate(-13.39 -15.78)" fill="#252728"/>
    <path d="M359.45,382a17.11,17.11,0,0,1-3.34,2.14c-.54.21-1,.38-1.44-.21l5.4-3.4A1.46,1.46,0,0,1,359.45,382Z" transform="translate(-13.39 -15.78)" fill="#262626"/>
    <path d="M310.93,350.74c-.21-.43-.65-.42-1-.51a3.68,3.68,0,0,1,2-.91c.31.11,1,.06.46.63A5.13,5.13,0,0,1,310.93,350.74Z" transform="translate(-13.39 -15.78)" fill="#323232"/>
    <path d="M349.84,386.76c.4.73-.29.36-.49.48Z" transform="translate(-13.39 -15.78)" fill="#2b2b2b"/>
    <path d="M308.08,406.44a1,1,0,0,1,1-.47A1,1,0,0,1,308.08,406.44Z" transform="translate(-13.39 -15.78)" fill="#373737"/>
    <path d="M248.56,427.1l-.49.46Z" transform="translate(-13.39 -15.78)" fill="#2e3031"/>
    <path d="M309,351.72l.5-.45Z" transform="translate(-13.39 -15.78)" fill="#323232"/>
    <path d="M310,351.23l.5-.45Z" transform="translate(-13.39 -15.78)" fill="#323232"/>
    <path d="M438.16,302.28c.76,2.91,1.55,5.81,2.26,8.73.32,1.31,0,1.65-1.25,1.46a19.84,19.84,0,0,1-5.33-1.05c.1-3,1.07-5.77,1.49-8.67.42-.62,0-1.39.37-2a.36.36,0,0,1,0-.36c.67-1.07-.09-2.34.47-3.42,0-.3.05-.59.07-.89.93-.5,1.06.09,1.15.81s-.28,1.74.28,2.53v0C438.25,300.28,437.55,301.38,438.16,302.28Z" transform="translate(-13.39 -15.78)" fill="#27b7fe"/>
    <path d="M460.26,280.7c.67.79,1.6.32,2.4.48-.79.8-1.83.3-2.73.52-4.07,1-8.21,1.72-12.19,3-2.18.7-4.42,1.17-6.58,1.95-.54.19-1,.44-1.5-.13,5.5-1.85,11-3.75,16.63-5.06C457.6,281.15,458.93,281,460.26,280.7Z" transform="translate(-13.39 -15.78)" fill="#f2b8b2"/>
    <path d="M325.9,217.17c2.45-1,4.87-2.2,7.63-2.08A32.42,32.42,0,0,1,325.9,217.17Z" transform="translate(-13.39 -15.78)" fill="#eef9ff"/>
    <path d="M433.31,282.19c-.76-1.73-.49-3.61-.81-5.4.35-.45-.14-1.16.48-1.52a29.52,29.52,0,0,1,.82,5.91C433.49,281.45,433.72,282,433.31,282.19Z" transform="translate(-13.39 -15.78)" fill="#6e6f6f"/>
    <path d="M437.71,299.39c-.73-.5-.48-1.27-.52-1.95s0-1.3-.91-1.39v-1.92c.41-.19-.07-1.22.87-.91A41.27,41.27,0,0,1,437.71,299.39Z" transform="translate(-13.39 -15.78)" fill="#45c0fc"/>
    <path d="M432.31,275.49a8.37,8.37,0,0,1-.24-4.55,7.13,7.13,0,0,1,.75,3.07C432.41,274.42,432.91,275.14,432.31,275.49Z" transform="translate(-13.39 -15.78)" fill="#858586"/>
    <path d="M368,208.15c0,1-.54,2,0,2.95-.11.21-.16.48-.46.54-.89-1.22-.28-2.58-.34-3.88a.36.36,0,0,1,.48-.14A2.25,2.25,0,0,1,368,208.15Z" transform="translate(-13.39 -15.78)" fill="#888786"/>
    <path d="M433.31,282.19c.15-.34.1-.78.49-1,.16,1,.32,1.91.47,2.86-.15.23-.31.24-.48,0C433.26,283.53,433.39,282.83,433.31,282.19Z" transform="translate(-13.39 -15.78)" fill="#3c3f40"/>
    <path d="M437.14,293.22l-.87.91c0-1-.44-2.09.44-3A3,3,0,0,1,437.14,293.22Z" transform="translate(-13.39 -15.78)" fill="#9bd6f0"/>
    <path d="M434.4,287.88a6.64,6.64,0,0,1-.49-2.4c.14-.24.3-.23.46,0a3.76,3.76,0,0,1,.47,2.41A.27.27,0,0,1,434.4,287.88Z" transform="translate(-13.39 -15.78)" fill="#5c5c5c"/>
    <path d="M436.21,296.94c-.08,1.15.45,2.38-.47,3.42A6.78,6.78,0,0,1,436.21,296.94Z" transform="translate(-13.39 -15.78)" fill="#45c0fc"/>
    <path d="M436.24,289.33l0,.88c-.64,0-1.2-.18-1.41-.89.15-.19.21-.48.52-.51Z" transform="translate(-13.39 -15.78)" fill="#b4b4b4"/>
    <path d="M432.31,275.49c.23-.48,0-1.12.51-1.48l.16,1.26c-.18.5,0,1.11-.48,1.52Z" transform="translate(-13.39 -15.78)" fill="#444"/>
    <path d="M435.32,288.81c-.1.25-.22.47-.52.51a2.39,2.39,0,0,1-.4-1.44h.44Z" transform="translate(-13.39 -15.78)" fill="#616161"/>
    <path d="M435.7,300.72c.05.71.28,1.45-.37,2A2.64,2.64,0,0,1,435.7,300.72Z" transform="translate(-13.39 -15.78)" fill="#45c0fc"/>
    <path d="M368,208.15l-.42-.51a.74.74,0,0,1-.07-.83c0-.18.1-.37.16-.55C368.53,206.75,368,207.49,368,208.15Z" transform="translate(-13.39 -15.78)" fill="#6c645c"/>
    <path d="M367.55,211.64l.46-.54c.14.31.27.63.41,1a.44.44,0,0,1-.58,0A.42.42,0,0,1,367.55,211.64Z" transform="translate(-13.39 -15.78)" fill="#84796f"/>
    <path d="M367.48,206.81c0,.28,0,.55.07.83l-.34.13A.83.83,0,0,1,367.48,206.81Z" transform="translate(-13.39 -15.78)" fill="#ffe0c4"/>
    <path d="M433.79,284.06l.48,0,.06,1c-.15.18-.31.16-.46,0Z" transform="translate(-13.39 -15.78)" fill="#373737"/>
    <path d="M367.84,212.1l.58,0c.16.33-.07.41-.31.5Z" transform="translate(-13.39 -15.78)" fill="#79736e"/>
    <path d="M473.56,278.39l.12.37h-.49v0a.27.27,0,0,1-.05-.42l.09-.1A1.3,1.3,0,0,1,473.56,278.39Z" transform="translate(-13.39 -15.78)" fill="#eca6a4"/>
    <path d="M433.87,285h.46c0,.16,0,.31,0,.46l-.46,0Z" transform="translate(-13.39 -15.78)" fill="#585959"/>
    <path d="M308.67,316.71c-1.55.05-2.58,1.14-3.73,2-3.37,2.36-7.24,3.57-11.12,4.67-1.76.51-3.5-.54-4.47-2.43a20.87,20.87,0,0,1-1.9-4.6c-.73-3.15-1.94-6.21-1.93-9.5a3.46,3.46,0,0,0-.47-1.58c4.75.51,9.43,1.44,14.15,2.13,2.41.36,4.81,1,7.46.82-.43-1.41-.75-2.68-1.2-3.91-1.46-4-1-7.83.52-11.65a3.5,3.5,0,0,1,2.72-2.4,32.6,32.6,0,0,0,3.2-.95c.6-.43,1.36.05,2-.34,3.73-.39,7.42-1,11.11-1.74,1.39-.27,2.78-.79,4.23-.3a8.51,8.51,0,0,1-1.73,2.52,12.89,12.89,0,0,0-3.56,8.8c0,2.92,0,5.85,0,8.77A16,16,0,0,0,325,313.7a.49.49,0,0,1-.2.61h-8.17C313.67,314,311.17,315.36,308.67,316.71Z" transform="translate(-13.39 -15.78)" fill="#fcd4bd"/>
    <path d="M243.65,233.64a7.91,7.91,0,0,1,3.82.1Q260,236,272.4,238.43c.79.15,2.2,0,2.05,1.1-.18,1.25-1.46.53-2.21.39q-13.31-2.44-26.51-5.31A4.23,4.23,0,0,1,243.65,233.64Z" transform="translate(-13.39 -15.78)" fill="#dfe1e3"/>
    <path d="M321.87,249.54a22.75,22.75,0,0,1-4.66-1.68,15,15,0,0,0-2-.77c-1.62-.41-2-.1-1.84,1.56.07.94.21,1.88.27,2.83a2.45,2.45,0,0,1-.6,2.26c-1-1.29-.6-2.76-.75-4.13a36.69,36.69,0,0,1,.06-7.84h0c.18-.19.35-.19.5,0,.07.95.14,1.89.2,2.84s.63,1.14,1.44.76c2.41-1.11,3.41-4.73,2-7.2a7.17,7.17,0,0,0-2.65-2.65c0-1,.63-.64,1.14-.55,4.21,2.69,4.71,6.43,1.38,11.14l5.64,2.44c.32.26,1.12.13.9.82C322.76,249.86,322.25,249.69,321.87,249.54Z" transform="translate(-13.39 -15.78)" fill="#dadddf"/>
    <path d="M358,275.9a.54.54,0,0,1,.09.39c.48.9-.26,2.08.65,2.88a3.18,3.18,0,0,0,2.2,1.11,1.39,1.39,0,0,1,.92.88,7.1,7.1,0,0,1,1.24.7c1,.88.93,1.75-.21,2.48a9.69,9.69,0,0,1-3.37,1.06c-.67.15-1.45-.09-2,.56a1.59,1.59,0,0,1-1.21.09,3.84,3.84,0,0,1-1.24-.36,1.15,1.15,0,0,1-.53-1.12,1.1,1.1,0,0,1,.48-.4,6,6,0,0,1,.85-.25c.56-.15.6-.63.68-1.08.07-.75-.23-1-1-.76s-1.56,1-2.51,1.16a1.68,1.68,0,0,1-1-.84c-1.23-1.12-2.79-.38-4.15-.72-.46-.16-1-.25-.93-.91,1.42-.75,3-.64,4.54-.93.6-.12,1.27,0,1.68-.59.83-.23,1.52.59,2.36.28,1.7-.31,1.22-1.76,1.47-2.83C357.21,276.27,357.32,275.78,358,275.9Z" transform="translate(-13.39 -15.78)" fill="#21a8ea"/>
    <path d="M345.17,232.61a.31.31,0,0,1,.25,0,.73.73,0,0,1,.63,0,.41.41,0,0,1-.06.57l0,0a3.29,3.29,0,0,1-.52.29,1.18,1.18,0,0,0,0,1.62,51.52,51.52,0,0,0,2.56,9.89c-2-.35-1.63-2.13-2.69-2.94a11.24,11.24,0,0,1-2.23,2.34c-1.33.87-1.82.84-3.37-.24-.33-.2-.21-.67-.52-.88h0a4.22,4.22,0,0,1,0-2.93.44.44,0,0,1,0-.43c.94-.06.64.53.53,1,0,1.13.09,2.43,1.4,2.71,1.12.24,1.77-.89,2.4-1.68a4.82,4.82,0,0,0,1-4c-.17-.93-.38-1.86-.58-2.79,0-.68-1.19-.66-1-1.52l0,0C343.46,232.63,344.09,232.18,345.17,232.61Z" transform="translate(-13.39 -15.78)" fill="#daddde"/>
    <path d="M347,280.77a1.57,1.57,0,0,0,1.1.48c.12.56-1.07.87-.42,1.39a2.88,2.88,0,0,0,2.7.53c.84-.25,1.33-1.17,2.3-1.15.06.41.09.82.5,1.06a6.45,6.45,0,0,1,1.47,1.48l.48.86a3.84,3.84,0,0,0-1,4.54c1.47-1.27,1.22-3.22,2.34-4.43l1,.43a12.8,12.8,0,0,1-1.51,4.68c-.41.87-1,1.72-2.11,1.55s-1.33-1.24-1.54-2.14a14.91,14.91,0,0,1-.18-2.12,4.61,4.61,0,0,0-.55-1.49,2.46,2.46,0,0,0-.25-.75,2,2,0,0,0-.77-.17,3.85,3.85,0,0,1-.89-.15c-.5-.18-.83-.65-1.37-.75a14.69,14.69,0,0,1-2-.75c-1.64-.9-1.64-1.85,0-2.9A2.41,2.41,0,0,1,347,280.77Z" transform="translate(-13.39 -15.78)" fill="#1fa0e1"/>
    <path d="M313.77,269.52c3.71-3.56,10.82-3,13.79,1.16a3.74,3.74,0,0,1-.26,5c-1.32,1.36-2.6,2.84-4.65,3.15-.47.07-1.08.45-1.11-.49a8.94,8.94,0,0,0,4.56-2.9c1.56-1.7,1.55-3.05-.05-4.79-2.48-2.7-7.34-3.28-10.8-1.27-.34.2-.64.48-1,.71C313.84,270.16,313.6,270,313.77,269.52Z" transform="translate(-13.39 -15.78)" fill="#c4c9cc"/>
    <path d="M249.2,239.3c5.46.72,10.8,2,16.23,2.91.49.09,1,.22,1,.8-.07.75-.68.74-1.28.61l-17.51-3.78C247.81,238.68,248.62,239.33,249.2,239.3Z" transform="translate(-13.39 -15.78)" fill="#d2d6d8"/>
    <path d="M292.21,261.52c-1.85-4.82-3.16-9.82-4.74-14.73-1.28-4-2.41-8.07-3.61-12.11-.06-.22-.22-.44.26-.87,3.11,9.07,5.66,18.2,8.56,27.21C292.52,261.19,292.49,261.47,292.21,261.52Z" transform="translate(-13.39 -15.78)" fill="#224557"/>
    <path d="M334.49,240.38c.49-.45,1.1-.21,1.13.21.19,2,1.55,2.92,3,3.56.11.38,0,.53-.17.53a8.46,8.46,0,0,0-3.92,1.57c-1.83,1.55-3.33,1.56-4.92,0-.16-.45-.29-.89.2-1.22,3.14.61,3.79.24,4.17-2.39-.06-.2-.11-.41-.16-.61s0-.21,0-.31A2.77,2.77,0,0,1,334.49,240.38Z" transform="translate(-13.39 -15.78)" fill="#ccd0d3"/>
    <path d="M326.29,226.4A23.67,23.67,0,0,1,336.43,221a2.28,2.28,0,0,1,2.6.61c.68.93.14,1.84-.33,2.66a6.66,6.66,0,0,1-1.76,2.22c-.45.17-.63-.09-.77-.44a2.76,2.76,0,0,1,.27-1.13c.25-.76,1.51-1.45.67-2.24-.65-.61-1.64.17-2.44.42a27.56,27.56,0,0,0-6.07,3.21c-.71.43-1.34,1.2-2.34.7A.43.43,0,0,1,326.29,226.4Z" transform="translate(-13.39 -15.78)" fill="#1b8fc9"/>
    <path d="M292.21,261.52c.16-.16.31-.33.47-.5l6.22,20.17c-.16.18-.19.48-.49.52-1.28-2.49-1.74-5.25-2.59-7.88C294.5,269.77,293.4,265.63,292.21,261.52Z" transform="translate(-13.39 -15.78)" fill="#26495c"/>
    <path d="M321.87,249.54c1.44-.13.21-.62.13-1,1.66,0,.3-.91.43-1.36,0-.24-.22-.4-.31-.61a2.38,2.38,0,0,1-.07-1.92c.68-.19.87.41,1.22.75a5.78,5.78,0,0,1,1.09,2.19c1,1.12,2.35.73,3.59.82.77.06,1.51-.51,2.62.08C327.66,250.32,324.77,250,321.87,249.54Z" transform="translate(-13.39 -15.78)" fill="#bfc5c8"/>
    <path d="M356.61,251.49a15.82,15.82,0,0,1-2.42,5.66,7,7,0,0,1-1.39,1.62c-1.23,1-2.23.69-2.63-.83a16.39,16.39,0,0,1-.29-2.12c.42-.63,0-1.42.38-2.06.41-.15.66.08.85.39a4.91,4.91,0,0,1,.28,1.61c.05.52-.16,1.12.56,1.56a11.94,11.94,0,0,0,2.76-4.5c.4-.9.45-2,1.57-2.49C356.88,250.57,356.83,251,356.61,251.49Z" transform="translate(-13.39 -15.78)" fill="#1880b4"/>
    <path d="M334.49,228.86c-3.66,3.17-7.47,6.1-12.31,7.27-.48.12-1,.29-1.24-.34a1.08,1.08,0,0,1,.81-.8,40.51,40.51,0,0,0,10.91-6.33,2.11,2.11,0,0,1,1.3-.54C334.35,228.22,334.63,228.39,334.49,228.86Z" transform="translate(-13.39 -15.78)" fill="#1c92ce"/>
    <path d="M356.19,266.15a.43.43,0,0,0-.21-.28c-1.26-.16-.19,1.16-.87,1.37-.85,1.09-1.62,2.33-3.35,1.89-.18-.14-.3-.37-.57-.37h0c0-.54.18-.78.74-.65,2.23-.75,2.58-1.3,2.71-4.34a6.88,6.88,0,0,1,2.76,1.74c.64.7.94,1.48.15,2.3-.21.09-.37.28-.62.3h-.13l-.13,0a.83.83,0,0,1-.53-.47,1.4,1.4,0,0,0,.06-.28A1.77,1.77,0,0,0,356.19,266.15Z" transform="translate(-13.39 -15.78)" fill="#c9cdd0"/>
    <path d="M309.13,255.19a17.2,17.2,0,0,1,7.34,7.93c.46.89.85,1.95-.21,2.8a1.44,1.44,0,0,1-.46-.49,19.18,19.18,0,0,0-6.26-8.4,2.4,2.4,0,0,1-1.13-1.44C308.51,255.2,308.68,254.93,309.13,255.19Z" transform="translate(-13.39 -15.78)" fill="#1c94cf"/>
    <path d="M346.06,270.37c-.38,1.21-.92.68-1.47.14-.2-.32-.37-.18-.53.05-.56.3-.92-.19-1.36-.36h-1.13a4.74,4.74,0,0,1-1.19.08c-.49-.27-1-.52-.59-1.22a20.85,20.85,0,0,0,4.24-1.32c1-.32,1,.39,1.34.85C346.74,268.75,346.1,269.68,346.06,270.37Z" transform="translate(-13.39 -15.78)" fill="#b3babe"/>
    <path d="M259.59,248.55c2.55,0,5,.72,7.51,1a.63.63,0,0,1,.61.61.65.65,0,0,1-.84.61c-2.93-.59-5.94-.85-8.82-1.73C258.42,248.48,259.17,249,259.59,248.55Z" transform="translate(-13.39 -15.78)" fill="#c5cacd"/>
    <path d="M327.7,260c-1,.82.78,1.73-.09,2.53-2.68-2.21-3.19-6.6-1-8.81.57-.19.77,0,.68.6-1.46,1.73-1.31,3.48,0,5.23C327.74,259.34,327.83,259.55,327.7,260Z" transform="translate(-13.39 -15.78)" fill="#bbc1c5"/>
    <path d="M358.53,279.78a5.09,5.09,0,0,1-.47-3.49c.56.64.26,1.53.6,2.37,1.31-.4,2.56-.79,3.82-1.16a1,1,0,0,1,1.24.37c.27.48,0,.9-.23,1.31-.48.72-1.35,1.11-1.66,2l-1-.56c-.11-.53.19-.9.56-1.31C360.38,279.43,359.57,280.38,358.53,279.78Z" transform="translate(-13.39 -15.78)" fill="#177fb4"/>
    <path d="M324.36,247.63c-.83-.42-1.08-1.25-1.46-2a2.35,2.35,0,0,1,.46-2.58c.78-.73,1.73-1.16,2.51-.24s.47,2.09-.45,3c-.15.26-.95.47-.06.82Z" transform="translate(-13.39 -15.78)" fill="#0d2533"/>
    <path d="M358,275.9c-.4.23-.41.65-.51,1-.69.18-.87-1.2-1.54-.61a2.7,2.7,0,0,0-.91,2.34c.07.55.71.85.7,1.46a2.1,2.1,0,0,1-2.5-.87,10.21,10.21,0,0,1,1.34-4,2.16,2.16,0,0,1,2.89-1.29c.56.32.08,1.06.57,1.4Z" transform="translate(-13.39 -15.78)" fill="#1b8fc8"/>
    <path d="M305.74,267.17c1.44,3.11,2,6.52,3.22,9.71-.14.19-.17.48-.48.53a85,85,0,0,1-3.26-9.7C305.4,267.53,305.44,267.23,305.74,267.17Z" transform="translate(-13.39 -15.78)" fill="#284c5f"/>
    <path d="M315,235c-.43.09-.89.1-1.14.55-2.71-.4-4.65.91-6.29,2.87-.43,0-.73-.07-.51-.6a6.44,6.44,0,0,1,6.91-3.31A1.52,1.52,0,0,1,315,235Z" transform="translate(-13.39 -15.78)" fill="#c6cbce"/>
    <path d="M309.13,255.19l-.57.55a3.56,3.56,0,0,0,.68,2.85c.43.78,1.23,1.48.75,2.54a.84.84,0,0,1-.94-.14,12.7,12.7,0,0,1-2.23-3.83c-.27-.74-.57-1.57.17-2.16A1.62,1.62,0,0,1,309.13,255.19Z" transform="translate(-13.39 -15.78)" fill="#1a8ac2"/>
    <path d="M351.92,268.1a1.2,1.2,0,0,0-.74.65l-.87-.57,0,0a8.09,8.09,0,0,1,.46-3.27c.23-.53.58-1.06,1.21-.95s.81.82.88,1.49C353,266.55,351.93,267.11,351.92,268.1Z" transform="translate(-13.39 -15.78)" fill="#a1a9af"/>
    <path d="M340.65,258.28c-.16-.27-.34-.53-.47-.81-.2-.43.14-1.27-.81-1.13-.68.1-1.22.38-1.06,1.25,0,.2,0,.46-.28.55a2.92,2.92,0,0,1-.82-1.37c.27-.38-.16-.4-.3-.56,1.27-.84,2.9-.75,4.19-2,.34,1.31-.23,2.38.1,3.4A.75.75,0,0,1,340.65,258.28Z" transform="translate(-13.39 -15.78)" fill="#b8bfc3"/>
    <path d="M345.17,232.61c-.67.38-1.52.39-2.06,1,.21-1.66-1.08-3-1-4.63-.09-.52-.43-1.16.57-1.12.35,1.12.71,2.24,1.06,3.37.6-.16.1-.89.65-1.1Z" transform="translate(-13.39 -15.78)" fill="#bbc1c5"/>
    <path d="M350.18,268.68c-1.77,1.49-2.16,1.52-3.3.25-.13-.54-.83-.34-1-.78l.23-.43a1,1,0,0,1,.41-.36H347a.92.92,0,0,1,.41.37c.27.22.53.69.9.15s0-1.12.77-1.46c.58.42.49,1.2.81,1.76A1.08,1.08,0,0,1,350.18,268.68Z" transform="translate(-13.39 -15.78)" fill="#bfc5c8"/>
    <path d="M331.27,274.79c2-.36,1.56-2.29,2.41-4,.39,1.71,1.11,2.55,2.6,2.3.27-.05.33.27.21.51a.54.54,0,0,1-.59.28,1.36,1.36,0,0,0-1.38-.05c-.66-.07-1,.41-1.32.84a2,2,0,0,1-2.54.67C330.61,274.91,330.76,274.66,331.27,274.79Z" transform="translate(-13.39 -15.78)" fill="#aab2b7"/>
    <path d="M318.49,278.69a17.2,17.2,0,0,1-.88-4.07c-.24-.51,0-1.11-.34-1.61l-.15-1.26c-.06-.49-.47-1.15.54-1.14a.42.42,0,0,1,.06.38c.2.32.16.71.32,1a34.17,34.17,0,0,1,1.23,6.65A.49.49,0,0,1,318.49,278.69Z" transform="translate(-13.39 -15.78)" fill="#aab2b7"/>
    <path d="M299.35,248.54a49.65,49.65,0,0,1-2.85-9.14.35.35,0,0,1,.53,0l2.88,9.13C299.73,248.78,299.54,248.79,299.35,248.54Z" transform="translate(-13.39 -15.78)" fill="#244759"/>
    <path d="M326.29,226.4l0,.51a.78.78,0,0,1-.29,1c-2.12,1.55-3.53,3.84-5.67,5.36a.79.79,0,0,1-.73-.61A25,25,0,0,1,326.29,226.4Z" transform="translate(-13.39 -15.78)" fill="#146e9c"/>
    <path d="M324.71,246.09a11,11,0,0,0,.74-.92c.47-.69.75-1.54.14-2.17s-1.44-.08-2.09.35c-.32-.06-.36-.36-.5-.58,1.51-1.21,2.61-1.33,3.42-.38s.51,2.39-.95,3.82A.56.56,0,0,1,324.71,246.09Z" transform="translate(-13.39 -15.78)" fill="#a9b0b5"/>
    <path d="M299.35,248.54h.56l2.31,7.24a.85.85,0,0,1-.42.49A34.35,34.35,0,0,1,299.35,248.54Z" transform="translate(-13.39 -15.78)" fill="#31566a"/>
    <path d="M353.26,246.15a4.06,4.06,0,0,1,1.47-1.85c1.31-1.08,1.95-.85,2.75.88-.65.89.36,2.15-.65,3-1.24-.43-.49-1.73-1.09-2.48-.83-.09-1,.93-1.75,1.06C353.58,246.75,353.38,246.5,353.26,246.15Z" transform="translate(-13.39 -15.78)" fill="#126590"/>
    <path d="M348.33,284.62c.62-.18,1,.27,1.54.49.11,1.48,1.46.25,1.95.89a2.22,2.22,0,0,1,.34,1.93,1.33,1.33,0,0,0-1.92-.75c-.79.26-1.93.85-2.26-.71a6.65,6.65,0,0,0,.36-.56C348.68,285.48,348.8,285,348.33,284.62Z" transform="translate(-13.39 -15.78)" fill="#126690"/>
    <path d="M302.35,256.64c1.16,2.13,1.41,4.57,2.28,6.8a.88.88,0,0,1-.42.49c-1.16-2.14-1.4-4.58-2.29-6.8A.86.86,0,0,1,302.35,256.64Z" transform="translate(-13.39 -15.78)" fill="#32586c"/>
    <path d="M298.41,281.71c.17-.17.33-.34.49-.52q1,3.35,2,6.69c-.17.23-.34.24-.51,0A29,29,0,0,1,298.41,281.71Z" transform="translate(-13.39 -15.78)" fill="#33596d"/>
    <path d="M335.47,257.44a2.31,2.31,0,0,1,.18,3.25c-.73,1-1.77,1.65-3.1.82a.44.44,0,0,1-.16-.38c0-.14,0-.21.07-.21,1-.68,2.36-1.11,2.46-2.67A1.33,1.33,0,0,1,335.47,257.44Z" transform="translate(-13.39 -15.78)" fill="#c0c5c9"/>
    <path d="M319.63,232.7l.51.55c.36.78.31,1.71.91,2.4.28.38.72.39,1.12.48a1.91,1.91,0,0,1-1.3.41c-2,0-2.65-.94-1.84-2.84A9.12,9.12,0,0,1,319.63,232.7Z" transform="translate(-13.39 -15.78)" fill="#1882b7"/>
    <path d="M313.77,269.52l.52.58c-1.19,2-1.19,2-.87,4.42C311.81,273,311.89,271.77,313.77,269.52Z" transform="translate(-13.39 -15.78)" fill="#a5aeb3"/>
    <path d="M308.48,277.41l.48-.53q1,3.12,1.91,6.25a.88.88,0,0,1-.43.48A23.57,23.57,0,0,1,308.48,277.41Z" transform="translate(-13.39 -15.78)" fill="#31576a"/>
    <path d="M350.85,254.34l-.46-.52c-.18-.07-.25-.16-.23-.28s.06-.2.11-.2a1,1,0,0,0,.07-.46c.41-.41.05-1,.43-1.47.6-.94.65-2.13,1.36-3a1,1,0,0,1,.78.73C352.35,250.92,352.5,253,350.85,254.34Z" transform="translate(-13.39 -15.78)" fill="#126691"/>
    <path d="M313.86,288.92a2.64,2.64,0,0,1-2,.34c-.12-1.83-1.13-3.43-1.38-5.22.15-.24.3-.23.46,0a14.62,14.62,0,0,1,1.25,3.52A1.71,1.71,0,0,0,313.86,288.92Z" transform="translate(-13.39 -15.78)" fill="#3c6478"/>
    <path d="M356.62,248.05c.91-.77-.08-2.11.86-2.87a11.39,11.39,0,0,1-.87,6.31,1.31,1.31,0,0,0-.47-1C355.47,249.49,355.88,248.74,356.62,248.05Z" transform="translate(-13.39 -15.78)" fill="#146e9c"/>
    <path d="M253.1,247.5l1.23.13c.53.29,1.15.13,1.69.36a4.83,4.83,0,0,1,2.75.44c-.37.61-1.13.09-1.55.53h-.51c-.52-.33-1.15-.14-1.69-.37l-1.19-.13c-.51-.3-1.12-.1-1.63-.35l-.75-.09C251.69,246.83,252.49,247.48,253.1,247.5Z" transform="translate(-13.39 -15.78)" fill="#bac0c4"/>
    <path d="M312.37,241.77l-.06,7.84A16.12,16.12,0,0,1,312.37,241.77Z" transform="translate(-13.39 -15.78)" fill="#a9b1b6"/>
    <path d="M297,239.4h-.53a9.1,9.1,0,0,1-1.22-4.37A12.17,12.17,0,0,1,297,239.4Z" transform="translate(-13.39 -15.78)" fill="#1b3b4c"/>
    <path d="M307,237.82l.51.6a9.07,9.07,0,0,0-1.42,3.86c-.14.22-.28.22-.43,0A4.36,4.36,0,0,1,307,237.82Z" transform="translate(-13.39 -15.78)" fill="#b0b7bc"/>
    <path d="M343.09,233.61c.29.53,1.19.67,1,1.52a1.51,1.51,0,0,0-1.68-.51c-.76.16-1.54.23-2.61.39C340.81,233.84,342,233.88,343.09,233.61Z" transform="translate(-13.39 -15.78)" fill="#a3acb1"/>
    <path d="M318.49,278.69h.78a7.56,7.56,0,0,1,2.27-.33c.27.39.71.39,1.11.49-1.65.77-3.32.5-5.21.4C317.87,278.66,318.18,278.66,318.49,278.69Z" transform="translate(-13.39 -15.78)" fill="#b0b7bb"/>
    <path d="M334.49,240.38c.05.56-.31,1-.51,1.44-.67.3-1.45.2-2.12.55a1.88,1.88,0,0,1-.63.08,1.14,1.14,0,0,1-.51-.36c0-.1-.06-.2-.1-.3C331.55,240.32,333.16,240.74,334.49,240.38Z" transform="translate(-13.39 -15.78)" fill="#88939a"/>
    <path d="M249.2,239.3c-.52.2-1.2-.07-1.58.54a6.1,6.1,0,0,1-3.05-.87A7,7,0,0,1,249.2,239.3Z" transform="translate(-13.39 -15.78)" fill="#a9b1b6"/>
    <path d="M340.65,258.28c.18-.22.37-.43.55-.64.71.83,1.8.33,2.64.73C342.49,259.54,342.18,259.53,340.65,258.28Z" transform="translate(-13.39 -15.78)" fill="#c1c6ca"/>
    <path d="M334.49,228.86l-.56-.54a2.45,2.45,0,0,1,2.45-2.41l.56.57A8.68,8.68,0,0,1,334.49,228.86Z" transform="translate(-13.39 -15.78)" fill="#1881b6"/>
    <path d="M331.27,274.79l-.61.58c-1.37-.77-1.2-1.91-.84-3.42C330.77,272.89,330.38,274.18,331.27,274.79Z" transform="translate(-13.39 -15.78)" fill="#838f96"/>
    <path d="M309.05,261H310c1.34.16,1.87,1.26,2.56,2.18,0,.39-.32.54-.62.7C310.68,263.2,310.05,261.91,309.05,261Z" transform="translate(-13.39 -15.78)" fill="#0d5073"/>
    <path d="M339.79,269.07a1.42,1.42,0,0,0,.92,1.05,1.5,1.5,0,0,1,0,1.89l-.22.06-.23,0c-.46-.33-.92-.65-.95-1.3s-.49-1.05,0-1.57C339.4,268.84,339.55,268.71,339.79,269.07Z" transform="translate(-13.39 -15.78)" fill="#bec4c7"/>
    <path d="M331.49,260.61c-.88-1.33-.11-2.41.55-3.5a.92.92,0,0,1,.71.65,5,5,0,0,1-.43,2.31A1.21,1.21,0,0,1,331.49,260.61Z" transform="translate(-13.39 -15.78)" fill="#6d7b83"/>
    <path d="M327.28,254.29l-.68-.6a1.23,1.23,0,0,1,1.37-.41c1.07,0,2.26-.82,3.14.46Z" transform="translate(-13.39 -15.78)" fill="#acb3b8"/>
    <path d="M348.32,264a.76.76,0,0,1-.65.89c-.4.08-.84,0-.95-.46s.22-.89.75-1A.71.71,0,0,1,348.32,264Z" transform="translate(-13.39 -15.78)" fill="#1a8ac2"/>
    <path d="M342.65,227.88c-.45.23-.46.7-.57,1.12a3,3,0,0,1-.46-1.8c0-.44-.19-1.07.46-1.15s.74.53.83,1C343,227.27,342.75,227.59,342.65,227.88Z" transform="translate(-13.39 -15.78)" fill="#a3abb0"/>
    <path d="M346.44,232.18a3.12,3.12,0,0,1,3.09-.42,4.2,4.2,0,0,1-2.11.88C347.16,232.34,346.65,232.58,346.44,232.18Z" transform="translate(-13.39 -15.78)" fill="#a0a9ae"/>
    <path d="M311.92,263.88l.47-.47c1.31-.21,1.87.77,2.53,1.59.06.41-.22.56-.54.69C313.32,265.42,312.78,264.43,311.92,263.88Z" transform="translate(-13.39 -15.78)" fill="#11628c"/>
    <path d="M331.11,253.74c-1-.78-2.1-.26-3.14-.46a6.18,6.18,0,0,1,4.36.05A1,1,0,0,1,331.11,253.74Z" transform="translate(-13.39 -15.78)" fill="#a7afb4"/>
    <path d="M323,242.77l.5.58a6.47,6.47,0,0,0-.6,2.28l-.85-.94A2.59,2.59,0,0,1,323,242.77Z" transform="translate(-13.39 -15.78)" fill="#b7bec1"/>
    <path d="M339.84,240.92c-.19-.33-.08-.82-.53-1a1,1,0,0,1,.46-1c.37-.3.83-.62,1.22-.16.56.66-.34.63-.53.95S340.05,240.51,339.84,240.92Z" transform="translate(-13.39 -15.78)" fill="#8e999f"/>
    <path d="M305.74,267.17l-.52.54c-.3-1-.6-1.94-.89-2.91a.83.83,0,0,1,.43-.49A6.08,6.08,0,0,1,305.74,267.17Z" transform="translate(-13.39 -15.78)" fill="#305669"/>
    <path d="M248.61,247.5a2,2,0,0,1-1.89-.84,5.19,5.19,0,0,1,3.35.34C249.73,247.59,249,247.09,248.61,247.5Z" transform="translate(-13.39 -15.78)" fill="#77848c"/>
    <path d="M352.6,249l-.47-.57a6.53,6.53,0,0,1,1.13-2.25l.45.49C353.93,247.7,353.79,248.58,352.6,249Z" transform="translate(-13.39 -15.78)" fill="#1679aa"/>
    <path d="M330.13,245.16c-.42.26-.45.69-.51,1.12-.74-1-.34-2,.05-3.05.47-.12.68.17.84.54A1.28,1.28,0,0,1,330.13,245.16Z" transform="translate(-13.39 -15.78)" fill="#c9ced0"/>
    <path d="M341.59,269.66a1.16,1.16,0,0,1,1.11.54c0,.51.3,1.12-.39,1.4-.35.14-.56-.15-.71-.44A1.23,1.23,0,0,1,341.59,269.66Z" transform="translate(-13.39 -15.78)" fill="#d0d4d6"/>
    <path d="M341.59,269.66c0,.5,0,1,0,1.5-.36.22-.33.86-.91.85,0-.63,0-1.26,0-1.89A1,1,0,0,1,341.59,269.66Z" transform="translate(-13.39 -15.78)" fill="#6d7b83"/>
    <path d="M330.24,243.79l-.57-.56a1.63,1.63,0,0,1,.95-1.44l.17.15.21.21.15.16C331.32,243.1,331.12,243.66,330.24,243.79Z" transform="translate(-13.39 -15.78)" fill="#88939a"/>
    <path d="M335.47,257.44c0,.43-.09.86-.13,1.29-.89-.18-1.31-.94-1.91-1.49a.65.65,0,0,1,.09-.59A1.87,1.87,0,0,1,335.47,257.44Z" transform="translate(-13.39 -15.78)" fill="#a0a9ae"/>
    <path d="M337.85,272a2.68,2.68,0,0,1-.93-1.75c.86-.14,1.09,1,1.86.75a.61.61,0,0,1,.14.55A1.26,1.26,0,0,1,337.85,272Z" transform="translate(-13.39 -15.78)" fill="#8e999f"/>
    <path d="M333.52,256.65a1.33,1.33,0,0,1,0,.4c-.13.51-.41.77-1,.6l-.54-.54C332.36,256.39,332.76,255.93,333.52,256.65Z" transform="translate(-13.39 -15.78)" fill="#89949b"/>
    <path d="M253.1,247.5c-.57.1-1.23-.07-1.65.51a2,2,0,0,1-1.57-.38c.22-.45.77-.19,1.06-.49A3.66,3.66,0,0,1,253.1,247.5Z" transform="translate(-13.39 -15.78)" fill="#b6bcc0"/>
    <path d="M314.38,265.69l.49-.43a1,1,0,0,1,1.27-.09l.12.75C315.55,266.55,315,265.81,314.38,265.69Z" transform="translate(-13.39 -15.78)" fill="#177eb1"/>
    <path d="M339.27,240.33v2.93A2.46,2.46,0,0,1,339.27,240.33Z" transform="translate(-13.39 -15.78)" fill="#ccd0d3"/>
    <path d="M345.84,268.15c.49.07,1,.15,1,.78-.7.24-.43,1-.82,1.44-.08-.65,0-1.37-.69-1.77A.5.5,0,0,1,345.84,268.15Z" transform="translate(-13.39 -15.78)" fill="#adb4b9"/>
    <path d="M338.82,271.58l0-.55c0-.66-.07-1.35.5-1.86l.39,1.57c-.26.26-.06.71-.38.95A.4.4,0,0,1,338.82,271.58Z" transform="translate(-13.39 -15.78)" fill="#9da6ab"/>
    <path d="M327.7,260l-.45-.45a1.47,1.47,0,0,1,1.76-.26A1,1,0,0,1,327.7,260Z" transform="translate(-13.39 -15.78)" fill="#65747d"/>
    <path d="M345.51,235.08c-1.19-.64-.67-1.29,0-1.94.13.1.18.21.14.31s-.09.17-.13.17Z" transform="translate(-13.39 -15.78)" fill="#bbc1c5"/>
    <path d="M350.27,253.34l.12.48c-.19.66,0,1.42-.51,2C349.94,255,349.53,254.07,350.27,253.34Z" transform="translate(-13.39 -15.78)" fill="#011b2b"/>
    <path d="M355.11,267.24a5.37,5.37,0,0,1,.12-1.4c.2-.63.51-.35.75,0C355.48,266.19,355.72,267,355.11,267.24Z" transform="translate(-13.39 -15.78)" fill="#3a4e59"/>
    <path d="M250.94,247.14c-.25.39-.68.38-1.06.49l-1.27-.13c.36-.55,1-.28,1.46-.5Z" transform="translate(-13.39 -15.78)" fill="#caced1"/>
    <path d="M257.22,249c.38-.56,1-.31,1.55-.53l.82.12c-.39.56-1,.33-1.54.51Z" transform="translate(-13.39 -15.78)" fill="#e2e4e5"/>
    <path d="M301.41,289.76a1.21,1.21,0,0,1,.24,1.61c-.51-.24-.56-.73-.72-1.14C301.11,290.09,301.1,289.76,301.41,289.76Z" transform="translate(-13.39 -15.78)" fill="#224456"/>
    <path d="M338.82,271.58h.35c.18.06.27.16.26.28s0,.22-.08.22l-.11-.06c-.13.19-.31.34-.44.53-.48.12-.75-.14-.95-.52C338,271.6,338.43,271.59,338.82,271.58Z" transform="translate(-13.39 -15.78)" fill="#b3babe"/>
    <path d="M331.49,260.61l.54-.54a.73.73,0,0,1,.56.8l0,.64C332,261.48,331.71,261.08,331.49,260.61Z" transform="translate(-13.39 -15.78)" fill="#abb2b7"/>
    <path d="M346.44,232.18c.37.06.77.06,1,.46a.35.35,0,0,1-.34.1c-.23,0-.39.22-.6.3l-.49.11a2.54,2.54,0,0,1,0-.39q-.19-.16-.12-.3c.05-.09.1-.14.15-.14A.51.51,0,0,1,346.44,232.18Z" transform="translate(-13.39 -15.78)" fill="#bbc1c5"/>
    <path d="M300.35,287.89h.51c.14.48.29,1,.43,1.44-.14.23-.29.24-.45,0C300.33,289,300.39,288.41,300.35,287.89Z" transform="translate(-13.39 -15.78)" fill="#3a6377"/>
    <path d="M306.23,242.7a1.55,1.55,0,0,1,.26.37c.11.33.33.83-.14.92s-.57-.4-.59-.81C305.9,243,305.93,242.72,306.23,242.7Z" transform="translate(-13.39 -15.78)" fill="#62717a"/>
    <path d="M317.66,270.61c-.44.26-.45.72-.54,1.14a1.67,1.67,0,0,1-.26-1.13c0-.24.13-.48.42-.48S317.65,270.36,317.66,270.61Z" transform="translate(-13.39 -15.78)" fill="#9ca5aa"/>
    <path d="M339.35,272.08l-.18-.5c.13-.3.11-.69.5-.84l.57,1.3Z" transform="translate(-13.39 -15.78)" fill="#3b4e5a"/>
    <path d="M350.77,251.41a1.79,1.79,0,0,1-.43,1.47C350.34,252.35,350.22,251.78,350.77,251.41Z" transform="translate(-13.39 -15.78)" fill="#011b2b"/>
    <path d="M302.35,256.64c-.15.16-.29.32-.43.49l-.12-.87.42-.49C302.26,256.06,302.3,256.35,302.35,256.64Z" transform="translate(-13.39 -15.78)" fill="#396277"/>
    <path d="M255,248.58c.59,0,1.22-.2,1.69.37A2.51,2.51,0,0,1,255,248.58Z" transform="translate(-13.39 -15.78)" fill="#b6bcc0"/>
    <path d="M256,248c-.59,0-1.22.19-1.69-.36A2.5,2.5,0,0,1,256,248Z" transform="translate(-13.39 -15.78)" fill="#b6bcc0"/>
    <path d="M252.2,248.1c.58,0,1.17-.19,1.63.35A2.45,2.45,0,0,1,252.2,248.1Z" transform="translate(-13.39 -15.78)" fill="#b6bcc0"/>
    <path d="M358,275.38c-.52-.33-.4-.92-.57-1.4C358.1,274.26,358,274.84,358,275.38Z" transform="translate(-13.39 -15.78)" fill="#04273a"/>
    <path d="M304.76,264.31c-.14.16-.29.32-.43.49l-.12-.87.42-.49C304.67,263.73,304.72,264,304.76,264.31Z" transform="translate(-13.39 -15.78)" fill="#3a6378"/>
    <path d="M324.71,246.09l.76.12a1.66,1.66,0,0,1-.11.38c-.31,0-.71.12-.9,0C324,246.19,324.43,246.15,324.71,246.09Z" transform="translate(-13.39 -15.78)" fill="#76838b"/>
    <path d="M317.27,273c.52.45.4,1,.34,1.61A2.4,2.4,0,0,1,317.27,273Z" transform="translate(-13.39 -15.78)" fill="#9ca5aa"/>
    <path d="M334.52,273.86a.83.83,0,0,1,1.38.05A1.79,1.79,0,0,1,334.52,273.86Z" transform="translate(-13.39 -15.78)" fill="#ccd0d3"/>
    <path d="M311,284h-.46a1.26,1.26,0,0,1-.08-.43l.43-.48C310.91,283.43,310.94,283.73,311,284Z" transform="translate(-13.39 -15.78)" fill="#3c667a"/>
    <path d="M344.06,270.56l.24-.63a.54.54,0,0,1,.29.58Z" transform="translate(-13.39 -15.78)" fill="#859197"/>
    <path d="M339.26,243.25a.88.88,0,0,1,.52.88A.8.8,0,0,1,339.26,243.25Z" transform="translate(-13.39 -15.78)" fill="#ccd0d3"/>
    <path d="M356.19,266.15c.54.41.62.81,0,1.22Z" transform="translate(-13.39 -15.78)" fill="#3a4e59"/>
    <path d="M312.87,241.8l-.5,0c-.09-.33,0-.78.28-.76S313,241.47,312.87,241.8Z" transform="translate(-13.39 -15.78)" fill="#a9b1b6"/>
    <path d="M336.91,256.21l.63.24-.33.32C337,256.66,336.78,256.51,336.91,256.21Z" transform="translate(-13.39 -15.78)" fill="#ced2d5"/>
    <path d="M318,283.72a1.93,1.93,0,0,1,.11.34s-.1.08-.15.12a2.17,2.17,0,0,1-.12-.36S317.91,283.75,318,283.72Z" transform="translate(-13.39 -15.78)" fill="#697881"/>
    <path d="M318,272a1.05,1.05,0,0,1-.32-1A1.32,1.32,0,0,1,318,272Z" transform="translate(-13.39 -15.78)" fill="#9ca5aa"/>
    <path d="M306.23,242.7l-.47.48-.06-.9h.43A.63.63,0,0,1,306.23,242.7Z" transform="translate(-13.39 -15.78)" fill="#9ca6aa"/>
    <path d="M300.84,289.33h.45a1.69,1.69,0,0,1,.12.44l-.48.47Z" transform="translate(-13.39 -15.78)" fill="#3d667b"/>
    <path d="M346.48,267.36l-.41.36C346.08,267.45,346.2,267.32,346.48,267.36Z" transform="translate(-13.39 -15.78)" fill="#adb4b9"/>
    <path d="M347.37,267.72l-.41-.37C347.25,267.31,347.37,267.45,347.37,267.72Z" transform="translate(-13.39 -15.78)" fill="#adb4b9"/>
    <path d="M356.13,267.65l.53.47C356.3,268.17,356.11,268,356.13,267.65Z" transform="translate(-13.39 -15.78)" fill="#3a4e59"/>
    <path d="M356.92,268.1a.64.64,0,0,1,.62-.3A.48.48,0,0,1,356.92,268.1Z" transform="translate(-13.39 -15.78)" fill="#3a4e59"/>
    <path d="M350.18,268.68a.49.49,0,0,1-.33-.51l.5.05,0,0C350.27,268.35,350.22,268.52,350.18,268.68Z" transform="translate(-13.39 -15.78)" fill="#a1a9af"/>
    <path d="M351.19,268.76a.61.61,0,0,1,.57.37A.48.48,0,0,1,351.19,268.76Z" transform="translate(-13.39 -15.78)" fill="#a1a9af"/>
    <path d="M338.8,272.55l.44-.53C339.29,272.36,339.15,272.54,338.8,272.55Z" transform="translate(-13.39 -15.78)" fill="#9da6ab"/>
    <path d="M322.12,246.61l.31.61A.65.65,0,0,1,322.12,246.61Z" transform="translate(-13.39 -15.78)" fill="#b7bec1"/>
    <path d="M346,232.32a3.25,3.25,0,0,1,0,.44l-.57-.16A.54.54,0,0,1,346,232.32Z" transform="translate(-13.39 -15.78)" fill="#a0a9ae"/>
    <path d="M346.48,233a.58.58,0,0,1,.6-.3Z" transform="translate(-13.39 -15.78)" fill="#a0a9ae"/>
    <path d="M348.34,285.91l-.36.56Z" transform="translate(-13.39 -15.78)" fill="#0a4361"/>
    <path d="M345.51,233.62c0-.16,0-.32,0-.48l.51,0Z" transform="translate(-13.39 -15.78)" fill="#a0a9ae"/>
    <path d="M308.67,316.71a9.24,9.24,0,0,1,3.46-2.71c1.36-.77,3-.16,4.54.32a5.69,5.69,0,0,1,.76,4.81c-1.09,4.82-2,9.68-3.58,14.39a5.35,5.35,0,0,1-.41,1.12c-2.29,4-3.92,8.39-6.83,12.05a5.46,5.46,0,0,1-6.71,2,1.44,1.44,0,0,0-1.33.11c-4.33-1.61-8.45-3.7-12.61-5.69a107.72,107.72,0,0,0,14.8-14.94c.59-.75,1.2-1.49,1.74-2.28,1.87-2.77,3.71-5.55,5.56-8.33a.38.38,0,0,0,.32-.32Z" transform="translate(-13.39 -15.78)" fill="#24b6fe"/>
    <path d="M193.36,346.92a129.63,129.63,0,0,1,21.81,14.33c.87.7,1.78,1.34,2.66,2,.11.43,0,.62-.48.48-3.57-2.35-6.83-5.14-10.42-7.46-4.66-3-9.18-6.2-14-8.88C192.78,347,192.86,346.73,193.36,346.92Z" transform="translate(-13.39 -15.78)" fill="#232424"/>
    <path d="M217.35,363.73l.48-.48a41.29,41.29,0,0,1,4.68,4.06c4.38,4.07,8.89,8,13,12.38.49.52,1.09,1,1.07,1.79h0c-3-2.67-6.13-5.28-8.93-8.21C224.4,369.88,220.69,367,217.35,363.73Z" transform="translate(-13.39 -15.78)" fill="#292a2a"/>
    <path d="M193.36,346.92l-.47.47-7.53-3.72A18,18,0,0,1,193.36,346.92Z" transform="translate(-13.39 -15.78)" fill="#2d2d2d"/>
    <path d="M237.55,382.62a2.76,2.76,0,0,1,1.71,1.69A2.06,2.06,0,0,1,237.55,382.62Z" transform="translate(-13.39 -15.78)" fill="#2d2e2e"/>
    <path d="M236.56,381.48l.2.19s-.1,0-.12,0a1.19,1.19,0,0,1-.08-.16Z" transform="translate(-13.39 -15.78)" fill="#292a2a"/>
    <path d="M341.19,320.48a6.56,6.56,0,0,1-3.4-.93C339,319.51,340.26,319.44,341.19,320.48Z" transform="translate(-13.39 -15.78)" fill="#b6d9e8"/>
    <path d="M438.16,302.28c-.85-.86-.4-1.92-.46-2.91A5,5,0,0,1,438.16,302.28Z" transform="translate(-13.39 -15.78)" fill="#45c0fc"/>
    <path d="M377.63,152.91a24.49,24.49,0,0,0-8.94,3.06c-.41.24-.76.59-1.22.06s-.17-1.06.24-1.44a10.46,10.46,0,0,1,4.75-2.07,12.92,12.92,0,0,1,4.72-.4C377.54,152.26,377.79,152.47,377.63,152.91Z" transform="translate(-13.39 -15.78)" fill="#1e1a17"/>
    <path d="M362.32,168.84c0,.54-.08,1.17.64,1.39,1.13.34,2.1,1.17,3.39,1a1.22,1.22,0,0,1,1.43.73,6.15,6.15,0,0,1-5.26-.9c-1-.65-1.26-1.4-.2-2.25Z" transform="translate(-13.39 -15.78)" fill="#f7c3b4"/>
    <path d="M367.47,176.76c2.36-.9,4.92-.87,7-2.5C373.93,176.16,370.82,177.23,367.47,176.76Z" transform="translate(-13.39 -15.78)" fill="#f4baaf"/>
    <path d="M362.32,168.84a3.36,3.36,0,0,1,.24-.92c1-1.69,1.34-3.71,2.43-5.39-.29,2.36-.77,4.63-2.67,6.31Z" transform="translate(-13.39 -15.78)" fill="#f7c3b4"/>
    <path d="M376.73,158.32c-1.94.53-3.78,1.56-6.42,1.3a30,30,0,0,1,6.41-1.75c.17.1.22.2.17.3S376.79,158.32,376.73,158.32Z" transform="translate(-13.39 -15.78)" fill="#8a796a"/>
    <path d="M374,159.68a.92.92,0,0,1,1,1,.82.82,0,0,1-.86.91.89.89,0,0,1-.91-.89A.81.81,0,0,1,374,159.68Z" transform="translate(-13.39 -15.78)" fill="#342e28"/>
    <path d="M358.46,160.58a3,3,0,0,1,3-.08l-3,.58c-.15-.11-.2-.23-.15-.34S358.41,160.58,358.46,160.58Z" transform="translate(-13.39 -15.78)" fill="#6e6054"/>
    <path d="M360,162.54a.73.73,0,0,1-.75.66.65.65,0,0,1-.74-.72.8.8,0,0,1,.76-.77C359.69,161.68,360,162,360,162.54Z" transform="translate(-13.39 -15.78)" fill="#3a332d"/>
    <path d="M380,152.08c.37,0,.77-.16,1.1.24-.87.82-1.93.71-3,.67-.2-.66.28-.65.7-.7S379.68,152.4,380,152.08Z" transform="translate(-13.39 -15.78)" fill="#c0a994"/>
    <path d="M358.46,160.58v.5c-.65.11-1.28.61-2.08,0C357,160.44,357.78,160.63,358.46,160.58Z" transform="translate(-13.39 -15.78)" fill="#443c34"/>
    <path d="M376.73,158.32c0-.15,0-.3,0-.45a3.37,3.37,0,0,1,2.18.09A3.64,3.64,0,0,1,376.73,158.32Z" transform="translate(-13.39 -15.78)" fill="#877768"/>
    <path d="M379.1,152.48l-1,.51-.52-.08-.45-.79a4.15,4.15,0,0,1,1.92,0c.17.08.23.16.17.24S379.16,152.48,379.1,152.48Z" transform="translate(-13.39 -15.78)" fill="#64584c"/>
    <path d="M379.1,152.48a2.16,2.16,0,0,0,0-.36l.93,0C379.84,152.5,379.48,152.51,379.1,152.48Z" transform="translate(-13.39 -15.78)" fill="#817163"/>
    <path d="M183.34,422.82a10.33,10.33,0,0,1-5.61.32c-2.61-.33-5.22-.3-7.83-.39a3.82,3.82,0,0,1-2.52-.42c0-.31.34-.3.5-.45,5-.19,10,.64,15,.46C183,422.5,183.31,422.52,183.34,422.82Z" transform="translate(-13.39 -15.78)" fill="#b8b8b8"/>
    <path d="M188.51,437.23c1.75,0,3.5-.1,5.24,0a14.44,14.44,0,0,1,3.44.76c-3.39-.21-6.79.59-10.14-.3C187.42,437.16,188.09,437.61,188.51,437.23Z" transform="translate(-13.39 -15.78)" fill="#adadad"/>
    <path d="M138.66,417.5a15.11,15.11,0,0,0-5.77,7.67.66.66,0,0,1-.38-.42c.79-3.6,3.05-6.05,6.12-7.87A.38.38,0,0,1,138.66,417.5Z" transform="translate(-13.39 -15.78)" fill="#c6c6c6"/>
    <path d="M170.82,435.68c-3.06-.57-6.23-.58-9.16-1.81q-.24-.18-.15-.33c.05-.11.11-.16.16-.16a49.09,49.09,0,0,0,7.61,1.34c.54.07,1.11,0,1.53.46.16.1.21.21.16.33S170.87,435.68,170.82,435.68Z" transform="translate(-13.39 -15.78)" fill="#c5c5c5"/>
    <path d="M185.68,437.58c-2.2-.54-4.54-.14-6.72-.87-.15-.1-.21-.2-.15-.3s.1-.15.15-.15a22.83,22.83,0,0,1,6.73.86c.16.11.22.21.16.31S185.74,437.58,185.68,437.58Z" transform="translate(-13.39 -15.78)" fill="#999"/>
    <path d="M134.82,433.29a18.7,18.7,0,0,0,5.35,4.75.48.48,0,0,1-.77.11,12.39,12.39,0,0,1-5-4.37A.85.85,0,0,1,134.82,433.29Z" transform="translate(-13.39 -15.78)" fill="#c5c5c5"/>
    <path d="M164.56,421.82l-8.63-.12c-.17-.08-.23-.17-.18-.26s.11-.14.17-.14c2.87,0,5.75-.15,8.62.12.12.08.16.17.12.26S164.59,421.82,164.56,421.82Z" transform="translate(-13.39 -15.78)" fill="#959595"/>
    <path d="M170.82,435.68v-.5a19.49,19.49,0,0,1,5.29.95c.15.1.2.21.15.31s-.1.16-.16.16Z" transform="translate(-13.39 -15.78)" fill="#a6a6a6"/>
    <path d="M134.82,433.29l-.46.49a11.59,11.59,0,0,1-1.9-4.31c.15-.23.31-.22.46,0Z" transform="translate(-13.39 -15.78)" fill="#b4b4b4"/>
    <path d="M161.67,433.38c0,.16,0,.32,0,.48a15.15,15.15,0,0,1-4.31-1c-.16-.1-.21-.21-.16-.31s.11-.15.16-.15A25.42,25.42,0,0,1,161.67,433.38Z" transform="translate(-13.39 -15.78)" fill="silver"/>
    <path d="M157.35,432.43v.46h-5.69v-.48A33.79,33.79,0,0,1,157.35,432.43Z" transform="translate(-13.39 -15.78)" fill="#b7b7b7"/>
    <path d="M151.68,421.24a3.55,3.55,0,0,1-2.56-.41,4.43,4.43,0,0,1,4-.06C152.76,421.33,152.08,420.87,151.68,421.24Z" transform="translate(-13.39 -15.78)" fill="#c8c8c8"/>
    <path d="M183.34,422.82l-.5-.48a38.86,38.86,0,0,1,5.71,0c.16.08.22.17.16.27s-.1.13-.16.13Z" transform="translate(-13.39 -15.78)" fill="#939393"/>
    <path d="M151.68,421.24c.36-.49.95-.3,1.42-.47a5.5,5.5,0,0,1,2.82.53c0,.14,0,.27,0,.4Z" transform="translate(-13.39 -15.78)" fill="#9a9a9a"/>
    <path d="M132.92,429.47h-.46a16.23,16.23,0,0,1,0-4.72l.39.42Z" transform="translate(-13.39 -15.78)" fill="#a7a7a7"/>
    <path d="M138.66,417.5l0-.62a3.39,3.39,0,0,1,2.36-1.26C140.46,416.58,139.41,416.85,138.66,417.5Z" transform="translate(-13.39 -15.78)" fill="#d7d7d7"/>
    <path d="M164.56,421.82c0-.14,0-.27,0-.41l3.34.47-.5.45C166.42,422.24,165.4,422.55,164.56,421.82Z" transform="translate(-13.39 -15.78)" fill="#a5a5a5"/>
    <path d="M185.68,437.58c0-.15,0-.3,0-.46l2.82.11c-.38.51-1,.32-1.46.46Z" transform="translate(-13.39 -15.78)" fill="#949494"/>
    <path d="M176.09,436.6c0-.16,0-.31,0-.47l2.86.13v.45Z" transform="translate(-13.39 -15.78)" fill="#979797"/>
    <path d="M188.55,422.73c0-.13,0-.27,0-.4a3.88,3.88,0,0,1,2,.18A3.28,3.28,0,0,1,188.55,422.73Z" transform="translate(-13.39 -15.78)" fill="#aaa"/>
    <path d="M139.4,438.15l.77-.1c.39.1.9.32.71.72s-.68.1-1-.12A4.72,4.72,0,0,1,139.4,438.15Z" transform="translate(-13.39 -15.78)" fill="#adadad"/>
    <path d="M390.58,137.4c-5.76,1.06-11.27,3.15-17.18,3.38,1.14-1,2.63-1,4-1.15a36.38,36.38,0,0,0,4.42-.88,26.16,26.16,0,0,1,4.4-.94C387.66,137.7,389.07,137,390.58,137.4Z" transform="translate(-13.39 -15.78)" fill="#2c2b2b"/>
    <path d="M342.16,143.4c3.71-.06,7.42.1,11.13-.17.27,0,.55.18.8.63H342.17c-.16-.1-.22-.2-.17-.31S342.1,143.4,342.16,143.4Z" transform="translate(-13.39 -15.78)" fill="#1d1d1d"/>
    <path d="M342.16,143.4c0,.15,0,.3,0,.46a26.39,26.39,0,0,1-7.91-1C336.9,143.09,339.57,142.7,342.16,143.4Z" transform="translate(-13.39 -15.78)" fill="#272727"/>
    <path d="M410.77,133.1a15.58,15.58,0,0,0-.43-5C411.5,129.54,411.61,131,410.77,133.1Z" transform="translate(-13.39 -15.78)" fill="#141414"/>
    <path d="M358.71,143.18a5.14,5.14,0,0,1-3.24-.06l3.16-.47Z" transform="translate(-13.39 -15.78)" fill="#1e1e1e"/>
    <path d="M309.52,350.36a.61.61,0,0,1-.62.34A.52.52,0,0,1,309.52,350.36Z" transform="translate(-13.39 -15.78)" fill="#323232"/>
    <path d="M308.56,350.83a.61.61,0,0,1-.65.34A.57.57,0,0,1,308.56,350.83Z" transform="translate(-13.39 -15.78)" fill="#323232"/>
    <path d="M308.38,317.2c0,.21-.11.31-.32.32A.89.89,0,0,1,308.38,317.2Z" transform="translate(-13.39 -15.78)" fill="#fcd4bd"/>
    <path d="M473.15,278.35a1.86,1.86,0,0,1,.05.42C472.93,278.66,472.69,278.55,473.15,278.35Z" transform="translate(-13.39 -15.78)" fill="#a07f7f"/>
    <path d="M473.68,278.76l.17.09-.17-.09Z" transform="translate(-13.39 -15.78)" fill="#24b5fd"/>
    <path d="M344.54,447.75a29.2,29.2,0,0,1-6.13-3.23c-2.92-2-6.33-3-9.33-4.89-.19-.12-.41-.19-.44-.47,1-.42,1.81.09,2.69.51a87.67,87.67,0,0,1,10.31,5.59,6.27,6.27,0,0,0,2.39,1.09c.61.43,1.42-.25,2,.37.24.12.75.07.67.39s-.68.56-1.11.71A.9.9,0,0,1,344.54,447.75Z" transform="translate(-13.39 -15.78)" fill="#4f4f4f"/>
    <path d="M321,435.8a17.5,17.5,0,0,1,4.33.91c.09.48-.05.72-.58.55a21.81,21.81,0,0,1-4.3-1C320.53,436,320.82,435.94,321,435.8Z" transform="translate(-13.39 -15.78)" fill="#787878"/>
    <path d="M311,434.22l-4.8-.94c-.17-.1-.23-.2-.17-.3s.1-.16.16-.16a11.76,11.76,0,0,1,4.82.93c.15.11.21.22.15.32S311,434.22,311,434.22Z" transform="translate(-13.39 -15.78)" fill="#919191"/>
    <path d="M324.77,437.26l.58-.55,3.85.38c.13.11.17.22.12.32s-.1.14-.15.14C327.65,438.2,326.22,437.64,324.77,437.26Z" transform="translate(-13.39 -15.78)" fill="#989898"/>
    <path d="M311.92,433.89a22.08,22.08,0,0,1,4.37,1.19c.23.22.21.42-.05.59a17.44,17.44,0,0,1-4.34-1.33c-.16-.11-.21-.21-.15-.31S311.86,433.89,311.92,433.89Z" transform="translate(-13.39 -15.78)" fill="#8a8a8a"/>
    <path d="M304.25,432.74c-1.55-.67-3.33,0-4.85-.8a.57.57,0,0,1,.51-.29c.62-.07,1.26.14,1.85-.16a4.47,4.47,0,0,1,2.49.85c.16.09.21.18.16.27S304.3,432.74,304.25,432.74Z" transform="translate(-13.39 -15.78)" fill="#aaabab"/>
    <path d="M297,440.12a3.42,3.42,0,0,1,3.42,1.34c-.05.3-.33.34-.52.49a1.52,1.52,0,0,1-1.07-.4c0-.32.28.05.06-.18s-.3,0-.43.1c-.55-.22-.71-1-1.45-1-.14-.08-.2-.16-.15-.25S297,440.12,297,440.12Z" transform="translate(-13.39 -15.78)" fill="#8e8e8e"/>
    <path d="M313.87,443.81a5,5,0,0,1-3-.32c.36-.6,1.08-.11,1.51-.49a3.7,3.7,0,0,1,2.57.3C314.74,443.8,314.16,443.52,313.87,443.81Z" transform="translate(-13.39 -15.78)" fill="#7c7c7c"/>
    <path d="M345.55,444.86v-2.92c.55.94,1.39,1.82.48,2.9C345.88,445.07,345.72,445.07,345.55,444.86Z" transform="translate(-13.39 -15.78)" fill="#cecece"/>
    <path d="M344.54,447.75l1,.07a9.11,9.11,0,0,1-1.53,2.76c-.42.1-.64,0-.48-.48A5.77,5.77,0,0,0,344.54,447.75Z" transform="translate(-13.39 -15.78)" fill="#adadad"/>
    <path d="M328.71,448.27a12.44,12.44,0,0,0-2.85-1.59c0-.51.19-.66.66-.49a4.47,4.47,0,0,1,2.72,1.52l-.05.2a.81.81,0,0,1-.28.3Z" transform="translate(-13.39 -15.78)" fill="#6d6d6d"/>
    <path d="M321.07,445.24a6.33,6.33,0,0,1-2.95-.75c-.23-.21-.22-.4,0-.59,1.15.29,2.4.2,3.46.87C321.56,445.07,321.27,445.1,321.07,445.24Z" transform="translate(-13.39 -15.78)" fill="#6d6d6d"/>
    <path d="M303.1,442.52a3.9,3.9,0,0,1-1.73-.14.35.35,0,0,1-.1-.37q.06-.18.12-.18l4.74.2C305.3,443.31,304.13,442.48,303.1,442.52Z" transform="translate(-13.39 -15.78)" fill="#787878"/>
    <path d="M310,443.36c-1.14.1-2.18-.49-3.3-.52,0-.92.52-.58,1-.47a4.36,4.36,0,0,1,2.35.49c.16.12.21.23.15.34S310.06,443.36,310,443.36Z" transform="translate(-13.39 -15.78)" fill="#535353"/>
    <path d="M307.67,442.37l-1,.47a8.28,8.28,0,0,1-3.6-.32c1-.32,2.12.3,3-.49A1.72,1.72,0,0,1,307.67,442.37Z" transform="translate(-13.39 -15.78)" fill="#8a8a8a"/>
    <path d="M297,440.12c0,.13,0,.25,0,.38a5.29,5.29,0,0,1-3.37-.39c-.16-.12-.21-.23-.15-.34s.11-.16.17-.16Z" transform="translate(-13.39 -15.78)" fill="#747474"/>
    <path d="M343.58,450.1l.48.48c-.31.77-1,1.06-1.67,1.47a.59.59,0,0,1-.68,0A5.66,5.66,0,0,1,343.58,450.1Z" transform="translate(-13.39 -15.78)" fill="#c1c1c1"/>
    <path d="M329.24,447.71a4.17,4.17,0,0,1,1.38,2.34,3.61,3.61,0,0,1-1.91-1.78.39.39,0,0,1,.07-.26l.18,0,0-.18A.41.41,0,0,1,329.24,447.71Z" transform="translate(-13.39 -15.78)" fill="#999a9a"/>
    <path d="M345.55,444.86l.48,0v1.88c-.69,0-1.43.25-2-.37C345,446.35,345.45,445.77,345.55,444.86Z" transform="translate(-13.39 -15.78)" fill="#b6b6b6"/>
    <path d="M318.16,443.9l0,.59a5.78,5.78,0,0,1-2.45-.56c.07-.29.36-.32.56-.46A4,4,0,0,1,318.16,443.9Z" transform="translate(-13.39 -15.78)" fill="#555"/>
    <path d="M316.24,435.67l.05-.59c.83.13,1.72,0,2.44.56,0,.31-.33.33-.53.46A5.36,5.36,0,0,1,316.24,435.67Z" transform="translate(-13.39 -15.78)" fill="#878787"/>
    <path d="M326.52,446.19l-.66.49c-.68-.27-1.48-.23-2.06-.78,0-.33.34-.35.56-.47A4.43,4.43,0,0,1,326.52,446.19Z" transform="translate(-13.39 -15.78)" fill="#747474"/>
    <path d="M293.68,439.61l0,.5c-.63-.07-1.39.18-1.86-.77C292.57,439.11,293.11,439.52,293.68,439.61Z" transform="translate(-13.39 -15.78)" fill="#6c6c6c"/>
    <path d="M329.17,437.55a3.55,3.55,0,0,1,0-.46,2,2,0,0,1,1.65-.76C330.7,437.37,329.79,437.26,329.17,437.55Z" transform="translate(-13.39 -15.78)" fill="#b0b0b0"/>
    <path d="M324.36,445.43l-.56.47c-.49,0-1,0-1.37-.44q-.21-.19-.12-.36c.06-.11.11-.16.17-.16Z" transform="translate(-13.39 -15.78)" fill="#535353"/>
    <path d="M318.2,436.1l.53-.46,2.29.16-.55.47Z" transform="translate(-13.39 -15.78)" fill="#616161"/>
    <path d="M301.39,441.83l0,.55a2.49,2.49,0,0,1-1.45-.43l.52-.49A1.16,1.16,0,0,1,301.39,441.83Z" transform="translate(-13.39 -15.78)" fill="#848484"/>
    <path d="M304.25,432.74v-.4a2.67,2.67,0,0,1,1.91.48c0,.16,0,.31,0,.46Z" transform="translate(-13.39 -15.78)" fill="#a5a5a5"/>
    <path d="M298.55,431.78c-.42,0-.85-.1-.84-.57s.45-.29.73-.28a1.65,1.65,0,0,1,1.08.39C299.34,431.78,298.83,431.53,298.55,431.78Z" transform="translate(-13.39 -15.78)" fill="#8e8f8f"/>
    <path d="M310,443.36l0-.5,2.34.14c-.4.48-1,.27-1.51.49Z" transform="translate(-13.39 -15.78)" fill="#505050"/>
    <path d="M316.23,443.47l-.56.46-1.8-.12c.25-.38.7-.35,1.06-.51Z" transform="translate(-13.39 -15.78)" fill="#535353"/>
    <path d="M301.76,431.49c-.55.56-1.22.41-1.88.32-.13-.1-.16-.19-.11-.27s.1-.12.14-.12Z" transform="translate(-13.39 -15.78)" fill="#7c7c7c"/>
    <path d="M322.48,444.94l-.05.52-1.36-.22.55-.47Z" transform="translate(-13.39 -15.78)" fill="#4d4d4d"/>
    <path d="M299.91,431.42a1.29,1.29,0,0,1,0,.39l-.48.13-.85-.16,1-.46A.6.6,0,0,1,299.91,431.42Z" transform="translate(-13.39 -15.78)" fill="#535353"/>
    <path d="M311.92,433.89c0,.15,0,.3,0,.45l-.93-.12a3.73,3.73,0,0,1,0-.47Z" transform="translate(-13.39 -15.78)" fill="#888"/>
    <path d="M288.58,446.93c0,.05,0,.14,0,.16a.25.25,0,0,1-.2,0c-.21-.1-.2-.2,0-.26C288.44,446.85,288.52,446.91,288.58,446.93Z" transform="translate(-13.39 -15.78)" fill="#b9e0f3"/>
    <path d="M298.48,441.47c.16-.25.3-.55.66-.23l-.29.31h-.19Z" transform="translate(-13.39 -15.78)" fill="#848484"/>
    <path d="M341.71,452.06h.68l-.68.53-.08-.09A.52.52,0,0,1,341.71,452.06Z" transform="translate(-13.39 -15.78)" fill="#8e8e8e"/>
    <path d="M341.71,452.58l-.24.31c-.29-.27-.06-.33.16-.4Z" transform="translate(-13.39 -15.78)" fill="#9c9c9c"/>
    <path d="M249,428l.5-.45Z" transform="translate(-13.39 -15.78)" fill="#2e3031"/>
    <path d="M356.46,285.53a9.21,9.21,0,0,1-2.24,5.63c-1.06-.44-1-1.38-1.06-2.18a4.94,4.94,0,0,1,.08-2.8c.37-.76,1.22-.59,1.88-.76Z" transform="translate(-13.39 -15.78)" fill="#022132"/>
    <path d="M352.67,282c-2.16,2.53-3.83,2.62-6.33.33.29-.84,1.25-.6,1.75-1.1l3.54-.2C352.33,281,352.63,281.37,352.67,282Z" transform="translate(-13.39 -15.78)" fill="#022132"/>
    <path d="M355.71,280.12c-1.82-.72-1.84-.72-1.2-2.44a16.65,16.65,0,0,1,.88-1.92c.22-.4.46-.89,1-.79s.59.63.69,1.09a5.8,5.8,0,0,0,.34.87,7.36,7.36,0,0,0,0,1.15C357.68,279.46,357,280.07,355.71,280.12Z" transform="translate(-13.39 -15.78)" fill="#04273a"/>
    <path d="M354.64,284.56c-1,0-1.62-.35-1.47-1.48a5.59,5.59,0,0,1,2.1-1.53c.56-.33,1.2-.66,1.78-.23s0,1.17,0,1.76c-.33.34-.42.88-.9,1.1s-.77.06-1.09.31h-.21Z" transform="translate(-13.39 -15.78)" fill="#04293d"/>
    <path d="M358.61,284.34a.5.5,0,0,1-.54-.4.81.81,0,0,1,.25-.86,3.88,3.88,0,0,1,1.84-1.05c.83-.17,1.83.06,2,.84s-.86.93-1.49,1.12A16.87,16.87,0,0,1,358.61,284.34Z" transform="translate(-13.39 -15.78)" fill="#052c41"/>
    <path d="M358.53,279.78c1.35-.37,2.52-1.28,4-1.34-.22,1.09-1.33,1.35-1.77,2.16C359.94,280.62,359,280.85,358.53,279.78Z" transform="translate(-13.39 -15.78)" fill="#03273a"/>
    <path d="M356.07,284a1.91,1.91,0,0,1,1-.87c-.06.65.13,1.45-.94,1.43C355.82,284.34,355.81,284.15,356.07,284Z" transform="translate(-13.39 -15.78)" fill="#1471a0"/>
    <path d="M358.91,281.87c-.12.07-.24.22-.36.21-.28,0-.39-.22-.22-.46a.47.47,0,0,1,.41-.15C358.83,281.5,358.86,281.73,358.91,281.87Z" transform="translate(-13.39 -15.78)" fill="#0c4b6c"/>
    <path d="M353.94,281.51c-.06-.1-.19-.22-.18-.31a.32.32,0,0,1,.46-.28.21.21,0,0,1,.07.36A1.41,1.41,0,0,1,353.94,281.51Z" transform="translate(-13.39 -15.78)" fill="#083953"/>
    <path d="M356.07,284l0,.56-1.05,0A1.71,1.71,0,0,1,356.07,284Z" transform="translate(-13.39 -15.78)" fill="#1fa0e1"/>
    <path d="M351.82,286l-2.62.84c-.38-.94.45-1.19.67-1.73l.91,0c.37.36,1-.09,1.31.49A.4.4,0,0,1,351.82,286Z" transform="translate(-13.39 -15.78)" fill="#0a4361"/>
    <path d="M352.09,285.56c-.45-.11-1-.1-1.31-.49C351.29,285.05,351.85,284.88,352.09,285.56Z" transform="translate(-13.39 -15.78)" fill="#126690"/>
    <path d="M352.14,283.88l-.18.34c0-.05-.15-.11-.14-.14s.11-.23.16-.35Z" transform="translate(-13.39 -15.78)" fill="#0b4767"/>
    <path d="M330.24,243.79c.3-.49.61-1,.91-1.48.87-.61,1.71-1.33,2.83-.49h0a1.5,1.5,0,0,1,.45.52c.5,1.68.16,2.53-1.36,3.4-1.3.75-1.77.65-2.94-.58C330.16,244.71,330.2,244.25,330.24,243.79Z" transform="translate(-13.39 -15.78)" fill="#092130"/>
    <path d="M334.43,242.34a.52.52,0,0,1-.45-.52A.56.56,0,0,1,334.43,242.34Z" transform="translate(-13.39 -15.78)" fill="#88939a"/>
    <path d="M336.38,225.91a15.1,15.1,0,0,0-2.45,2.41,42,42,0,0,1-10.19,6.43c-.87.35-1.79.6-2.69.9-1.64-.4-1.64-.4-.91-2.4,1.75-2.41,4.06-4.28,6.18-6.34,1.59-.4,2.7-1.62,4.06-2.41a27.74,27.74,0,0,1,6.11-2.64c.54-.16,1.16-.32,1.58.15s.14,1.2-.21,1.74C337.38,224.48,336.87,225.19,336.38,225.91Z" transform="translate(-13.39 -15.78)" fill="#011b2a"/>
    <path d="M352.6,249l1.11-2.33c.88-.65,1.16-2.53,2.43-2.06,1,.37.32,2,.45,3,0,.16,0,.31,0,.47l-.48,2.4a24,24,0,0,1-2.76,6.26,7.1,7.1,0,0,1-1,1.28c-.72.65-1.32.43-1.43-.58s-.05-2-.06-3.07C351.43,252.55,352,250.76,352.6,249Z" transform="translate(-13.39 -15.78)" fill="#011b2b"/>
    <path d="M316.14,265.17l-1.27.09-2.48-1.85L310,261c-.73-1.29-1.52-2.55-2.18-3.87-.35-.68-.39-1.42.76-1.39a19.92,19.92,0,0,1,6.55,6.8A5.79,5.79,0,0,1,316.14,265.17Z" transform="translate(-13.39 -15.78)" fill="#021d2d"/>
    <path d="M351.6,265.78l-.14.17c0-.06,0-.14,0-.19C351.53,265.52,351.58,265.53,351.6,265.78Z" transform="translate(-13.39 -15.78)" fill="#011a29"/>
    <path d="M332.59,260.87l-.56-.8a4.11,4.11,0,0,1,.55-2.42l1-.6a2.7,2.7,0,0,1,1.8,1.68C334.6,260.78,334.55,260.82,332.59,260.87Z" transform="translate(-13.39 -15.78)" fill="#0e2634"/>
    <path d="M331,242.15q-.22,0-.21-.21A.19.19,0,0,1,331,242.15Z" transform="translate(-13.39 -15.78)" fill="#b9bfc3"/>
    <path d="M329,447.79c.09.24,0,.32-.22.22A.66.66,0,0,1,329,447.79Z" transform="translate(-13.39 -15.78)" fill="#4b4b4b"/>
    <path d="M355.15,283.45c-.26-.07-.4-.25-.31-.49s.25-.21.37-.2a.35.35,0,0,1,.3.48C355.48,283.34,355.27,283.38,355.15,283.45Z" transform="translate(-13.39 -15.78)" fill="#167bad"/>
  </g>
</svg>
